{
.appVersion = "3340";
.formatVersion = 3;
DisplayStrings = (
"Im Anfang war das Wort, und das Wort war bei Gott, und Gott war das Wort. Dasselbe war im Anfang bei Gott. Alle Dinge sind durch dasselbe gemacht, und ohne dasselbe ist nichts gemacht, was gemacht ist. In ihm war das Leben, und das Leben war das Licht der Menschen. Und das Licht scheint in der Finsternis, und die Finsternis hat’s nicht ergriffen. Es war ein Mensch, von Gott gesandt, der hieß Johannes. Der kam zum Zeugnis, um von dem Licht zu zeugen, damit sie alle durch ihn glaubten. Er war nicht das Licht, sondern er sollte zeugen von dem Licht. Das war das wahre Licht, das alle Menschen erleuchtet, die in diese Welt kommen. Er war in der Welt, und die Welt ist durch ihn gemacht; aber die Welt erkannte ihn nicht. ",
" ",
"0123456789"
);
classes = (
{
automatic = 1;
code = "A AE B C D E F G H I J K L M N O OE P Q R S Germandbls T U V W X Y Z";
name = Uppercase;
}
);
customParameters = (
{
name = vendorID;
value = TBLD;
},
{
name = fsType;
value = (
3
);
}
);
date = "2024-11-13 15:33:12 +0000";
familyName = OHamburgC;
featurePrefixes = (
{
automatic = 1;
code = "languagesystem DFLT dflt;
";
name = Languagesystems;
}
);
features = (
{
automatic = 1;
code = "feature case;
";
tag = aalt;
},
{
automatic = 1;
code = "lookup ccmp_Other_1 {
	lookupflag 0;
	@Markscomb = [dieresiscomb dotaccentcomb gravecomb acutecomb hungarumlautcomb caroncomb.alt circumflexcomb caroncomb brevecomb ringcomb tildecomb macroncomb commaturnedabovecomb commaaccentcomb cedillacomb ogonekcomb];
	@MarkscombCase = [dieresiscomb.case dotaccentcomb.case gravecomb.case acutecomb.case hungarumlautcomb.case caroncomb.alt.case circumflexcomb.case caroncomb.case brevecomb.case ringcomb.case tildecomb.case macroncomb.case commaturnedabovecomb.case commaaccentcomb.case cedillacomb.case ogonekcomb.case];
	sub @Markscomb @Markscomb' by @MarkscombCase;
	sub @Uppercase @Markscomb' by @MarkscombCase;
} ccmp_Other_1;

lookup ccmp_Other_2 {

glyphs = (
{
color = 2;
glyphname = A;
lastChange = "2025-01-10 14:17:39 +0000";
layers = (
{
anchors = (
{
name = bottom;
pos = (351,0);
},
{
name = ogonek;
pos = (632,10);
},
{
name = top;
pos = (351,616);
}
);
color = 4;
layerId = m005;
shapes = (
{
closed = 1;
nodes = (
(684,-1,l),
(684,24,l),
(614,38,o),
(593,64,o),
(563,135,cs),
(495,306,o),
(428,477,o),
(360,648,c),
(320,576,l),
(317,555,l),
(474,141,ls),
(511,44,o),
(496,43,o),
(412,25,c),
(412,0,l)
);
},
{
closed = 1;
nodes = (
(266,0,l),
(266,25,l),
(195,31,o),
(167,57,o),
(194,130,cs),
(353,564,l),
(320,576,l),
(255,404,o),
(187,198,o),
(125,83,cs),
(106,49,o),
(62,25,o),
(18,25,c),
(18,0,l)
);
},
{
closed = 1;
nodes = (
(468,258,l),
(454,298,l),
(231,298,l),
(214,258,l)
);
}
);
width = 702;
}
);
unicode = 65;
},
{
color = 2;
glyphname = AE;
lastChange = "2025-01-10 14:17:39 +0000";
layers = (
{
anchors = (
{
name = bottom;
pos = (450,0);
},
{
name = top;
pos = (450,616);
}
);
color = 10;
layerId = m005;
shapes = (
{
closed = 1;
nodes = (
(267,0,l),
(267,23,l),
(193,23,o),
(156,60,o),
(195,130,cs),
(457,596,l),
(406,617,l),
(341,445,o),
(185,198,o),
(123,83,cs),
(104,49,o),
(60,25,o),
(16,25,c),
(16,0,l)
);
},
{
closed = 1;
nodes = (
(528,274,l),
(514,314,l),
(253,314,l),
(236,274,l)
);
},
{
closed = 1;
nodes = (
(401,-1,o),
(449,0,o),
(494,0,c),
(639,0,o),
(765,-1,o),
(842,-3,c),
(856,44,o),
(866,110,o),
(866,157,c),
(837,157,l),
(825,90,o),
(786,45,o),
(743,42,cs),
(711,40,o),
(679,39,o),
(624,39,cs),
(586,39,o),
(554,51,o),
(546,68,cs),
(543,74,o),
(541,90,o),
(541,107,cs),
(539,309,ls),
(539,328,o),
(540,407,o),
(541,509,cs),
(541,537,o),
(552,561,o),
(568,569,cs),
(578,574,o),
(602,577,o),
(624,577,cs),
(650,577,o),
(660,576,o),
(692,574,cs),
(717,572,o),
(740,544,o),
(748,499,c),
(782,499,l),
(783,536,o),
(788,586,o),
(795,619,c),
(730,617,o),
(627,616,o),
(504,616,c),
(455,616,o),
(358,617,o),
(333,619,c),
(330,598,l),
(372,586,o),
(380,572,o),
(384,565,cs),
(388,557,o),
(464,577,o),
(464,561,cs),
(465,312,l),
(463,91,ls),
(463,64,o),
(451,40,o),
(435,32,cs),
(437,33,o),
(413,27,o),
(379,18,c),
(379,-3,l)
);
},
{
closed = 1;
nodes = (
(729,184,l),
(723,250,o),
(723,342,o),
(729,408,c),
(703,408,l),
(702,402,o),
(697,388,o),
(692,374,c),
(675,338,o),
(684,314,o),
(626,314,cs),
(487,314,l),
(487,274,l),
(626,274,ls),
(691,274,o),
(681,252,o),
(693,220,cs),
(704,184,l)
);
}
);
width = 900;
}
);
unicode = 198;
},
{
color = 2;
glyphname = B;
lastChange = "2025-01-10 14:17:39 +0000";
layers = (
{
anchors = (
{
name = bottom;
pos = (288,0);
},
{
name = center;
pos = (144,154);
},
{
name = top;
pos = (288,616);
}
);
color = 2;
layerId = m005;
shapes = (
{
closed = 1;
nodes = (
(20,0,l),
(309,0,l),
(309,40,l),
(264,40,o),
(223,38,o),
(204,54,cs),
(195,62,o),
(190,73,o),
(190,91,cs),
(188,307,o),
(187,377,o),
(191,574,c),
(208,576,o),
(266,576,o),
(289,576,c),
(289,616,l),
(20,616,l),
(20,591,l),
(54,581,o),
(78,582,o),
(92,572,cs),
(102,565,o),
(107,552,o),
(107,525,cs),
(108,341,o),
(109,253,o),
(109,312,cs),
(109,373,o),
(108,282,o),
(107,91,cs),
(107,65,o),
(101,51,o),
(92,43,cs),
(76,29,o),
(50,31,o),
(20,25,c)
);
},
{
closed = 1;
nodes = (
(177,318,o),
(189,318,o),
(217,318,cs),
(379,318,o),
(482,378,o),
(482,481,cs),
(482,560,o),
(402,616,o),
(289,616,c),
(289,576,l),
(350,576,o),
(393,529,o),
(393,462,cs),
(393,387,o),
(324,348,o),
(210,348,cs),
(150,348,l),
(151,318,l)
);
},
{
closed = 1;
nodes = (
(434,0,o),
(522,79,o),
(522,191,cs),
(522,280,o),
(437,333,o),
(316,338,cs),
(132,346,l),
(132,314,l),
(154,314,o),
(166,314,o),
(203,314,cs),
(338,314,o),
(429,263,o),
(429,171,cs),
(429,94,o),
(379,40,o),
(309,40,c),
(309,0,l)
);
}
);
width = 576;
}
);
unicode = 66;
},
{
color = 2;
glyphname = C;
lastChange = "2025-01-10 14:17:39 +0000";
layers = (
{
anchors = (
{
name = bottom;
pos = (360,0);
},
{
name = top;
pos = (360,616);
}
);
backgroundImage = {
imagePath = "../../Desktop/Bildschirmfoto 2024-12-24 um 08.52.09.png";
pos = (714,-952);
scale = (-1.4,1.4);
};
color = 4;
layerId = m005;
shapes = (
{
closed = 1;
nodes = (
(479,-11,o),
(572,9,o),
(628,38,c),
(646,106,o),
(662,174,o),
(666,201,c),
(630,200,l),
(606,102,o),
(520,33,o),
(422,33,cs),
(268,33,o),
(162,158,o),
(162,335,cs),
(162,482,o),
(265,586,o),
(414,586,cs),
(506,586,o),
(582,522,o),
(597,432,c),
(637,432,l),
(634,599,l),
(584,573,l),
(551,605,o),
(477,627,o),
(404,627,cs),
(197,627,o),
(54,496,o),
(54,312,cs),
(54,123,o),
(197,-11,o),
(404,-11,cs)
);
}
);
width = 720;
}
);
unicode = 67;
},
{
color = 2;
glyphname = D;
lastChange = "2025-01-10 14:17:39 +0000";
layers = (
{
anchors = (
{
name = bottom;
pos = (351,0);
},
{
name = center;
pos = (176,308);
},
{
name = top;
pos = (351,616);
}
);
background = {
shapes = (
{
closed = 1;
nodes = (
(20,0,l),
(303,0,l),
(303,40,l),
(258,40,o),
(223,38,o),
(204,54,cs),
(195,62,o),
(190,73,o),
(190,91,cs),
(188,307,o),
(187,377,o),
(191,574,c),
(208,576,o),
(260,576,o),
(283,576,c),
(283,616,l),
(20,616,l),
(20,591,l),
(54,581,o),
(78,582,o),
(92,572,cs),
(102,565,o),
(107,552,o),
(107,525,cs),
(108,341,o),
(109,253,o),
(109,312,cs),
(109,373,o),
(108,282,o),
(107,91,cs),
(107,65,o),
(101,51,o),
(92,43,cs),
(76,29,o),
(50,31,o),
(20,25,c)
);
}
);
};
backgroundImage = {
imagePath = "../../Desktop/Bildschirmfoto 2024-12-24 um 13.06.05.png";
pos = (759,-1011);
scale = (-1.4,1.4);
};
color = 2;
layerId = m005;
shapes = (
{
closed = 1;
nodes = (
(20,0,l),
(41,0,o),
(103,0,o),
(145,0,cs),
(145,0,o),
(186,1,o),
(304,-3,c),
(318,38,l),
(266,38,o),
(227,33,o),
(204,55,cs),
(195,63,o),
(190,74,o),
(190,91,cs),
(190,189,o),
(190,476,o),
(191,574,c),
(237,577,o),
(269,578,o),
(315,578,c),
(331,619,l),
(250,618,o),
(188,616,o),
(148,616,c),
(102,616,o),
(49,616,o),
(20,616,c),
(20,590,l),
(56,583,o),
(79,582,o),
(92,572,cs),
(103,565,o),
(107,552,o),
(107,525,cs),
(108,411,o),
(109,323,o),
(109,312,cs),
(109,302,o),
(108,210,o),
(107,91,cs),
(107,66,o),
(102,52,o),
(92,43,cs),
(78,31,o),
(53,30,o),
(20,25,c)
);
},
{
closed = 1;
nodes = (
(304,-3,l),
(505,-2,o),
(648,135,o),
(648,327,cs),
(648,498,o),
(517,619,o),
(331,619,c),
(315,578,l),
(456,578,o),
(555,462,o),
(555,298,cs),
(555,146,o),
(457,38,o),
(318,38,c)
);
}
);
width = 702;
}
);
unicode = 68;
},
{
glyphname = Dcroat;
lastChange = "2025-01-10 16:10:14 +0000";
layers = (
{
layerId = m005;
shapes = (
{
ref = D;
},
{
closed = 1;
nodes = (
(45,268,l),
(272,351,l),
(260,388,l),
(32,305,l)
);
}
);
width = 702;
}
);
unicode = 272;
},
{
color = 2;
glyphname = E;
lastChange = "2025-01-10 16:05:10 +0000";
layers = (
{
anchors = (
{
name = bottom;
pos = (288,0);
},
{
name = ogonek;
pos = (500,10);
},
{
name = top;
pos = (288,616);
},
{
name = topleft;
pos = (20,616);
}
);
background = {
shapes = (
{
closed = 1;
nodes = (
(20,0,l),
(303,0,l),
(303,40,l),
(258,40,o),
(223,38,o),
(204,54,cs),
(195,62,o),
(190,73,o),
(190,91,cs),
(188,307,o),
(187,377,o),
(191,574,c),
(208,576,o),
(260,576,o),
(283,576,c),
(283,616,l),
(20,616,l),
(20,591,l),
(54,581,o),
(78,582,o),
(92,572,cs),
(102,565,o),
(107,552,o),
(107,525,cs),
(108,341,o),
(109,253,o),
(109,312,cs),
(109,373,o),
(108,282,o),
(107,91,cs),
(107,65,o),
(101,51,o),
(92,43,cs),
(76,29,o),
(50,31,o),
(20,25,c)
);
}
);
};
color = 2;
layerId = m005;
shapes = (
{
closed = 1;
nodes = (
(45,-1,o),
(93,0,o),
(138,0,c),
(281,0,o),
(439,-1,o),
(516,-3,c),
(528,44,o),
(538,110,o),
(540,157,c),
(511,157,l),
(499,90,o),
(460,45,o),
(417,42,cs),
(385,40,o),
(321,39,o),
(264,39,cs),
(230,39,o),
(214,44,o),
(203,54,cs),
(193,64,o),
(190,78,o),
(190,98,cs),
(190,267,o),
(189,414,o),
(191,574,c),
(228,576,o),
(257,576,o),
(279,576,cs),
(307,576,o),
(342,576,o),
(374,574,cs),
(399,572,o),
(422,544,o),
(430,499,c),
(464,499,l),
(465,536,o),
(470,586,o),
(477,619,c),
(412,617,o),
(269,616,o),
(148,616,c),
(99,616,o),
(47,617,o),
(20,618,c),
(20,593,l),
(53,588,o),
(77,585,o),
(92,571,cs),
(101,562,o),
(107,548,o),
(107,525,cs),
(109,380,o),
(109,236,o),
(107,91,cs),
(107,67,o),
(102,52,o),
(92,42,cs),
(78,29,o),
(55,26,o),
(20,23,c),
(20,-2,l)
);
},
{
closed = 1;
nodes = (
(403,206,l),
(398,272,o),
(398,364,o),
(403,430,c),
(377,430,l),
(376,424,o),
(371,410,o),
(366,396,c),
(349,360,o),
(326,336,o),
(266,336,cs),
(131,336,l),
(131,296,l),
(266,296,ls),
(333,296,o),
(355,274,o),
(367,242,cs),
(378,206,l)
);
}
);
width = 576;
}
);
unicode = 69;
},
{
glyphname = Schwa;
lastChange = "2025-01-10 16:07:50 +0000";
layers = (
{
anchors = (
{
name = bottom;
pos = (256,608);
},
{
name = ogonek;
pos = (138,593);
},
{
name = top;
pos = (239,6);
}
);
layerId = m005;
shapes = (
{
closed = 1;
nodes = (
(405,133,o),
(357,30,o),
(267,30,cs),
(197,30,o),
(129,104,o),
(125,209,c),
(417,214,l),
(423,246,l),
(36,251,l),
(36,234,l),
(36,91,o),
(133,-11,o),
(248,-11,cs),
(397,-11,o),
(486,124,o),
(486,314,cs),
(486,497,o),
(391,626,o),
(256,626,cs),
(175,626,o),
(85,557,o),
(38,459,c),
(62,439,l),
(102,509,o),
(171,558,o),
(229,558,cs),
(332,558,o),
(405,442,o),
(405,279,cs)
);
}
);
width = 522;
}
);
unicode = 399;
},
{
color = 2;
glyphname = F;
lastChange = "2025-01-10 14:17:39 +0000";
layers = (
{
anchors = (
{
name = bottom;
pos = (243,0);
},
{
name = top;
pos = (243,616);
}
);
background = {
shapes = (
{
closed = 1;
nodes = (
(20,0,l),
(303,0,l),
(303,40,l),
(258,40,o),
(223,38,o),
(204,54,cs),
(195,62,o),
(190,73,o),
(190,91,cs),
(188,307,o),
(187,377,o),
(191,574,c),
(208,576,o),
(260,576,o),
(283,576,c),
(283,616,l),
(20,616,l),
(20,591,l),
(54,581,o),
(78,582,o),
(92,572,cs),
(102,565,o),
(107,552,o),
(107,525,cs),
(108,341,o),
(109,253,o),
(109,312,cs),
(109,373,o),
(108,282,o),
(107,91,cs),
(107,65,o),
(101,51,o),
(92,43,cs),
(76,29,o),
(50,31,o),
(20,25,c)
);
}
);
};
color = 2;
layerId = m005;
shapes = (
{
closed = 1;
nodes = (
(45,0,o),
(251,0,o),
(300,0,c),
(300,29,l),
(254,35,o),
(221,35,o),
(203,54,cs),
(194,64,o),
(189,79,o),
(189,103,cs),
(187,260,o),
(188,417,o),
(191,574,c),
(212,575,o),
(261,576,o),
(283,576,cs),
(311,576,o),
(333,576,o),
(365,574,cs),
(390,572,o),
(412,544,o),
(420,499,c),
(452,499,l),
(454,536,o),
(461,586,o),
(468,619,c),
(403,617,o),
(268,616,o),
(148,616,c),
(99,616,o),
(48,617,o),
(20,618,c),
(20,592,l),
(54,586,o),
(77,584,o),
(92,572,cs),
(101,563,o),
(107,550,o),
(107,525,cs),
(109,380,o),
(109,236,o),
(107,91,cs),
(107,67,o),
(103,53,o),
(94,44,cs),
(81,30,o),
(58,27,o),
(20,23,c),
(20,-1,l)
);
},
{
closed = 1;
nodes = (
(408,206,l),
(402,272,o),
(402,364,o),
(408,430,c),
(386,430,l),
(385,424,o),
(380,410,o),
(375,396,c),
(358,360,o),
(335,336,o),
(275,336,cs),
(141,336,l),
(141,296,l),
(275,296,ls),
(342,296,o),
(364,274,o),
(376,242,cs),
(387,206,l)
);
}
);
width = 486;
}
);
unicode = 70;
},
{
color = 2;
glyphname = G;
lastChange = "2025-01-10 14:17:39 +0000";
layers = (
{
anchors = (
{
name = bottom;
pos = (360,0);
},
{
name = top;
pos = (360,616);
}
);
backgroundImage = {
imagePath = "../../Desktop/Bildschirmfoto 2024-12-23 um 19.38.00.png";
pos = (715,-876);
scale = (-1.37,1.3692);
};
color = 3;
layerId = m005;
shapes = (
{
closed = 1;
nodes = (
(488,-11,o),
(589,11,o),
(644,43,c),
(640,56,l),
(622,57,o),
(612,67,o),
(612,79,c),
(612,208,l),
(612,233,o),
(625,255,o),
(648,260,c),
(676,266,l),
(676,295,l),
(428,295,l),
(428,261,l),
(485,252,o),
(529,233,o),
(529,196,c),
(529,76,l),
(529,55,o),
(494,33,o),
(449,33,cs),
(267,33,o),
(148,141,o),
(148,333,cs),
(148,482,o),
(263,588,o),
(418,588,cs),
(514,588,o),
(584,528,o),
(589,444,c),
(620,444,l),
(622,495,o),
(629,558,o),
(636,595,c),
(586,614,o),
(492,627,o),
(410,627,cs),
(205,627,o),
(54,495,o),
(54,308,cs),
(54,121,o),
(203,-11,o),
(404,-11,cs)
);
}
);
width = 720;
}
);
unicode = 71;
},
{
color = 2;
glyphname = H;
lastChange = "2025-01-10 14:17:39 +0000";
layers = (
{
anchors = (
{
name = bottom;
pos = (378,0);
},
{
name = center;
pos = (378,462);
},
{
name = top;
pos = (378,616);
},
{
name = topleft;
pos = (20,616);
}
);
background = {
shapes = (
{
closed = 1;
nodes = (
(180,609,l,{
"Letterink-NibData" = {
AngleInDegrees = "0";
};
}),
(176,616,l,{
"Letterink-NibData" = {
AngleInDegrees = "360";
};
}),
(107,576,l),
(107,7,l,{
"Letterink-NibData" = {
AngleInDegrees = "360";
};
}),
(111,0,l,{
"Letterink-NibData" = {
AngleInDegrees = "360";
};
}),
(180,40,l),
(180,304,l),
(594,304,l),
(594,7,l,{
"Letterink-NibData" = {
AngleInDegrees = "360";
};
}),
(598,0,l,{
"Letterink-NibData" = {
AngleInDegrees = "360";
};
}),
(668,40,l),
(668,609,l,{
"Letterink-NibData" = {
AngleInDegrees = "0";
};
}),
(664,616,l,{
"Letterink-NibData" = {
AngleInDegrees = "359.99999";
};
}),
(594,576,l),
(594,351,l),
(180,351,l)
);
},
{
closed = 0;
nodes = (
(252,616,l),
(252,591,l),
(224,583,o),
(206,576,o),
(195,564,cs),
(186,553,o),
(182,538,o),
(182,512,cs)
);
}
);
};
color = 1;
layerId = m005;
shapes = (
{
closed = 1;
nodes = (
(284,0,l),
(284,25,l),
(257,33,o),
(214,39,o),
(203,51,cs),
(193,61,o),
(188,77,o),
(188,104,cs),
(187,178,o),
(187,252,o),
(186,326,cs),
(185,388,o),
(187,450,o),
(188,512,cs),
(188,539,o),
(194,556,o),
(203,565,cs),
(214,577,o),
(257,583,o),
(284,591,c),
(284,616,l),
(12,616,l),
(12,591,l),
(40,583,o),
(83,576,o),
(94,564,cs),
(103,553,o),
(107,538,o),
(107,512,cs),
(108,450,o),
(109,389,o),
(109,327,cs),
(109,253,o),
(108,178,o),
(107,104,cs),
(107,78,o),
(103,63,o),
(94,52,cs),
(83,40,o),
(40,33,o),
(12,25,c),
(12,0,l)
);
},
{
closed = 1;
nodes = (
(744,0,l),
(744,25,l),
(717,33,o),
(675,39,o),
(664,51,cs),
(654,61,o),
(649,77,o),
(649,104,cs),
(648,179,o),
(648,255,o),
(647,330,cs),
(646,391,o),
(648,451,o),
(649,512,cs),
(649,539,o),
(653,554,o),
(664,565,cs),
(675,577,o),
(717,583,o),
(744,591,c),
(744,616,l),
(472,616,l),
(472,591,l),
(500,583,o),
(544,576,o),
(555,564,cs),
(564,553,o),
(568,538,o),
(568,512,cs),
(569,451,o),
(570,390,o),
(570,329,cs),
(570,254,o),
(569,179,o),
(568,104,cs),
(568,78,o),
(564,63,o),
(555,52,cs),
(544,40,o),
(500,33,o),
(472,25,c),
(472,0,l)
);
},
{
closed = 1;
nodes = (
(601,304,l),
(601,349,l),
(154,349,l),
(154,304,l)
);
}
);
width = 756;
}
);
note = H;
unicode = 72;
},
{
glyphname = Hbar;
lastChange = "2025-01-10 16:09:46 +0000";
layers = (
{
layerId = m005;
shapes = (
{
ref = H;
},
{
closed = 1;
nodes = (
(55,487,l),
(703,487,l),
(703,527,l),
(55,527,l)
);
}
);
width = 756;
}
);
unicode = 294;
},
{
color = 2;
glyphname = I;
lastChange = "2025-01-10 14:17:39 +0000";
layers = (
{
anchors = (
{
name = bottom;
pos = (144,0);
},
{
name = ogonek;
pos = (259,10);
},
{
name = top;
pos = (144,616);
},
{
name = topleft;
pos = (20,616);
}
);
background = {
shapes = (
{
closed = 1;
nodes = (
(182,40,l),
(182,609,l,{
"Letterink-NibData" = {
AngleInDegrees = "0";
};
}),
(178,616,l,{
"Letterink-NibData" = {
AngleInDegrees = "360";
};
}),
(109,576,l),
(109,7,l,{
"Letterink-NibData" = {
AngleInDegrees = "360";
};
}),
(113,0,l,{
"Letterink-NibData" = {
AngleInDegrees = "360";
};
})
);
}
);
};
color = 1;
layerId = m005;
shapes = (
{
closed = 1;
nodes = (
(12,0,l),
(276,0,l),
(276,25,l),
(231,31,o),
(208,32,o),
(196,41,cs),
(185,49,o),
(181,63,o),
(181,91,cs),
(179,217,o),
(181,327,o),
(181,525,cs),
(181,555,o),
(190,570,o),
(205,577,cs),
(222,586,o),
(246,586,o),
(276,591,c),
(276,616,l),
(20,616,l),
(20,593,l),
(55,587,o),
(79,586,o),
(92,575,cs),
(102,566,o),
(107,552,o),
(107,525,cs),
(109,382,o),
(109,234,o),
(107,91,cs),
(107,62,o),
(103,47,o),
(93,39,cs),
(78,27,o),
(53,30,o),
(12,25,c)
);
}
);
width = 288;
}
);
note = I;
unicode = 73;
},
{
color = 2;
glyphname = J;
lastChange = "2025-01-10 14:17:39 +0000";
layers = (
{
anchors = (
{
name = bottom;
pos = (135,0);
},
{
name = top;
pos = (135,616);
}
);
color = 1;
layerId = m005;
shapes = (
{
closed = 1;
nodes = (
(30,-232,o),
(83,-192,o),
(101,-166,cs),
(148,-98,o),
(183,29,o),
(181,148,cs),
(179,341,o),
(179,332,o),
(181,525,cs),
(181,555,o),
(186,569,o),
(199,577,cs),
(213,584,o),
(236,585,o),
(271,591,c),
(271,616,l),
(20,616,l),
(20,591,l),
(53,587,o),
(77,586,o),
(92,574,cs),
(103,565,o),
(108,551,o),
(108,525,cs),
(108,81,ls),
(108,33,o),
(108,-90,o),
(77,-138,cs),
(70,-150,o),
(60,-157,o),
(48,-157,cs),
(29,-158,o),
(27,-135,o),
(8,-134,cs),
(-25,-134,o),
(-48,-163,o),
(-48,-203,cs),
(-48,-220,o),
(-30,-232,o),
(-4,-232,cs)
);
}
);
width = 270;
}
);
unicode = 74;
},
{
color = 2;
glyphname = K;
lastChange = "2025-01-10 14:17:39 +0000";
layers = (
{
anchors = (
{
name = bottom;
pos = (315,0);
},
{
name = top;
pos = (315,616);
}
);
background = {
shapes = (
{
closed = 0;
nodes = (
(471,91,l),
(471,55,o),
(465,41,o),
(444,31,cs),
(433,26,o),
(415,25,o),
(388,18,c),
(388,0,l),
(633,0,l),
(633,18,l),
(587,31,o),
(564,33,o),
(555,51,cs),
(551,60,o),
(549,73,o),
(549,91,c)
);
},
{
closed = 0;
nodes = (
(493,525,l),
(493,561,o),
(499,575,o),
(520,585,cs),
(531,590,o),
(549,591,o),
(576,598,c),
(576,616,l),
(331,616,l),
(331,598,l),
(377,585,o),
(400,583,o),
(409,565,cs),
(413,556,o),
(415,543,o),
(415,525,cs)
);
}
);
};
color = 2;
layerId = m005;
shapes = (
{
closed = 1;
nodes = (
(20,0,l),
(268,0,l),
(268,18,l),
(235,27,o),
(215,29,o),
(204,36,cs),
(192,44,o),
(184,58,o),
(184,91,cs),
(183,156,o),
(184,424,o),
(185,525,cs),
(185,556,o),
(191,572,o),
(204,581,cs),
(217,590,o),
(238,594,o),
(268,598,c),
(268,616,l),
(23,616,l),
(23,592,l),
(69,585,o),
(92,583,o),
(101,565,cs),
(105,556,o),
(107,543,o),
(107,525,cs),
(109,382,o),
(109,234,o),
(107,91,cs),
(107,66,o),
(102,52,o),
(92,44,cs),
(78,33,o),
(54,33,o),
(20,25,c)
);
},
{
closed = 1;
nodes = (
(417,503,l),
(453,540,o),
(498,574,o),
(526,586,cs),
(540,592,o),
(570,597,o),
(574,598,c),
(574,616,l),
(326,616,l),
(326,598,l),
(366,593,o),
(390,580,o),
(390,557,cs),
(390,543,o),
(381,526,o),
(363,505,c),
(138,267,l),
(161,240,l)
);
},
{
closed = 1;
nodes = (
(630,18,l),
(567,34,o),
(536,48,o),
(486,99,c),
(251,362,l),
(193,301,l),
(265,217,o),
(393,72,o),
(422,40,cs),
(451,8,o),
(477,-4,o),
(520,-3,cs),
(630,0,l)
);
}
);
width = 630;
}
);
unicode = 75;
},
{
color = 2;
glyphname = L;
lastChange = "2025-01-10 14:17:39 +0000";
layers = (
{
anchors = (
{
name = bottom;
pos = (306,0);
},
{
name = center;
pos = (306,308);
},
{
name = top;
pos = (306,616);
},
{
name = topright;
pos = (592,616);
}
);
color = 2;
layerId = m005;
shapes = (
{
closed = 1;
nodes = (
(20,-3,l),
(108,-1,o),
(188,0,o),
(268,0,c),
(268,41,l),
(206,43,o),
(189,43,o),
(189,105,cs),
(187,234,o),
(186,318,o),
(189,517,cs),
(189,553,o),
(191,567,o),
(212,577,cs),
(223,582,o),
(241,585,o),
(276,588,c),
(276,616,l),
(20,616,l),
(20,592,l),
(55,587,o),
(78,585,o),
(91,576,cs),
(102,568,o),
(106,554,o),
(107,525,cs),
(110,382,o),
(109,234,o),
(106,91,cs),
(105,63,o),
(102,49,o),
(92,40,cs),
(79,30,o),
(57,29,o),
(20,23,c)
);
},
{
closed = 1;
nodes = (
(330,2,o),
(441,1,o),
(510,-3,c),
(546,102,o),
(576,177,o),
(576,177,c),
(549,189,l),
(508,98,o),
(428,47,o),
(356,45,c),
(312,44,o),
(289,41,o),
(268,41,c),
(268,0,l)
);
}
);
width = 612;
}
);
unicode = 76;
},
{
glyphname = Lslash;
lastChange = "2025-01-10 16:10:46 +0000";
layers = (
{
layerId = m005;
shapes = (
{
ref = L;
},
{
closed = 1;
nodes = (
(43,268,l),
(270,351,l),
(258,388,l),
(30,305,l)
);
}
);
width = 612;
}
);
unicode = 321;
},
{
color = 2;
glyphname = M;
lastChange = "2025-01-10 14:17:39 +0000";
layers = (
{
anchors = (
{
name = bottom;
pos = (432,0);
},
{
name = top;
pos = (432,616);
}
);
backgroundImage = {
angle = -0.3;
imagePath = "../../Desktop/Bildschirmfoto 2024-12-24 um 15.40.08.png";
pos = (847,-1015);
scale = (-1.4,1.4);
};
color = 1;
layerId = m005;
shapes = (
{
closed = 1;
nodes = (
(702,586,l),
(672,616,l),
(419,107,l),
(437,117,l),
(213,616,l),
(44,616,l),
(44,591,l),
(84,587,ls),
(113,584,o),
(143,565,o),
(154,540,cs),
(405,-16,l)
);
},
{
closed = 1;
nodes = (
(244,1,l),
(244,26,l),
(216,34,o),
(168,41,o),
(157,53,cs),
(148,64,o),
(143,79,o),
(144,105,cs),
(164,561,l),
(124,591,l),
(104,105,ls),
(103,78,o),
(98,61,o),
(89,52,cs),
(78,40,o),
(41,34,o),
(12,26,c),
(12,1,l)
);
},
{
closed = 1;
nodes = (
(840,0,l),
(840,25,l),
(806,33,o),
(782,41,o),
(772,51,cs),
(758,65,o),
(757,82,o),
(757,104,cs),
(755,216,o),
(753,401,o),
(753,529,cs),
(753,544,o),
(759,556,o),
(768,566,cs),
(780,578,o),
(798,586,o),
(816,591,c),
(816,616,l),
(672,616,l),
(679,104,ls),
(679,80,o),
(679,63,o),
(666,50,cs),
(650,34,o),
(612,27,o),
(589,25,c),
(590,0,l)
);
}
);
width = 864;
}
);
unicode = 77;
},
{
color = 2;
glyphname = N;
lastChange = "2025-01-10 14:17:39 +0000";
layers = (
{
anchors = (
{
name = bottom;
pos = (369,0);
},
{
name = top;
pos = (369,616);
}
);
color = 1;
layerId = m005;
shapes = (
{
closed = 1;
nodes = (
(648,-11,l),
(648,157,o),
(648,443,o),
(648,512,c),
(608,512,l),
(608,97,l),
(628,106,l),
(149,616,l),
(12,616,l),
(12,591,l),
(41,587,o),
(62,579,o),
(76,566,cs),
(95,548,o),
(129,514,o),
(129,514,c),
(622,-11,l)
);
},
{
closed = 1;
nodes = (
(244,0,l),
(244,25,l),
(216,33,o),
(175,35,o),
(161,52,cs),
(148,68,o),
(148,78,o),
(148,104,c),
(108,104,l),
(108,77,o),
(107,65,o),
(93,51,cs),
(76,34,o),
(39,33,o),
(12,25,c),
(12,0,l)
);
},
{
closed = 1;
nodes = (
(148,104,l),
(148,561,l),
(108,591,l),
(108,104,l)
);
},
{
closed = 1;
nodes = (
(648,512,l),
(648,542,o),
(653,558,o),
(665,567,cs),
(677,577,o),
(697,581,o),
(728,588,c),
(728,616,l),
(512,616,l),
(512,591,l),
(550,584,o),
(577,582,o),
(592,568,cs),
(603,557,o),
(608,541,o),
(608,512,c)
);
}
);
width = 738;
}
);
unicode = 78;
},
{
color = 2;
glyphname = O;
lastChange = "2025-01-10 14:58:49 +0000";
layers = (
{
anchors = (
{
name = bottom;
pos = (378,0);
},
{
name = center;
pos = (378,308);
},
{
name = ogonek;
pos = (680,10);
},
{
name = top;
pos = (378,616);
},
{
name = topleft;
pos = (20,616);
},
{
name = topright;
pos = (614,383);
}
);
background = {
shapes = (
{
closed = 1;
nodes = (
(646,111,o),
(701,209,o),
(704,323,c,{
"Letterink-NibData" = {
AngleInDegrees = "359.99999";
};
}),
(701,395,o),
(690,434,o),
(660,483,cs,{
"Letterink-NibData" = {
AngleInDegrees = "0";
};
}),
(599,582,o),
(513,633,o),
(409,633,cs),
(360,633,o),
(312,621,o),
(271,597,cs,{
"Letterink-NibData" = {
AngleInDegrees = "359.99999";
};
}),
(201,557,ls,{
"Letterink-NibData" = {
AngleInDegrees = "359.99999";
};
}),
(175,542,o),
(123,495,o),
(106,471,cs,{
"Letterink-NibData" = {
AngleInDegrees = "360";
};
}),
(66,415,o),
(48,359,o),
(48,290,cs),
(48,121,o),
(183,-21,o),
(343,-21,cs),
(392,-21,o),
(444,-7,o),
(488,19,cs,{
"Letterink-NibData" = {
AngleInDegrees = "360";
};
}),
(557,59,ls,{
"Letterink-NibData" = {
AngleInDegrees = "0";
};
})
);
},
{
closed = 1;
nodes = (
(482,32,o),
(450,26,o),
(409,26,cs),
(335,26,o),
(252,61,o),
(207,111,cs,{
"Letterink-NibData" = {
AngleInDegrees = "360";
};
}),
(195,123,o),
(182,141,o),
(162,168,c,{
"Letterink-NibData" = {
AngleInDegrees = "359.99999";
};
}),
(131,236,o),
(121,271,o),
(121,323,cs),
(121,425,o),
(159,501,o),
(243,566,c,{
"Letterink-NibData" = {
AngleInDegrees = "0";
};
}),
(285,583,o),
(301,586,o),
(343,586,cs),
(448,586,o),
(529,538,o),
(593,438,c,{
"Letterink-NibData" = {
AngleInDegrees = "359.99999";
};
}),
(620,389,o),
(631,347,o),
(631,289,cs,{
"Letterink-NibData" = {
AngleInDegrees = "359.99999";
};
}),
(629,192,o),
(586,102,o),
(515,47,c,{
"Letterink-NibData" = {
AngleInDegrees = "0";
};
})
);
}
);
};
color = 4;
layerId = m005;
shapes = (
{
closed = 1;
nodes = (
(570,-11,o),
(702,121,o),
(702,308,cs),
(702,494,o),
(570,626,o),
(375,626,cs),
(192,626,o),
(54,494,o),
(54,308,cs),
(54,121,o),
(192,-11,o),
(375,-11,cs)
);
},
{
closed = 1;
nodes = (
(150,474,o),
(241,585,o),
(358,585,cs),
(507,585,o),
(606,466,o),
(606,298,cs),
(606,141,o),
(521,30,o),
(392,30,cs),
(256,30,o),
(150,149,o),
(150,318,cs)
);
}
);
width = 756;
}
);
note = O;
unicode = 79;
},
{
glyphname = Oslash;
lastChange = "2025-01-10 16:11:57 +0000";
layers = (
{
layerId = m005;
shapes = (
{
ref = O;
},
{
closed = 1;
nodes = (
(79,38,l),
(107,10,l),
(675,578,l),
(647,606,l)
);
}
);
width = 756;
}
);
unicode = 216;
},
{
color = 2;
glyphname = OE;
lastChange = "2025-01-10 14:17:39 +0000";
layers = (
{
anchors = (
{
name = bottom;
pos = (540,0);
},
{
name = top;
pos = (540,616);
}
);
color = 10;
layerId = m005;
shapes = (
{
closed = 1;
nodes = (
(569,-11,o),
(656,121,o),
(656,308,cs),
(656,494,o),
(569,626,o),
(378,626,cs),
(189,626,o),
(56,494,o),
(56,308,cs),
(56,121,o),
(189,-11,o),
(378,-11,cs)
);
},
{
closed = 1;
nodes = (
(152,471,o),
(239,585,o),
(361,585,cs),
(506,585,o),
(584,463,o),
(584,298,cs),
(584,144,o),
(520,30,o),
(395,30,cs),
(253,30,o),
(152,152,o),
(152,318,cs)
);
},
{
closed = 1;
nodes = (
(590,-1,o),
(601,0,o),
(614,0,c),
(761,0,o),
(919,-1,o),
(996,-3,c),
(1010,44,o),
(1020,110,o),
(1020,157,c),
(991,157,l),
(979,90,o),
(940,45,o),
(897,42,cs),
(865,40,o),
(801,39,o),
(744,39,cs),
(706,39,o),
(674,51,o),
(666,68,cs),
(663,74,o),
(661,90,o),
(661,107,cs),
(659,309,ls),
(659,328,o),
(660,407,o),
(661,509,cs),
(661,537,o),
(672,561,o),
(688,569,cs),
(698,574,o),
(722,577,o),
(744,577,cs),
(772,577,o),
(814,576,o),
(846,574,cs),
(871,572,o),
(894,544,o),
(902,499,c),
(936,499,l),
(937,536,o),
(942,586,o),
(949,619,c),
(884,617,o),
(749,616,o),
(624,616,c),
(592,617,o),
(601,617,o),
(576,619,c),
(584,529,l),
(583,525,l),
(585,312,l),
(583,91,l),
(584,88,l),
(576,-3,l)
);
},
{
closed = 1;
nodes = (
(883,206,l),
(877,272,o),
(877,364,o),
(883,430,c),
(857,430,l),
(856,424,o),
(851,410,o),
(846,396,c),
(829,360,o),
(806,336,o),
(746,336,cs),
(607,336,l),
(607,296,l),
(746,296,ls),
(813,296,o),
(835,274,o),
(847,242,cs),
(858,206,l)
);
}
);
width = 1080;
}
);
unicode = 338;
},
{
color = 2;
glyphname = P;
lastChange = "2025-01-10 14:17:39 +0000";
layers = (
{
anchors = (
{
name = bottom;
pos = (252,0);
},
{
name = top;
pos = (252,616);
}
);
background = {
anchors = (
{
name = bottom;
pos = (280,0);
},
{
name = center;
pos = (138,154);
},
{
name = top;
pos = (280,616);
}
);
shapes = (
{
closed = 1;
nodes = (
(20,0,l),
(303,0,l),
(303,40,l),
(258,40,o),
(223,38,o),
(204,54,cs),
(195,62,o),
(190,73,o),
(190,91,cs),
(188,307,o),
(187,377,o),
(191,574,c),
(208,576,o),
(260,576,o),
(283,576,c),
(283,616,l),
(20,616,l),
(20,591,l),
(54,581,o),
(78,582,o),
(92,572,cs),
(102,565,o),
(107,552,o),
(107,525,cs),
(108,341,o),
(109,253,o),
(109,312,cs),
(109,373,o),
(108,282,o),
(107,91,cs),
(107,65,o),
(101,51,o),
(92,43,cs),
(76,29,o),
(50,31,o),
(20,25,c)
);
},
{
closed = 1;
nodes = (
(177,318,o),
(189,318,o),
(217,318,cs),
(373,318,o),
(476,378,o),
(476,481,cs),
(476,560,o),
(396,616,o),
(283,616,c),
(283,576,l),
(344,576,o),
(387,529,o),
(387,462,cs),
(387,387,o),
(318,348,o),
(210,348,cs),
(150,348,l),
(151,318,l)
);
}
);
};
color = 2;
layerId = m005;
shapes = (
{
closed = 1;
nodes = (
(231,271,o),
(241,271,o),
(251,271,cs),
(380,271,o),
(468,337,o),
(468,448,cs),
(468,552,o),
(391,620,o),
(279,618,c),
(260,584,l),
(334,584,o),
(382,528,o),
(382,436,cs),
(382,346,o),
(319,295,o),
(220,295,c),
(220,272,l)
);
},
{
closed = 1;
nodes = (
(276,0,l),
(276,25,l),
(237,36,o),
(216,39,o),
(204,51,cs),
(194,61,o),
(191,78,o),
(190,111,cs),
(188,188,o),
(188,379,o),
(191,583,c),
(260,584,l),
(279,618,l),
(240,617,o),
(179,616,o),
(147,616,c),
(108,616,o),
(43,617,o),
(4,618,c),
(4,591,l),
(45,584,o),
(75,578,o),
(92,558,cs),
(102,547,o),
(107,531,o),
(107,507,cs),
(109,369,o),
(109,235,o),
(107,101,cs),
(107,75,o),
(103,60,o),
(94,49,cs),
(83,35,o),
(41,30,o),
(12,25,c),
(12,0,l)
);
}
);
width = 504;
}
);
unicode = 80;
},
{
glyphname = Thorn;
lastChange = "2025-01-10 16:16:26 +0000";
layers = (
{
layerId = m005;
shapes = (
{
closed = 1;
nodes = (
(276,0,l),
(276,25,l),
(237,36,o),
(216,39,o),
(204,51,cs),
(195,60,o),
(190,81,o),
(190,111,cs),
(190,113,o),
(188,302,o),
(191,506,cs),
(191,532,o),
(195,556,o),
(204,567,cs),
(215,581,o),
(257,586,o),
(286,591,c),
(286,616,l),
(22,616,l),
(22,591,l),
(61,580,o),
(83,576,o),
(94,565,cs),
(103,556,o),
(107,538,o),
(108,505,cs),
(108,474,o),
(109,156,o),
(107,101,cs),
(106,75,o),
(103,60,o),
(94,49,cs),
(83,35,o),
(41,30,o),
(12,25,c),
(12,0,l)
);
},
{
closed = 1;
nodes = (
(380,140,o),
(468,206,o),
(468,317,cs),
(468,421,o),
(391,489,o),
(279,487,c),
(260,453,l),
(334,453,o),
(382,397,o),
(382,305,cs),
(382,215,o),
(319,164,o),
(220,164,c),
(220,141,l),
(231,140,o),
(241,140,o),
(251,140,cs)
);
},
{
closed = 1;
nodes = (
(260,453,l),
(279,487,l),
(157,486,l),
(157,452,l)
);
}
);
width = 504;
}
);
unicode = 222;
},
{
color = 2;
glyphname = Q;
lastChange = "2025-01-10 14:17:39 +0000";
layers = (
{
anchors = (
{
name = bottom;
pos = (378,0);
},
{
name = top;
pos = (378,616);
}
);
background = {
shapes = (
{
closed = 1;
nodes = (
(567,-11,o),
(702,121,o),
(702,308,cs),
(702,494,o),
(567,626,o),
(376,626,cs),
(187,626,o),
(54,494,o),
(54,308,cs),
(54,121,o),
(187,-11,o),
(376,-11,cs)
);
},
{
closed = 1;
nodes = (
(150,471,o),
(237,585,o),
(359,585,cs),
(504,585,o),
(606,463,o),
(606,298,cs),
(606,144,o),
(518,30,o),
(393,30,cs),
(251,30,o),
(150,152,o),
(150,318,cs)
);
},
{
closed = 1;
nodes = (
(567,-11,o),
(702,121,o),
(702,308,cs),
(702,494,o),
(567,626,o),
(376,626,cs),
(187,626,o),
(54,494,o),
(54,308,cs),
(54,121,o),
(187,-11,o),
(376,-11,cs)
);
},
{
closed = 1;
nodes = (
(150,471,o),
(237,585,o),
(359,585,cs),
(504,585,o),
(606,463,o),
(606,298,cs),
(606,144,o),
(518,30,o),
(393,30,cs),
(251,30,o),
(150,152,o),
(150,318,cs)
);
}
);
};
backgroundImage = {
imagePath = "../../Desktop/Bildschirmfoto 2024-12-24 um 15.25.09.png";
pos = (965,-1126);
scale = (-1.4,1.4);
};
color = 4;
layerId = m005;
shapes = (
{
closed = 1;
nodes = (
(569,-11,o),
(702,121,o),
(702,308,cs),
(702,494,o),
(569,626,o),
(381,626,cs),
(189,626,o),
(54,494,o),
(54,308,cs),
(54,121,o),
(189,-11,o),
(381,-11,cs)
);
},
{
closed = 1;
nodes = (
(150,474,o),
(236,584,o),
(358,584,cs),
(503,584,o),
(606,466,o),
(606,298,cs),
(606,141,o),
(520,30,o),
(398,30,cs),
(253,30,o),
(150,149,o),
(150,318,cs)
);
},
{
closed = 1;
nodes = (
(630,-232,o),
(813,-232,cs),
(939,-232,o),
(1057,-202,o),
(1131,-153,c),
(1120,-133,l),
(1046,-163,o),
(957,-179,o),
(869,-179,cs),
(703,-179,o),
(537,-98,o),
(458,29,c),
(331,11,l),
(430,-144,o)
);
}
);
width = 756;
}
);
metricWidth = O;
unicode = 81;
},
{
color = 2;
glyphname = R;
lastChange = "2025-01-10 14:17:39 +0000";
layers = (
{
anchors = (
{
name = bottom;
pos = (315,0);
},
{
name = top;
pos = (315,616);
}
);
background = {
shapes = (
{
closed = 1;
nodes = (
(20,0,l),
(303,0,l),
(303,40,l),
(258,40,o),
(223,38,o),
(204,54,cs),
(195,62,o),
(190,73,o),
(190,91,cs),
(188,307,o),
(187,377,o),
(191,574,c),
(208,576,o),
(260,576,o),
(283,576,c),
(283,616,l),
(20,616,l),
(20,591,l),
(54,581,o),
(78,582,o),
(92,572,cs),
(102,565,o),
(107,552,o),
(107,525,cs),
(108,341,o),
(109,253,o),
(109,312,cs),
(109,373,o),
(108,282,o),
(107,91,cs),
(107,65,o),
(101,51,o),
(92,43,cs),
(76,29,o),
(50,31,o),
(20,25,c)
);
}
);
};
color = 2;
layerId = m005;
shapes = (
{
closed = 1;
nodes = (
(345,282,o),
(462,354,o),
(462,458,cs),
(462,550,o),
(379,620,o),
(271,618,c),
(252,576,l),
(322,576,o),
(376,526,o),
(376,446,cs),
(376,362,o),
(296,322,o),
(180,322,c),
(180,282,l)
);
},
{
closed = 1;
nodes = (
(286,0,l),
(286,25,l),
(259,31,o),
(211,39,o),
(200,51,cs),
(190,61,o),
(188,77,o),
(188,104,cs),
(188,372,o),
(187,454,o),
(191,574,c),
(252,576,l),
(271,618,l),
(222,617,o),
(194,616,o),
(145,616,c),
(106,615,o),
(66,617,o),
(20,618,c),
(20,592,l),
(55,585,o),
(85,579,o),
(96,567,cs),
(105,556,o),
(107,538,o),
(107,512,cs),
(109,376,o),
(109,238,o),
(107,104,cs),
(107,69,o),
(103,53,o),
(92,44,cs),
(80,34,o),
(60,32,o),
(20,25,c),
(20,0,l)
);
},
{
closed = 1;
nodes = (
(630,18,l),
(558,26,o),
(436,156,o),
(340,337,c),
(264,305,l),
(349,123,o),
(456,-5,o),
(528,-3,cs),
(630,0,l)
);
}
);
width = 630;
}
);
unicode = 82;
},
{
color = 2;
glyphname = S;
lastChange = "2025-01-10 14:17:39 +0000";
layers = (
{
anchors = (
{
name = bottom;
pos = (243,0);
},
{
name = top;
pos = (243,616);
}
);
color = 4;
layerId = m005;
shapes = (
{
closed = 1;
nodes = (
(343,-9,o),
(432,67,o),
(432,174,cs),
(432,339,o),
(126,352,o),
(129,490,cs),
(130,543,o),
(172,581,o),
(240,581,cs),
(315,581,o),
(365,535,o),
(359,471,c),
(392,471,l),
(391,526,o),
(393,576,o),
(397,593,c),
(347,611,o),
(281,624,o),
(240,624,cs),
(127,624,o),
(54,550,o),
(54,446,cs),
(54,272,o),
(354,279,o),
(354,136,cs),
(354,75,o),
(297,33,o),
(216,35,cs),
(135,37,o),
(85,102,o),
(87,193,c),
(55,193,l),
(60,165,o),
(61,98,o),
(58,32,c),
(117,8,o),
(179,-9,o),
(216,-9,cs)
);
}
);
width = 486;
}
);
unicode = 83;
},
{
color = 2;
glyphname = Germandbls;
lastChange = "2025-01-10 14:17:39 +0000";
layers = (
{
anchors = (
{
name = bottom;
pos = (297,0);
},
{
name = top;
pos = (297,616);
}
);
color = 10;
layerId = m005;
shapes = (
{
closed = 1;
nodes = (
(193,0,l),
(193,69,ls),
(193,332,o),
(193,510,o),
(192,499,c),
(191,578,l),
(286,578,l),
(337,616,l),
(152,616,ls),
(107,616,o),
(55,617,o),
(27,619,c),
(27,598,l),
(84,582,o),
(110,585,o),
(111,525,cs),
(113,373,o),
(111,221,o),
(111,69,cs),
(111,38,o),
(75,33,o),
(24,18,c),
(24,0,l)
);
},
{
closed = 1;
nodes = (
(495,-6,o),
(558,50,o),
(558,129,cs),
(558,247,o),
(374,256,o),
(374,334,cs),
(374,425,o),
(496,420,o),
(496,512,cs),
(496,573,o),
(430,616,o),
(337,616,c),
(286,578,l),
(362,578,o),
(416,542,o),
(416,491,cs),
(416,419,o),
(302,420,o),
(302,309,cs),
(302,189,o),
(482,194,o),
(482,103,cs),
(482,51,o),
(451,18,o),
(406,22,cs),
(366,25,o),
(334,66,o),
(328,122,c),
(301,122,l),
(303,99,o),
(303,51,o),
(302,6,c),
(328,-1,o),
(371,-6,o),
(406,-6,cs)
);
}
);
width = 594;
}
);
unicode = 7838;
},
{
color = 2;
glyphname = T;
lastChange = "2025-01-10 14:17:39 +0000";
layers = (
{
anchors = (
{
name = bottom;
pos = (306,0);
},
{
name = center;
pos = (306,308);
},
{
name = top;
pos = (306,616);
}
);
background = {
shapes = (
{
closed = 1;
nodes = (
(196,0,l),
(441,0,l),
(441,18,l),
(395,31,o),
(372,33,o),
(363,52,cs),
(359,60,o),
(358,73,o),
(358,91,cs),
(357,164,o),
(357,237,o),
(356,310,cs),
(355,382,o),
(357,453,o),
(358,525,cs),
(358,561,o),
(364,575,o),
(385,585,cs),
(396,590,o),
(414,591,o),
(441,598,c),
(441,616,l),
(196,616,l),
(196,598,l),
(242,585,o),
(265,583,o),
(274,565,cs),
(278,556,o),
(280,543,o),
(280,525,cs),
(281,454,o),
(282,383,o),
(282,312,cs),
(282,238,o),
(281,165,o),
(280,91,cs),
(280,55,o),
(273,42,o),
(252,32,cs),
(241,27,o),
(223,25,o),
(196,18,c)
);
}
);
};
color = 4;
layerId = m005;
shapes = (
{
closed = 1;
nodes = (
(465,0,l),
(465,28,l),
(393,42,o),
(347,46,o),
(345,100,cs),
(340,262,o),
(340,428,o),
(345,590,c),
(323,566,l),
(387,566,o),
(456,566,o),
(485,566,cs),
(521,566,o),
(568,559,o),
(573,447,c),
(612,451,l),
(611,515,o),
(606,579,o),
(595,643,c),
(583,643,l),
(528,616,l),
(371,613,o),
(218,613,o),
(76,616,c),
(28,653,l),
(20,648,l),
(8,581,o),
(2,515,o),
(0,448,c),
(39,446,l),
(44,561,o),
(79,566,o),
(143,566,cs),
(293,566,l),
(265,590,l),
(267,462,o),
(267,146,o),
(265,100,cs),
(263,54,o),
(220,41,o),
(153,28,c),
(153,0,l)
);
}
);
width = 612;
}
);
unicode = 84;
},
{
color = 2;
glyphname = U;
lastChange = "2025-01-10 14:59:13 +0000";
layers = (
{
anchors = (
{
name = bottom;
pos = (324,0);
},
{
name = ogonek;
pos = (583,10);
},
{
name = top;
pos = (324,616);
},
{
name = topright;
pos = (603,548);
}
);
color = 1;
layerId = m005;
shapes = (
{
closed = 1;
nodes = (
(454,-11,o),
(556,76,o),
(558,199,cs),
(560,334,o),
(557,431,o),
(558,514,cs),
(559,578,o),
(582,588,o),
(638,588,c),
(638,616,l),
(430,616,l),
(430,592,l),
(483,582,o),
(515,553,o),
(516,481,cs),
(517,387,o),
(518,298,o),
(516,203,cs),
(514,108,o),
(453,42,o),
(342,42,cs),
(237,42,o),
(180,92,o),
(173,173,cs),
(167,244,o),
(170,448,o),
(170,503,cs),
(170,570,o),
(203,588,o),
(250,592,c),
(250,616,l),
(10,616,l),
(10,588,l),
(48,582,o),
(90,570,o),
(90,514,cs),
(90,489,o),
(90,362,o),
(90,197,cs),
(90,75,o),
(174,-11,o),
(303,-11,cs)
);
}
);
width = 648;
}
);
unicode = 85;
},
{
color = 2;
glyphname = V;
lastChange = "2025-01-10 14:17:39 +0000";
layers = (
{
anchors = (
{
name = bottom;
pos = (351,0);
},
{
name = top;
pos = (351,616);
}
);
color = 4;
layerId = m005;
shapes = (
{
closed = 1;
nodes = (
(351,-24,l),
(420,153,o),
(550,444,o),
(577,505,cs),
(604,566,o),
(640,579,o),
(702,588,c),
(702,616,l),
(454,616,l),
(454,593,l),
(503,586,o),
(538,573,o),
(538,543,cs),
(538,521,o),
(525,488,o),
(510,452,cs),
(349,70,l),
(374,90,l),
(315,224,o),
(223,480,o),
(216,496,cs),
(209,512,o),
(204,528,o),
(204,543,cs),
(204,558,o),
(202,582,o),
(288,591,c),
(288,616,l),
(0,616,l),
(0,588,l),
(48,580,o),
(94,571,o),
(128,489,cs),
(338,-24,l)
);
}
);
width = 702;
}
);
unicode = 86;
},
{
color = 2;
glyphname = W;
lastChange = "2025-01-10 14:17:39 +0000";
layers = (
{
anchors = (
{
name = bottom;
pos = (477,0);
},
{
name = top;
pos = (477,616);
}
);
color = 4;
layerId = m005;
shapes = (
{
closed = 1;
nodes = (
(497,469,l),
(343,75,l),
(375,98,l),
(212,496,ls),
(185,562,o),
(168,582,o),
(248,591,c),
(248,616,l),
(0,616,l),
(0,588,l),
(48,579,o),
(94,572,o),
(128,489,cs),
(339,-24,l),
(352,-24,l),
(394,108,o),
(478,303,o),
(520,420,c)
);
},
{
closed = 1;
nodes = (
(665,-24,l),
(732,153,o),
(843,444,o),
(866,505,cs),
(889,566,o),
(889,576,o),
(954,588,c),
(954,616,l),
(754,616,l),
(754,591,l),
(840,570,o),
(834,533,o),
(803,452,cs),
(658,70,l),
(693,99,l),
(644,233,o),
(554,480,o),
(549,496,cs),
(525,572,o),
(527,582,o),
(601,591,c),
(601,616,l),
(361,616,l),
(361,591,l),
(406,579,o),
(437,572,o),
(467,489,cs),
(652,-24,l)
);
}
);
width = 954;
}
);
unicode = 87;
},
{
color = 2;
glyphname = X;
lastChange = "2025-01-10 14:17:39 +0000";
layers = (
{
anchors = (
{
name = bottom;
pos = (315,0);
},
{
name = top;
pos = (315,616);
}
);
color = 4;
layerId = m005;
shapes = (
{
closed = 1;
nodes = (
(612,0,l),
(612,28,l),
(571,33,o),
(569,26,o),
(505,114,cs),
(338,346,o),
(338,346,o),
(218,512,cs),
(197,541,o),
(190,557,o),
(190,568,cs),
(190,583,o),
(209,586,o),
(242,591,c),
(242,616,l),
(18,616,l),
(18,588,l),
(52,588,o),
(69,587,o),
(133,494,cs),
(279,281,o),
(289,281,o),
(414,105,cs),
(435,76,o),
(445,58,o),
(445,47,cs),
(445,30,o),
(421,29,o),
(372,25,c),
(372,0,l)
);
},
{
closed = 1;
nodes = (
(210,0,l),
(210,25,l),
(178,28,o),
(149,25,o),
(149,47,cs),
(149,60,o),
(154,79,o),
(179,112,cs),
(323,305,l),
(287,330,l),
(125,109,ls),
(61,22,o),
(49,30,o),
(18,28,c),
(18,0,l)
);
},
{
closed = 1;
nodes = (
(486,503,ls),
(548,583,o),
(574,585,o),
(612,588,c),
(612,616,l),
(420,616,l),
(420,591,l),
(447,588,o),
(468,588,o),
(468,569,cs),
(468,552,o),
(451,517,o),
(406,463,cs),
(301,337,l),
(338,312,l)
);
}
);
width = 630;
}
);
unicode = 88;
},
{
color = 2;
glyphname = Y;
lastChange = "2025-01-10 14:17:39 +0000";
layers = (
{
anchors = (
{
name = bottom;
pos = (270,0);
},
{
name = top;
pos = (270,616);
},
{
name = topleft;
pos = (20,616);
}
);
color = 4;
layerId = m005;
shapes = (
{
closed = 1;
nodes = (
(404,0,l),
(404,28,l),
(361,33,o),
(315,30,o),
(315,93,cs),
(315,318,l),
(302,257,l),
(435,509,ls),
(478,591,o),
(527,588,o),
(540,588,c),
(540,616,l),
(348,616,l),
(348,591,l),
(414,581,o),
(419,565,o),
(387,505,c),
(284,306,l),
(298,307,l),
(266,380,o),
(199,494,o),
(184,525,cs),
(155,586,o),
(166,585,o),
(232,591,c),
(232,616,l),
(0,616,l),
(0,588,l),
(26,585,o),
(71,575,o),
(86,545,cs),
(241,239,l),
(233,293,l),
(233,93,ls),
(233,38,o),
(172,33,o),
(128,28,c),
(128,0,l)
);
}
);
width = 540;
}
);
unicode = 89;
},
{
color = 2;
glyphname = Z;
lastChange = "2025-01-10 14:17:39 +0000";
layers = (
{
anchors = (
{
name = bottom;
pos = (324,0);
},
{
name = center;
pos = (324,308);
},
{
name = top;
pos = (324,616);
}
);
color = 4;
layerId = m005;
shapes = (
{
closed = 1;
nodes = (
(171,0,o),
(366,1,o),
(395,1,cs),
(425,1,o),
(495,1,o),
(536,-2,c),
(562,57,o),
(584,143,o),
(594,210,c),
(560,210,l),
(549,154,o),
(506,43,o),
(359,41,cs),
(146,38,l),
(151,24,l),
(566,594,l),
(554,621,l),
(477,616,o),
(323,615,o),
(275,615,cs),
(217,615,o),
(117,611,o),
(76,617,c),
(67,554,o),
(61,490,o),
(60,427,c),
(88,427,l),
(98,479,o),
(87,576,o),
(222,576,cs),
(297,576,o),
(413,574,o),
(471,572,c),
(461,596,l),
(36,12,l),
(44,0,l)
);
}
);
width = 648;
}
);
unicode = 90;
},
{
color = 2;
glyphname = a;
lastChange = "2025-01-10 14:17:39 +0000";
layers = (
{
anchors = (
{
name = bottom;
pos = (198,0);
},
{
name = ogonek;
pos = (356,10);
},
{
name = top;
pos = (198,384);
}
);
background = {
shapes = (
{
closed = 1;
nodes = (
(47,0,o),
(75,-11,o),
(122,-11,cs),
(170,-11,o),
(201,1,o),
(245,37,c,{
"Letterink-NibData" = {
AngleInDegrees = "360";
};
}),
(244,38,ls,{
"Letterink-NibData" = {
AngleInDegrees = "0";
};
}),
(268,17,o),
(285,7,o),
(315,-3,c,{
"Letterink-NibData" = {
AngleInDegrees = "360";
};
}),
(389,40,l,{
"Letterink-NibData" = {
AngleInDegrees = "0";
};
}),
(352,52,o),
(336,60,o),
(313,80,c),
(313,344,l,{
"Letterink-NibData" = {
AngleInDegrees = "0";
};
}),
(263,384,o),
(236,395,o),
(188,395,cs),
(139,395,o),
(110,384,o),
(62,345,c,{
"Letterink-NibData" = {
AngleInDegrees = "360";
};
}),
(65,340,l,{
"Letterink-NibData" = {
AngleInDegrees = "0";
};
}),
(92,347,o),
(104,349,o),
(122,349,cs),
(168,349,o),
(200,337,o),
(241,304,c),
(241,184,l),
(241,185,l,{
"Letterink-NibData" = {
AngleInDegrees = "360";
};
}),
(-4,44,l,{
"Letterink-NibData" = {
AngleInDegrees = "0";
};
}),
(-1,38,l,{
"Letterink-NibData" = {
AngleInDegrees = "0";
};
})
);
},
{
closed = 1;
nodes = (
(241,176,l),
(241,42,l),
(241,43,l,{
"Letterink-NibData" = {
AngleInDegrees = "0";
};
}),
(217,37,o),
(206,35,o),
(188,35,cs),
(143,35,o),
(110,47,o),
(71,78,c,{
"Letterink-NibData" = {
AngleInDegrees = "0";
};
})
);
},
{
closed = 1;
nodes = (
(318,0,l),
(368,18,l),
(329,32,o),
(313,37,o),
(313,68,cs),
(313,273,ls),
(313,355,o),
(279,395,o),
(209,395,cs),
(159,395,o),
(102,365,o),
(36,305,c),
(36,286,l),
(96,329,o),
(129,335,o),
(164,335,cs),
(216,335,o),
(241,306,o),
(241,246,cs),
(241,68,ls),
(241,38,o),
(224,32,o),
(185,18,c),
(135,0,l)
);
},
{
closed = 1;
nodes = (
(-24,386,l),
(-24,368,l),
(15,354,o),
(31,349,o),
(31,318,cs),
(31,83,ls),
(31,1,o),
(65,-9,o),
(135,-9,cs),
(185,-9,o),
(242,21,o),
(308,81,c),
(308,100,l),
(248,57,o),
(215,51,o),
(180,51,cs),
(128,51,o),
(103,50,o),
(103,110,cs),
(103,318,ls),
(103,348,o),
(120,354,o),
(159,368,c),
(159,386,l)
);
},
{
closed = 1;
nodes = (
(186,386,l),
(186,368,l),
(218,356,o),
(241,335,o),
(241,318,cs),
(241,113,ls),
(241,42,o),
(259,-9,o),
(285,-9,cs),
(307,-9,o),
(346,12,o),
(378,41,c),
(378,60,l),
(371,55,o),
(347,51,o),
(320,51,cs),
(316,51,o),
(313,88,o),
(313,140,cs),
(313,318,ls),
(313,335,o),
(336,356,o),
(369,368,c),
(369,386,l)
);
}
);
};
color = 3;
guides = (
{
angle = 11.5;
pos = (222,308);
}
);
layerId = m005;
shapes = (
{
closed = 1;
nodes = (
(326,-6,o),
(359,8,o),
(398,27,c),
(396,40,l),
(364,41,ls),
(339,42,o),
(321,60,o),
(321,84,cs),
(321,51,o),
(323,133,o),
(325,290,c),
(325,351,o),
(282,395,o),
(215,395,cs),
(186,395,o),
(143,378,o),
(104,354,cs),
(72,332,o),
(50,295,o),
(50,264,cs),
(50,233,o),
(122,247,o),
(122,278,cs),
(122,294,o),
(115,290,o),
(115,305,cs),
(115,332,o),
(141,351,o),
(169,351,cs),
(219,351,o),
(255,324,o),
(253,284,cs),
(250,218,l),
(249,205,o),
(249,138,o),
(249,57,cs),
(253,20,o),
(281,-6,o),
(317,-6,cs)
);
},
{
closed = 1;
nodes = (
(165,-6,o),
(230,24,o),
(270,66,c),
(270,85,l),
(239,61,o),
(191,44,o),
(163,44,cs),
(134,44,o),
(115,71,o),
(115,110,c),
(36,94,l),
(36,35,o),
(67,-6,o),
(119,-6,cs)
);
},
{
closed = 1;
nodes = (
(115,110,l),
(115,131,o),
(186,158,o),
(281,175,c),
(282,206,l),
(140,183,o),
(36,137,o),
(36,94,c)
);
}
);
width = 396;
}
);
note = a;
unicode = 97;
},
{
color = 2;
glyphname = ae;
lastChange = "2025-01-10 15:42:00 +0000";
layers = (
{
anchors = (
{
name = bottom;
pos = (297,0);
},
{
name = top;
pos = (297,384);
}
);
color = 10;
layerId = m005;
shapes = (
{
closed = 1;
nodes = (
(308,214,l),
(308,181,o),
(310,133,o),
(312,290,c),
(312,351,o),
(282,395,o),
(221,395,cs),
(192,395,o),
(143,378,o),
(104,354,cs),
(72,332,o),
(50,295,o),
(50,264,cs),
(50,233,o),
(122,247,o),
(122,278,cs),
(122,294,o),
(113,292,o),
(113,307,cs),
(113,334,o),
(136,353,o),
(169,353,cs),
(223,353,o),
(255,324,o),
(253,284,cs),
(250,218,l),
(249,205,o),
(249,258,o),
(249,177,c)
);
},
{
closed = 1;
nodes = (
(166,-6,o),
(229,9,o),
(290,70,c),
(269,90,l),
(238,66,o),
(192,44,o),
(164,44,cs),
(135,44,o),
(114,71,o),
(114,110,c),
(35,94,l),
(35,35,o),
(71,-6,o),
(123,-6,cs)
);
},
{
closed = 1;
nodes = (
(115,110,l),
(115,131,o),
(186,158,o),
(281,175,c),
(282,211,l),
(140,188,o),
(36,137,o),
(36,94,c)
);
},
{
closed = 1;
nodes = (
(310,302,o),
(352,362,o),
(412,362,cs),
(457,362,o),
(491,325,o),
(494,266,c),
(287,260,l),
(283,231,l),
(563,225,l),
(575,239,l),
(575,330,o),
(513,395,o),
(426,395,cs),
(314,395,o),
(249,309,o),
(249,188,cs),
(249,71,o),
(306,-11,o),
(407,-11,cs),
(469,-11,o),
(538,33,o),
(573,95,c),
(555,108,l),
(532,75,o),
(480,52,o),
(428,52,cs),
(359,52,o),
(310,117,o),
(310,210,cs)
);
}
);
width = 594;
}
);
unicode = 230;
},
{
color = 2;
glyphname = b;
lastChange = "2025-01-10 15:50:40 +0000";
layers = (
{
anchors = (
{
name = bottom;
pos = (243,0);
},
{
name = center;
pos = (122,555);
},
{
name = top;
pos = (243,384);
}
);
background = {
shapes = (
{
closed = 1;
nodes = (
(117,1,o),
(146,-11,o),
(194,-11,cs),
(241,-11,o),
(273,1,o),
(317,36,c,{
"Letterink-NibData" = {
AngleInDegrees = "0";
};
}),
(399,68,o),
(443,128,o),
(443,210,cs),
(443,310,o),
(359,395,o),
(260,395,cs),
(213,395,o),
(182,383,o),
(140,350,c),
(140,664,l,{
"Letterink-NibData" = {
AngleInDegrees = "359.99999";
};
}),
(114,687,o),
(98,697,o),
(67,707,c,{
"Letterink-NibData" = {
AngleInDegrees = "359.99999";
};
}),
(-7,664,l,{
"Letterink-NibData" = {
AngleInDegrees = "0";
};
}),
(30,652,o),
(45,644,o),
(68,624,c),
(68,40,l,{
"Letterink-NibData" = {
AngleInDegrees = "360";
};
})
);
},
{
closed = 1;
nodes = (
(164,347,o),
(176,349,o),
(194,349,cs),
(294,349,o),
(371,273,o),
(371,174,cs),
(371,125,o),
(352,82,o),
(313,43,c,{
"Letterink-NibData" = {
AngleInDegrees = "0";
};
}),
(289,37,o),
(277,35,o),
(260,35,cs),
(213,35,o),
(182,47,o),
(140,80,c),
(140,342,l,{
"Letterink-NibData" = {
AngleInDegrees = "360";
};
}),
(141,341,l,{
"Letterink-NibData" = {
AngleInDegrees = "0";
};
})
);
},
{
closed = 0;
nodes = (
(140,619,l),
(142,698,l),
(127,705,l),
(18,667,l),
(18,646,l),
(37,638,o),
(68,625,o),
(68,603,cs)
);
},
{
closed = 0;
nodes = (
(230,-10,ls),
(355,-10,o),
(443,78,o),
(443,208,cs),
(443,318,o),
(373,395,o),
(275,395,cs)
);
},
{
closed = 0;
nodes = (
(230,335,ls),
(310,335,o),
(368,271,o),
(368,180,cs),
(368,89,o),
(314,24,o),
(240,24,cs)
);
}
);
};
color = 2;
layerId = m005;
shapes = (
{
closed = 1;
nodes = (
(146,551,l),
(149,658,l),
(134,668,l),
(2,637,l),
(2,616,l),
(43,601,o),
(72,578,o),
(72,560,cs),
(72,255,o),
(72,40,o),
(72,40,c),
(144,24,l)
);
},
{
closed = 1;
nodes = (
(376,188,l),
(375,96,o),
(318,26,o),
(239,26,cs),
(189,26,o),
(142,67,o),
(118,125,c),
(72,40,l),
(109,10,o),
(166,-11,o),
(218,-11,cs),
(354,-11,o),
(450,88,o),
(450,221,c)
);
},
{
closed = 1;
nodes = (
(450,221,l),
(450,326,o),
(377,395,o),
(275,395,cs),
(222,395,o),
(157,360,o),
(108,310,c),
(108,291,l),
(138,317,o),
(185,335,o),
(230,335,cs),
(316,335,o),
(376,277,o),
(376,188,c)
);
}
);
width = 486;
}
);
note = b;
unicode = 98;
},
{
color = 2;
glyphname = c;
lastChange = "2025-01-10 15:21:06 +0000";
layers = (
{
anchors = (
{
name = bottom;
pos = (221,0);
},
{
name = top;
pos = (221,384);
}
);
background = {
shapes = (
{
closed = 1;
nodes = (
(111,302,o),
(155,362,o),
(215,362,cs),
(260,362,o),
(294,325,o),
(297,266,c),
(88,260,l),
(84,231,l),
(366,225,l),
(378,239,l),
(378,330,o),
(316,395,o),
(229,395,cs),
(117,395,o),
(36,309,o),
(36,188,cs),
(36,71,o),
(109,-11,o),
(210,-11,cs),
(272,-11,o),
(341,33,o),
(376,95,c),
(358,108,l),
(335,75,o),
(283,52,o),
(231,52,cs),
(162,52,o),
(111,117,o),
(111,210,cs)
);
}
);
};
color = 4;
layerId = m005;
shapes = (
{
closed = 1;
nodes = (
(111,302,o),
(153,367,o),
(213,367,c),
(227,395,l),
(115,395,o),
(36,309,o),
(36,188,cs),
(36,71,o),
(111,-11,o),
(216,-11,cs),
(287,-11,o),
(362,36,o),
(396,103,c),
(378,116,l),
(350,79,o),
(291,52,o),
(237,52,cs),
(163,52,o),
(111,117,o),
(111,210,cs)
);
},
{
closed = 1;
nodes = (
(213,367,l),
(276,367,o),
(321,319,o),
(323,251,c),
(362,251,l),
(360,300,o),
(361,349,o),
(365,371,c),
(324,385,o),
(267,395,o),
(227,395,c)
);
}
);
width = 396;
}
);
unicode = 99;
},
{
color = 2;
glyphname = d;
lastChange = "2025-01-10 14:17:39 +0000";
layers = (
{
anchors = (
{
name = bottom;
pos = (243,0);
},
{
name = center;
pos = (365,555);
},
{
name = top;
pos = (243,384);
},
{
name = topright;
pos = (466,694);
}
);
background = {
anchors = (
{
name = bottom;
pos = (208,0);
},
{
name = ogonek;
pos = (371,10);
},
{
name = top;
pos = (208,384);
}
);
shapes = (
{
closed = 1;
nodes = (
(111,302,o),
(153,362,o),
(213,362,cs),
(258,362,o),
(292,325,o),
(295,266,c),
(88,260,l),
(84,231,l),
(364,225,l),
(376,239,l),
(376,330,o),
(314,395,o),
(227,395,cs),
(115,395,o),
(36,309,o),
(36,188,cs),
(36,71,o),
(107,-11,o),
(208,-11,cs),
(270,-11,o),
(339,33,o),
(374,95,c),
(356,108,l),
(333,75,o),
(281,52,o),
(229,52,cs),
(160,52,o),
(111,117,o),
(111,210,cs)
);
},
{
closed = 1;
nodes = (
(111,302,o),
(153,362,o),
(213,362,cs),
(258,362,o),
(292,325,o),
(295,266,c),
(88,260,l),
(84,231,l),
(364,225,l),
(376,239,l),
(376,330,o),
(314,395,o),
(227,395,cs),
(115,395,o),
(36,309,o),
(36,188,cs),
(36,71,o),
(107,-11,o),
(208,-11,cs),
(270,-11,o),
(339,33,o),
(374,95,c),
(356,108,l),
(333,75,o),
(281,52,o),
(229,52,cs),
(160,52,o),
(111,117,o),
(111,210,cs)
);
}
);
};
color = 3;
layerId = m005;
shapes = (
{
closed = 1;
nodes = (
(36,189,l),
(36,72,o),
(104,-11,o),
(199,-11,cs),
(246,-11,o),
(317,22,o),
(374,69,c),
(374,88,l),
(336,65,o),
(283,49,o),
(246,49,cs),
(169,49,o),
(113,120,o),
(113,220,c)
);
},
{
closed = 1;
nodes = (
(342,58,l),
(343,58,l),
(342,-6,l),
(355,-12,l),
(476,21,l),
(476,42,l),
(440,57,o),
(414,75,o),
(414,85,c)
);
},
{
closed = 1;
nodes = (
(113,220,l),
(113,301,o),
(166,358,o),
(237,358,cs),
(286,358,o),
(339,320,o),
(364,267,c),
(390,356,l),
(358,379,o),
(304,395,o),
(258,395,cs),
(129,395,o),
(36,310,o),
(36,189,c)
);
},
{
closed = 1;
nodes = (
(414,85,l),
(414,557,l),
(416,658,l),
(401,668,l),
(272,637,l),
(272,616,l),
(313,599,o),
(342,577,o),
(342,563,cs),
(342,58,l)
);
}
);
width = 486;
}
);
unicode = 100;
},
{
glyphname = dcroat;
lastChange = "2025-01-10 15:52:57 +0000";
layers = (
{
layerId = m005;
shapes = (
{
ref = d;
},
{
closed = 1;
nodes = (
(290,441,l),
(477,509,l),
(467,539,l),
(279,471,l)
);
}
);
width = 486;
}
);
unicode = 273;
},
{
glyphname = eth;
lastChange = "2025-01-10 16:27:16 +0000";
layers = (
{
hints = (
{
horizontal = 1;
origin = (0,31);
place = (-4,-37);
type = Stem;
},
{
horizontal = 1;
origin = (0,31);
place = (-4,-51);
type = Stem;
},
{
origin = (0,31);
place = (229,-87);
type = Stem;
},
{
origin = (0,31);
place = (229,-79);
type = Stem;
}
);
layerId = m005;
shapes = (
{
closed = 1;
nodes = (
(346,-4,o),
(429,101,o),
(429,249,cs),
(429,440,o),
(305,595,o),
(105,659,c),
(89,619,l),
(247,569,o),
(346,421,o),
(346,226,cs),
(346,113,o),
(300,33,o),
(241,33,cs),
(172,33,o),
(119,113,o),
(119,225,cs),
(119,301,o),
(166,354,o),
(226,354,cs),
(297,354,o),
(349,321,o),
(351,275,c),
(367,296,l),
(359,354,o),
(304,395,o),
(234,395,cs),
(118,395,o),
(36,315,o),
(36,203,cs),
(36,82,o),
(116,-4,o),
(229,-4,cs)
);
},
{
closed = 1;
nodes = (
(220,441,l),
(407,509,l),
(397,539,l),
(209,471,l)
);
}
);
width = 468;
}
);
unicode = 240;
},
{
color = 2;
glyphname = e;
lastChange = "2025-01-10 15:22:12 +0000";
layers = (
{
anchors = (
{
name = bottom;
pos = (210,0);
},
{
name = ogonek;
pos = (301,10);
},
{
name = top;
pos = (224,384);
}
);
background = {
shapes = (
{
closed = 1;
nodes = (
(109,168,l,{
"Letterink-NibData" = {
AngleInDegrees = "0";
};
}),
(407,340,l,{
"Letterink-NibData" = {
AngleInDegrees = "359.99998";
};
}),
(404,346,l,{
"Letterink-NibData" = {
AngleInDegrees = "360";
};
}),
(364,380,o),
(326,395,o),
(281,395,cs),
(234,395,o),
(202,383,o),
(158,348,c,{
"Letterink-NibData" = {
AngleInDegrees = "360";
};
}),
(75,315,o),
(32,256,o),
(32,174,cs),
(32,74,o),
(116,-11,o),
(215,-11,cs),
(264,-11,o),
(294,1,o),
(341,39,c,{
"Letterink-NibData" = {
AngleInDegrees = "0";
};
}),
(338,44,l,{
"Letterink-NibData" = {
AngleInDegrees = "360";
};
}),
(309,37,o),
(300,35,o),
(281,35,cs),
(196,35,o),
(130,87,o),
(108,170,c,{
"Letterink-NibData" = {
AngleInDegrees = "0";
};
})
);
},
{
closed = 1;
nodes = (
(107,177,l,{
"Letterink-NibData" = {
AngleInDegrees = "0";
};
}),
(105,192,o),
(104,198,o),
(104,210,cs),
(104,259,o),
(123,301,o),
(162,341,c,{
"Letterink-NibData" = {
AngleInDegrees = "360";
};
}),
(186,347,o),
(198,349,o),
(215,349,cs),
(260,349,o),
(292,337,o),
(332,306,c,{
"Letterink-NibData" = {
AngleInDegrees = "360";
};
})
);
},
{
closed = 1;
nodes = (
(32,189,l),
(32,72,o),
(99,-11,o),
(193,-11,cs),
(236,-11,o),
(308,26,o),
(366,79,c),
(366,98,l),
(326,69,o),
(273,49,o),
(238,49,cs),
(163,49,o),
(110,120,o),
(110,220,c)
);
}
);
};
color = 4;
layerId = m005;
shapes = (
{
closed = 1;
nodes = (
(111,302,o),
(155,362,o),
(215,362,cs),
(260,362,o),
(294,325,o),
(297,266,c),
(88,260,l),
(84,231,l),
(366,225,l),
(378,239,l),
(378,330,o),
(316,395,o),
(229,395,cs),
(117,395,o),
(36,309,o),
(36,188,cs),
(36,71,o),
(109,-11,o),
(210,-11,cs),
(272,-11,o),
(341,33,o),
(376,95,c),
(358,108,l),
(335,75,o),
(283,52,o),
(231,52,cs),
(162,52,o),
(111,117,o),
(111,210,cs)
);
}
);
width = 396;
}
);
note = e;
unicode = 101;
},
{
glyphname = schwa;
lastChange = "2025-01-10 15:45:59 +0000";
layers = (
{
layerId = m005;
shapes = (
{
closed = 1;
nodes = (
(285,82,o),
(241,22,o),
(181,22,cs),
(136,22,o),
(102,59,o),
(99,118,c),
(308,124,l),
(312,153,l),
(30,159,l),
(18,145,l),
(18,54,o),
(80,-11,o),
(167,-11,cs),
(279,-11,o),
(360,75,o),
(360,196,cs),
(360,313,o),
(287,395,o),
(186,395,cs),
(124,395,o),
(55,351,o),
(20,289,c),
(38,276,l),
(61,309,o),
(113,332,o),
(165,332,cs),
(234,332,o),
(285,267,o),
(285,174,cs)
);
}
);
width = 396;
}
);
unicode = 601;
},
{
color = 2;
glyphname = f;
lastChange = "2025-01-10 14:17:39 +0000";
layers = (
{
anchors = (
{
name = bottom;
pos = (153,0);
},
{
name = top;
pos = (153,694);
}
);
background = {
shapes = (
{
closed = 1;
nodes = (
(91,386,l),
(91,387,l,{
"Letterink-NibData" = {
AngleInDegrees = "360";
};
}),
(18,346,l,{
"Letterink-NibData" = {
AngleInDegrees = "360";
};
}),
(21,341,l),
(91,341,l),
(91,40,l,{
"Letterink-NibData" = {
AngleInDegrees = "0";
};
}),
(116,18,o),
(135,7,o),
(164,-3,c,{
"Letterink-NibData" = {
AngleInDegrees = "0";
};
}),
(239,40,l,{
"Letterink-NibData" = {
AngleInDegrees = "0";
};
}),
(202,52,o),
(186,60,o),
(163,80,c),
(163,342,l,{
"Letterink-NibData" = {
AngleInDegrees = "360";
};
}),
(164,341,l),
(270,341,l,{
"Letterink-NibData" = {
AngleInDegrees = "360";
};
}),
(343,382,l,{
"Letterink-NibData" = {
AngleInDegrees = "0";
};
}),
(340,387,l),
(163,387,l),
(163,662,l,{
"Letterink-NibData" = {
AngleInDegrees = "360";
};
}),
(164,661,l,{
"Letterink-NibData" = {
AngleInDegrees = "0";
};
}),
(187,667,o),
(198,669,o),
(217,669,cs),
(265,669,o),
(294,657,o),
(340,621,c,{
"Letterink-NibData" = {
AngleInDegrees = "0";
};
}),
(411,662,l,{
"Letterink-NibData" = {
AngleInDegrees = "0";
};
}),
(357,705,o),
(332,715,o),
(282,715,cs),
(235,715,o),
(203,703,o),
(160,667,c,{
"Letterink-NibData" = {
AngleInDegrees = "360";
};
}),
(91,628,l)
);
},
{
closed = 0;
nodes = (
(92,68,l),
(92,37,o),
(75,32,o),
(36,18,c),
(36,0,l),
(249,0,l),
(249,18,l),
(180,32,o),
(163,38,o),
(163,68,cs)
);
}
);
};
color = 5;
guides = (
{
angle = 46;
lockAngle = 1;
pos = (301,567);
}
);
layerId = m005;
shapes = (
{
closed = 1;
nodes = (
(26,0,l),
(259,0,l),
(259,18,l),
(205,31,o),
(169,31,o),
(167,69,cs),
(162,163,o),
(162,304,o),
(167,449,cs),
(169,510,o),
(164,624,o),
(233,624,cs),
(256,624,o),
(265,617,o),
(274,606,cs),
(283,593,o),
(287,576,o),
(298,567,cs),
(321,546,o),
(383,615,o),
(361,638,cs),
(343,656,o),
(310,665,o),
(269,665,cs),
(211,665,o),
(163,631,o),
(135,590,cs),
(101,540,o),
(95,492,o),
(91,387,cs),
(90,355,o),
(90,221,o),
(91,69,cs),
(91,30,o),
(58,32,o),
(26,18,c)
);
},
{
closed = 1;
nodes = (
(306,334,l),
(306,389,l),
(97,384,l),
(21,359,l),
(21,349,l)
);
}
);
width = 306;
}
);
note = f;
unicode = 102;
},
{
color = 2;
glyphname = g;
lastChange = "2025-01-10 14:17:39 +0000";
layers = (
{
anchors = (
{
name = bottom;
pos = (207,-232);
},
{
name = top;
pos = (207,384);
}
);
background = {
shapes = (
{
closed = 1;
nodes = (
(318,384,o),
(290,395,o),
(242,395,cs),
(194,395,o),
(163,383,o),
(119,347,c,{
"Letterink-NibData" = {
AngleInDegrees = "359.99999";
};
}),
(37,316,o),
(-7,256,o),
(-7,174,cs),
(-7,74,o),
(77,-11,o),
(176,-11,cs),
(222,-11,o),
(254,1,o),
(295,34,c),
(295,-238,l),
(295,-237,l,{
"Letterink-NibData" = {
AngleInDegrees = "359.99999";
};
}),
(272,-243,o),
(260,-245,o),
(242,-245,cs),
(194,-245,o),
(165,-234,o),
(119,-197,c,{
"Letterink-NibData" = {
AngleInDegrees = "0";
};
}),
(48,-238,l,{
"Letterink-NibData" = {
AngleInDegrees = "359.99999";
};
}),
(100,-280,o),
(128,-291,o),
(176,-291,cs),
(224,-291,o),
(255,-279,o),
(299,-244,c,{
"Letterink-NibData" = {
AngleInDegrees = "0";
};
}),
(367,-204,l),
(367,344,l,{
"Letterink-NibData" = {
AngleInDegrees = "0";
};
})
);
},
{
closed = 1;
nodes = (
(272,37,o),
(260,35,o),
(242,35,cs),
(142,35,o),
(65,111,o),
(65,210,cs),
(65,259,o),
(84,302,o),
(123,341,c,{
"Letterink-NibData" = {
AngleInDegrees = "360";
};
}),
(147,347,o),
(158,349,o),
(176,349,cs),
(222,349,o),
(254,337,o),
(295,304,c),
(295,42,l),
(295,43,l,{
"Letterink-NibData" = {
AngleInDegrees = "359.99999";
};
})
);
}
);
};
color = 6;
layerId = m005;
shapes = (
{
closed = 1;
nodes = (
(267,342,l),
(414,332,l),
(414,389,l),
(235,374,l)
);
},
{
closed = 1;
nodes = (
(36,13,o),
(75,-14,o),
(129,-14,cs),
(162,-14,o),
(231,-14,o),
(280,-14,cs),
(325,-14,o),
(357,-32,o),
(357,-58,cs),
(357,-128,o),
(293,-183,o),
(203,-183,cs),
(136,-183,o),
(79,-139,o),
(79,-86,cs),
(79,-48,o),
(101,0,o),
(132,9,c),
(104,15,l),
(51,-7,o),
(13,-72,o),
(13,-119,cs),
(13,-175,o),
(69,-221,o),
(147,-221,cs),
(302,-221,o),
(405,-135,o),
(405,-21,cs),
(405,22,o),
(367,52,o),
(314,52,cs),
(168,52,ls),
(130,52,o),
(103,66,o),
(103,85,cs),
(103,98,o),
(122,122,o),
(148,142,c),
(124,151,l),
(72,125,o),
(36,84,o),
(36,51,cs)
);
},
{
closed = 1;
nodes = (
(123,330,o),
(161,368,o),
(201,368,cs),
(249,368,o),
(283,315,o),
(283,239,cs),
(283,184,o),
(254,145,o),
(214,145,cs),
(166,145,o),
(123,199,o),
(123,276,cs)
);
},
{
closed = 1;
nodes = (
(45,175,o),
(117,120,o),
(206,120,cs),
(296,120,o),
(359,178,o),
(359,261,cs),
(359,338,o),
(297,393,o),
(210,393,cs),
(119,393,o),
(45,335,o),
(45,253,cs)
);
}
);
width = 414;
}
);
note = g;
unicode = 103;
},
{
color = 2;
glyphname = h;
lastChange = "2025-01-10 14:55:18 +0000";
layers = (
{
anchors = (
{
name = bottom;
pos = (243,0);
},
{
name = center;
pos = (144,557);
},
{
name = top;
pos = (100,644);
}
);
color = 1;
layerId = m005;
shapes = (
{
closed = 1;
nodes = (
(7,0,l),
(210,0,l),
(210,18,l),
(169,32,o),
(144,39,o),
(144,68,cs),
(144,557,l),
(146,658,l),
(131,668,l),
(2,637,l),
(2,616,l),
(21,608,o),
(72,595,o),
(72,563,cs),
(72,68,ls),
(72,39,o),
(48,32,o),
(7,18,c)
);
},
{
closed = 1;
nodes = (
(479,0,l),
(479,18,l),
(440,32,o),
(414,37,o),
(414,68,cs),
(414,273,ls),
(414,355,o),
(380,395,o),
(310,395,cs),
(260,395,o),
(189,365,o),
(123,305,c),
(123,286,l),
(183,329,o),
(230,335,o),
(265,335,cs),
(317,335,o),
(338,306,o),
(342,246,cs),
(346,187,o),
(346,127,o),
(342,68,cs),
(340,38,o),
(315,32,o),
(276,18,c),
(276,0,l)
);
}
);
width = 486;
}
);
unicode = 104;
},
{
glyphname = hbar;
lastChange = "2025-01-10 15:51:25 +0000";
layers = (
{
layerId = m005;
shapes = (
{
ref = h;
},
{
closed = 1;
nodes = (
(20,423,l),
(207,491,l),
(197,521,l),
(9,453,l)
);
}
);
width = 486;
}
);
unicode = 295;
},
{
color = 2;
glyphname = idotless;
lastChange = "2025-01-10 15:28:24 +0000";
layers = (
{
anchors = (
{
name = bottom;
pos = (123,0);
},
{
name = ogonek;
pos = (228,0);
},
{
name = top;
pos = (117,384);
}
);
layerId = m005;
shapes = (
{
closed = 1;
nodes = (
(22,0,l),
(228,0,l),
(228,18,l),
(187,32,o),
(162,39,o),
(162,68,cs),
(162,148,o),
(160,234,o),
(162,314,cs),
(164,393,l),
(148,403,l),
(27,362,l),
(27,341,l),
(46,333,o),
(86,320,o),
(87,298,cs),
(91,223,o),
(91,143,o),
(87,68,cs),
(85,39,o),
(63,32,o),
(22,18,c)
);
}
);
width = 234;
}
);
unicode = 305;
},
{
color = 2;
glyphname = jdotless;
lastChange = "2025-01-10 14:17:39 +0000";
layers = (
{
anchors = (
{
name = bottom;
pos = (108,-232);
},
{
name = top;
pos = (108,384);
}
);
layerId = m005;
shapes = (
{
closed = 1;
nodes = (
(21,-223,o),
(23,-222,o),
(24,-222,c),
(34,-218,o),
(47,-208,o),
(57,-201,cs),
(109,-164,o),
(144,-51,o),
(144,68,cs),
(144,314,l),
(146,393,l),
(131,403,l),
(10,362,l),
(10,341,l),
(45,326,o),
(70,309,o),
(70,298,cs),
(72,254,o),
(73,128,o),
(73,1,cs),
(73,-87,o),
(57,-160,o),
(34,-178,c),
(31,-179,o),
(27,-179,o),
(23,-179,cs),
(19,-179,o),
(15,-179,o),
(12,-178,cs),
(-2,-174,o),
(3,-168,o),
(-12,-164,cs),
(-33,-158,o),
(-56,-191,o),
(-56,-212,cs),
(-56,-221,o),
(-53,-228,o),
(-44,-230,cs),
(-38,-231,o),
(-32,-232,o),
(-25,-232,cs),
(-10,-232,o),
(6,-229,o),
(19,-224,cs)
);
}
);
width = 216;
}
);
unicode = 567;
},
{
color = 2;
glyphname = k;
lastChange = "2025-01-10 15:48:55 +0000";
layers = (
{
anchors = (
{
name = bottom;
pos = (234,0);
},
{
name = top;
pos = (234,694);
}
);
color = 2;
layerId = m005;
shapes = (
{
closed = 1;
nodes = (
(7,0,l),
(210,0,l),
(210,18,l),
(169,32,o),
(144,39,o),
(144,68,cs),
(144,557,l),
(146,658,l),
(131,665,l),
(2,637,l),
(2,616,l),
(21,608,o),
(72,595,o),
(72,563,cs),
(72,68,ls),
(72,39,o),
(48,32,o),
(7,18,c)
);
},
{
closed = 1;
nodes = (
(123,145,l),
(200,195,o),
(268,256,o),
(325,326,cs),
(339,343,o),
(364,351,o),
(427,361,c),
(427,384,l),
(250,384,l),
(250,361,l),
(283,356,o),
(290,354,o),
(254,304,cs),
(216,252,o),
(169,210,o),
(111,178,c)
);
},
{
closed = 1;
nodes = (
(189,229,l),
(307,54,ls),
(316,40,o),
(313,26,o),
(278,23,c),
(278,0,l),
(468,0,l),
(468,23,l),
(438,26,o),
(410,38,o),
(399,55,cs),
(252,278,l)
);
}
);
width = 468;
}
);
unicode = 107;
},
{
color = 2;
glyphname = l;
lastChange = "2025-01-10 14:17:39 +0000";
layers = (
{
anchors = (
{
name = bottom;
pos = (108,0);
},
{
name = center;
pos = (108,192);
},
{
name = top;
pos = (108,694);
},
{
name = topright;
pos = (196,694);
}
);
background = {
shapes = (
{
closed = 1;
nodes = (
(72,40,l,{
"Letterink-NibData" = {
AngleInDegrees = "0";
};
}),
(97,18,o),
(116,7,o),
(146,-3,c,{
"Letterink-NibData" = {
AngleInDegrees = "360";
};
}),
(220,40,l,{
"Letterink-NibData" = {
AngleInDegrees = "0";
};
}),
(182,52,o),
(168,60,o),
(144,80,c),
(144,664,l,{
"Letterink-NibData" = {
AngleInDegrees = "359.99999";
};
}),
(118,687,o),
(102,697,o),
(71,707,c,{
"Letterink-NibData" = {
AngleInDegrees = "359.99999";
};
}),
(-3,664,l,{
"Letterink-NibData" = {
AngleInDegrees = "0";
};
}),
(34,652,o),
(49,644,o),
(72,624,c)
);
}
);
};
color = 1;
layerId = m005;
shapes = (
{
closed = 1;
nodes = (
(7,0,l),
(210,0,l),
(210,18,l),
(169,32,o),
(144,39,o),
(144,68,cs),
(144,557,l),
(146,658,l),
(131,668,l),
(2,637,l),
(2,616,l),
(21,608,o),
(72,595,o),
(72,563,cs),
(72,68,ls),
(72,39,o),
(48,32,o),
(7,18,c)
);
}
);
width = 216;
}
);
note = l;
unicode = 108;
},
{
glyphname = lslash;
lastChange = "2025-01-10 15:47:40 +0000";
layers = (
{
layerId = m005;
shapes = (
{
ref = l;
},
{
closed = 1;
nodes = (
(20,297,l),
(207,365,l),
(197,395,l),
(9,327,l)
);
}
);
width = 216;
}
);
unicode = 322;
},
{
color = 2;
glyphname = m;
lastChange = "2025-01-10 14:17:39 +0000";
layers = (
{
anchors = (
{
name = bottom;
pos = (369,0);
},
{
name = top;
pos = (369,384);
}
);
background = {
shapes = (
{
closed = 1;
nodes = (
(88,40,l,{
"Letterink-NibData" = {
AngleInDegrees = "0";
};
}),
(113,18,o),
(132,7,o),
(162,-3,c,{
"Letterink-NibData" = {
AngleInDegrees = "360";
};
}),
(236,40,l,{
"Letterink-NibData" = {
AngleInDegrees = "0";
};
}),
(198,52,o),
(184,60,o),
(160,80,c),
(160,342,l,{
"Letterink-NibData" = {
AngleInDegrees = "360";
};
}),
(161,341,l,{
"Letterink-NibData" = {
AngleInDegrees = "0";
};
}),
(184,347,o),
(196,349,o),
(214,349,cs),
(260,349,o),
(292,337,o),
(333,304,c),
(333,40,l,{
"Letterink-NibData" = {
AngleInDegrees = "0";
};
}),
(358,18,o),
(377,6,o),
(406,-3,c,{
"Letterink-NibData" = {
AngleInDegrees = "0";
};
}),
(481,40,l,{
"Letterink-NibData" = {
AngleInDegrees = "0";
};
}),
(443,52,o),
(428,60,o),
(405,80,c),
(405,342,l,{
"Letterink-NibData" = {
AngleInDegrees = "360";
};
}),
(406,341,l,{
"Letterink-NibData" = {
AngleInDegrees = "0";
};
}),
(429,347,o),
(440,349,o),
(459,349,cs),
(505,349,o),
(537,337,o),
(578,304,c),
(578,40,l,{
"Letterink-NibData" = {
AngleInDegrees = "0";
};
}),
(603,18,o),
(622,7,o),
(651,-3,c,{
"Letterink-NibData" = {
AngleInDegrees = "360";
};
}),
(725,40,l,{
"Letterink-NibData" = {
AngleInDegrees = "359.99999";
};
}),
(689,52,o),
(673,60,o),
(650,80,c),
(650,344,l,{
"Letterink-NibData" = {
AngleInDegrees = "0";
};
}),
(600,384,o),
(572,395,o),
(524,395,cs),
(477,395,o),
(445,383,o),
(402,347,c,{
"Letterink-NibData" = {
AngleInDegrees = "360";
};
}),
(403,346,ls,{
"Letterink-NibData" = {
AngleInDegrees = "0";
};
}),
(358,382,o),
(325,395,o),
(280,395,cs),
(232,395,o),
(201,383,o),
(157,347,c,{
"Letterink-NibData" = {
AngleInDegrees = "360";
};
}),
(158,346,ls,{
"Letterink-NibData" = {
AngleInDegrees = "359.99999";
};
}),
(134,367,o),
(116,377,o),
(87,387,c,{
"Letterink-NibData" = {
AngleInDegrees = "359.99999";
};
}),
(13,344,l,{
"Letterink-NibData" = {
AngleInDegrees = "0";
};
}),
(50,332,o),
(65,324,o),
(88,304,c)
);
},
{
closed = 1;
nodes = (
(399,298,l),
(439,325,o),
(469,335,o),
(502,335,cs),
(554,335,o),
(577,307,o),
(577,246,cs),
(577,68,ls),
(577,37,o),
(561,32,o),
(522,18,c),
(522,0,l),
(704,0,l),
(704,18,l),
(665,32,o),
(649,37,o),
(649,68,cs),
(649,273,ls),
(649,352,o),
(614,395,o),
(545,395,cs),
(492,395,o),
(448,367,o),
(389,310,c)
);
}
);
};
color = 1;
layerId = m005;
shapes = (
{
closed = 1;
nodes = (
(479,0,l),
(479,18,l),
(440,32,o),
(414,37,o),
(414,68,cs),
(414,273,ls),
(414,355,o),
(380,395,o),
(310,395,cs),
(260,395,o),
(198,365,o),
(132,305,c),
(132,286,l),
(192,329,o),
(229,335,o),
(264,335,cs),
(317,335,o),
(339,306,o),
(342,246,cs),
(345,187,o),
(345,127,o),
(342,68,cs),
(340,38,o),
(315,24,o),
(278,18,c),
(278,0,l)
);
},
{
closed = 1;
nodes = (
(226,0,l),
(226,18,l),
(187,32,o),
(160,38,o),
(160,68,cs),
(160,315,l),
(159,315,l),
(160,394,l),
(149,403,l),
(28,362,l),
(28,341,l),
(47,333,o),
(87,319,o),
(88,298,cs),
(91,223,o),
(91,143,o),
(88,68,cs),
(87,37,o),
(62,32,o),
(23,18,c),
(23,0,l)
);
},
{
closed = 1;
nodes = (
(730,0,l),
(730,18,l),
(692,32,o),
(666,37,o),
(666,68,cs),
(666,273,ls),
(666,355,o),
(632,395,o),
(562,395,cs),
(512,395,o),
(452,365,o),
(386,305,c),
(386,286,l),
(446,329,o),
(486,335,o),
(517,335,cs),
(569,335,o),
(589,306,o),
(593,246,cs),
(597,187,o),
(597,127,o),
(593,68,cs),
(591,38,o),
(577,24,o),
(530,18,c),
(530,0,l)
);
}
);
width = 738;
}
);
note = m;
unicode = 109;
},
{
glyphname = n;
lastChange = "2025-01-10 14:17:39 +0000";
layers = (
{
anchors = (
{
name = bottom;
pos = (243,0);
},
{
name = top;
pos = (243,384);
}
);
background = {
shapes = (
{
closed = 1;
nodes = (
(91,40,l),
(116,18,o),
(135,7,o),
(165,-3,c),
(239,40,l),
(201,52,o),
(187,60,o),
(163,80,c),
(163,342,l),
(164,341,l),
(187,347,o),
(199,349,o),
(217,349,cs),
(263,349,o),
(295,337,o),
(336,304,c),
(336,40,l),
(361,18,o),
(380,6,o),
(409,-3,c),
(484,40,l),
(446,52,o),
(431,60,o),
(408,80,c),
(408,344,l),
(358,384,o),
(331,395,o),
(283,395,cs),
(235,395,o),
(204,383,o),
(160,347,c),
(161,346,ls),
(137,367,o),
(119,377,o),
(90,387,c),
(16,344,l),
(53,332,o),
(68,324,o),
(91,304,c)
);
},
{
closed = 1;
nodes = (
(91,40,l,{
"Letterink-NibData" = {
AngleInDegrees = "0";
};
}),
(116,18,o),
(135,7,o),
(165,-3,c,{
"Letterink-NibData" = {
AngleInDegrees = "360";
};
}),
(239,40,l,{
"Letterink-NibData" = {
AngleInDegrees = "0";
};
}),
(201,52,o),
(187,60,o),
(163,80,c),
(163,342,l,{
"Letterink-NibData" = {
AngleInDegrees = "360";
};
}),
(164,341,l,{
"Letterink-NibData" = {
AngleInDegrees = "0";
};
}),
(187,347,o),
(199,349,o),
(217,349,cs),
(263,349,o),
(295,337,o),
(336,304,c),
(336,40,l,{
"Letterink-NibData" = {
AngleInDegrees = "0";
};
}),
(361,18,o),
(380,6,o),
(409,-3,c,{
"Letterink-NibData" = {
AngleInDegrees = "0";
};
}),
(484,40,l,{
"Letterink-NibData" = {
AngleInDegrees = "0";
};
}),
(446,52,o),
(431,60,o),
(408,80,c),
(408,344,l,{
"Letterink-NibData" = {
AngleInDegrees = "0";
};
}),
(358,384,o),
(331,395,o),
(283,395,cs),
(235,395,o),
(204,383,o),
(160,347,c,{
"Letterink-NibData" = {
AngleInDegrees = "360";
};
}),
(161,346,ls,{
"Letterink-NibData" = {
AngleInDegrees = "359.99999";
};
}),
(137,367,o),
(119,377,o),
(90,387,c,{
"Letterink-NibData" = {
AngleInDegrees = "359.99999";
};
}),
(16,344,l,{
"Letterink-NibData" = {
AngleInDegrees = "0";
};
}),
(53,332,o),
(68,324,o),
(91,304,c)
);
}
);
};
color = 1;
layerId = m005;
shapes = (
{
closed = 1;
nodes = (
(477,0,l),
(477,18,l),
(438,32,o),
(414,37,o),
(414,68,cs),
(414,273,ls),
(414,355,o),
(382,395,o),
(312,395,cs),
(262,395,o),
(205,365,o),
(139,305,c),
(139,286,l),
(199,329,o),
(232,335,o),
(267,335,cs),
(319,335,o),
(338,306,o),
(342,246,cs),
(346,189,o),
(346,125,o),
(342,68,cs),
(340,38,o),
(316,24,o),
(278,18,c),
(278,0,l)
);
},
{
closed = 1;
nodes = (
(229,0,l),
(229,18,l),
(190,32,o),
(162,38,o),
(162,68,cs),
(162,315,l),
(164,315,l),
(165,397,l),
(150,403,l),
(27,362,l),
(27,341,l),
(46,333,o),
(86,319,o),
(89,298,cs),
(91,284,o),
(91,129,o),
(89,68,cs),
(88,37,o),
(65,32,o),
(26,18,c),
(26,0,l)
);
}
);
width = 486;
}
);
locked = 1;
note = n;
unicode = 110;
},
{
color = 2;
glyphname = o;
lastChange = "2025-01-10 15:00:08 +0000";
layers = (
{
anchors = (
{
name = bottom;
pos = (243,0);
},
{
name = center;
pos = (243,192);
},
{
name = ogonek;
pos = (437,10);
},
{
name = top;
pos = (243,384);
},
{
name = topright;
pos = (328,297);
}
);
background = {
shapes = (
{
closed = 1;
nodes = (
(76,316,o),
(32,256,o),
(32,174,cs),
(32,74,o),
(116,-11,o),
(215,-11,cs),
(263,-11,o),
(294,1,o),
(338,36,c),
(421,68,o),
(464,128,o),
(464,210,cs),
(464,310,o),
(380,395,o),
(281,395,cs),
(233,395,o),
(202,383,o),
(158,347,c)
);
},
{
closed = 1;
nodes = (
(186,347,o),
(197,349,o),
(215,349,cs),
(315,349,o),
(392,273,o),
(392,174,cs),
(392,125,o),
(373,82,o),
(334,43,c),
(310,37,o),
(298,35,o),
(281,35,cs),
(181,35,o),
(104,111,o),
(104,210,cs),
(104,259,o),
(123,302,o),
(162,341,c)
);
},
{
closed = 1;
nodes = (
(88,320,o),
(32,244,o),
(32,174,cs),
(32,71,o),
(113,-11,o),
(215,-11,cs),
(249,-11,o),
(304,10,o),
(338,36,c,{
"Letterink-NibData" = {
AngleInDegrees = "0";
};
}),
(408,63,o),
(464,140,o),
(464,210,cs),
(464,313,o),
(383,395,o),
(281,395,cs),
(259,395,o),
(205,374,o),
(158,347,c,{
"Letterink-NibData" = {
AngleInDegrees = "359.99999";
};
})
);
},
{
closed = 1;
nodes = (
(230,346,o),
(247,349,o),
(215,349,cs),
(314,349,o),
(392,271,o),
(392,174,cs),
(392,133,o),
(366,75,o),
(334,43,c,{
"Letterink-NibData" = {
AngleInDegrees = "360";
};
}),
(307,39,o),
(281,35,o),
(281,35,cs),
(182,35,o),
(104,113,o),
(104,210,cs),
(104,251,o),
(130,309,o),
(162,341,c,{
"Letterink-NibData" = {
AngleInDegrees = "360";
};
})
);
}
);
};
color = 4;
layerId = m005;
shapes = (
{
closed = 1;
nodes = (
(366,-11,o),
(450,75,o),
(450,196,cs),
(450,313,o),
(366,395,o),
(239,395,cs),
(117,395,o),
(36,308,o),
(36,185,cs),
(36,70,o),
(117,-11,o),
(239,-11,cs)
);
},
{
closed = 1;
nodes = (
(124,296,o),
(165,359,o),
(231,359,cs),
(311,359,o),
(362,282,o),
(362,174,cs),
(362,87,o),
(317,25,o),
(247,25,cs),
(172,25,o),
(124,101,o),
(124,208,cs)
);
}
);
width = 486;
}
);
note = o;
unicode = 111;
},
{
glyphname = oslash;
lastChange = "2025-01-10 15:32:28 +0000";
layers = (
{
layerId = m005;
shapes = (
{
ref = o;
},
{
closed = 1;
nodes = (
(38,8,l),
(63,-17,l),
(453,372,l),
(428,397,l)
);
}
);
width = 486;
}
);
unicode = 248;
},
{
color = 2;
glyphname = oe;
lastChange = "2025-01-10 14:17:39 +0000";
layers = (
{
anchors = (
{
name = bottom;
pos = (369,0);
},
{
name = top;
pos = (369,384);
}
);
color = 10;
layerId = m005;
shapes = (
{
closed = 1;
nodes = (
(370,-11,o),
(451,75,o),
(451,196,cs),
(451,313,o),
(370,395,o),
(243,395,cs),
(121,395,o),
(35,308,o),
(35,185,cs),
(35,70,o),
(121,-11,o),
(243,-11,cs)
);
},
{
closed = 1;
nodes = (
(123,296,o),
(169,359,o),
(235,359,cs),
(315,359,o),
(371,282,o),
(371,174,cs),
(371,87,o),
(321,25,o),
(251,25,cs),
(176,25,o),
(123,101,o),
(123,208,cs)
);
},
{
closed = 1;
nodes = (
(454,302,o),
(496,362,o),
(556,362,cs),
(601,362,o),
(635,325,o),
(638,266,c),
(431,260,l),
(427,231,l),
(707,225,l),
(719,239,l),
(719,330,o),
(657,395,o),
(570,395,cs),
(458,395,o),
(379,309,o),
(379,188,cs),
(379,71,o),
(450,-11,o),
(551,-11,cs),
(613,-11,o),
(682,33,o),
(717,95,c),
(699,108,l),
(676,75,o),
(624,52,o),
(572,52,cs),
(503,52,o),
(454,117,o),
(454,210,cs)
);
}
);
width = 738;
}
);
unicode = 339;
},
{
color = 2;
glyphname = p;
lastChange = "2025-01-10 14:17:39 +0000";
layers = (
{
associatedMasterId = m005;
background = {
shapes = (
{
closed = 1;
nodes = (
(76,-240,l,{
"Letterink-NibData" = {
AngleInDegrees = "0";
};
}),
(101,-262,o),
(120,-273,o),
(150,-283,c,{
"Letterink-NibData" = {
AngleInDegrees = "360";
};
}),
(224,-240,l,{
"Letterink-NibData" = {
AngleInDegrees = "0";
};
}),
(186,-228,o),
(172,-220,o),
(148,-200,c),
(148,-2,l,{
"Letterink-NibData" = {
AngleInDegrees = "360";
};
}),
(149,-3,l,{
"Letterink-NibData" = {
AngleInDegrees = "360";
};
}),
(172,-9,o),
(184,-11,o),
(202,-11,cs),
(249,-11,o),
(281,1,o),
(325,36,c,{
"Letterink-NibData" = {
AngleInDegrees = "0";
};
}),
(407,68,o),
(451,128,o),
(451,210,cs),
(451,310,o),
(367,395,o),
(268,395,cs),
(220,395,o),
(189,383,o),
(145,347,c,{
"Letterink-NibData" = {
AngleInDegrees = "360";
};
}),
(146,346,ls,{
"Letterink-NibData" = {
AngleInDegrees = "359.99999";
};
}),
(122,367,o),
(104,377,o),
(75,387,c,{
"Letterink-NibData" = {
AngleInDegrees = "359.99999";
};
}),
(1,344,l,{
"Letterink-NibData" = {
AngleInDegrees = "0";
};
}),
(38,332,o),
(53,324,o),
(76,304,c)
);
},
{
closed = 1;
nodes = (
(148,302,l),
(165,321,o),
(197,335,o),
(236,335,cs),
(317,335,o),
(373,269,o),
(373,183,cs),
(373,90,o),
(321,26,o),
(245,26,cs),
(189,26,o),
(155,64,o),
(148,101,c)
);
},
{
closed = 1;
nodes = (
(369,183,l),
(368,91,o),
(317,26,o),
(244,26,cs),
(191,26,o),
(137,67,o),
(113,125,c),
(67,40,l),
(104,10,o),
(168,-11,o),
(223,-11,cs),
(351,-11,o),
(443,83,o),
(443,216,c)
);
},
{
closed = 1;
nodes = (
(443,216,l),
(443,321,o),
(374,395,o),
(280,395,cs),
(228,395,o),
(156,360,o),
(107,310,c),
(107,291,l),
(137,317,o),
(190,335,o),
(235,335,cs),
(315,335,o),
(369,272,o),
(369,183,c)
);
}
);
};
layerId = "4BE9B7BC-113F-472C-95D8-B3830030B9AE";
name = "29. Dez. 24, 12:25";
shapes = (
{
closed = 1;
nodes = (
(456,226,l),
(456,325,o),
(393,395,o),
(304,395,cs),
(260,395,o),
(189,358,o),
(131,305,c),
(131,286,l),
(171,315,o),
(224,335,o),
(259,335,cs),
(318,335,o),
(363,281,o),
(368,204,c)
);
},
{
closed = 1;
nodes = (
(225,-260,l),
(225,-242,l),
(186,-228,o),
(159,-207,o),
(159,-192,cs),
(159,315,l),
(160,315,l),
(161,397,l),
(146,403,l),
(27,362,l),
(27,341,l),
(61,326,o),
(86,309,o),
(87,298,cs),
(93,208,o),
(93,5,o),
(87,-192,cs),
(86,-209,o),
(59,-229,o),
(22,-242,c),
(22,-260,l)
);
},
{
closed = 1;
nodes = (
(368,204,l),
(368,99,o),
(327,25,o),
(268,25,cs),
(215,25,o),
(163,56,o),
(142,101,c),
(105,31,l),
(136,6,o),
(201,-11,o),
(260,-11,cs),
(375,-11,o),
(456,87,o),
(456,226,c)
);
}
);
width = 488;
},
{
associatedMasterId = m005;
background = {
shapes = (
{
closed = 1;
nodes = (
(76,-240,l,{
"Letterink-NibData" = {
AngleInDegrees = "0";
};
}),
(101,-262,o),
(120,-273,o),
(150,-283,c,{
"Letterink-NibData" = {
AngleInDegrees = "360";
};
}),
(224,-240,l,{
"Letterink-NibData" = {
AngleInDegrees = "0";
};
}),
(186,-228,o),
(172,-220,o),
(148,-200,c),
(148,-2,l,{
"Letterink-NibData" = {
AngleInDegrees = "360";
};
}),
(149,-3,l,{
"Letterink-NibData" = {
AngleInDegrees = "360";
};
}),
(172,-9,o),
(184,-11,o),
(202,-11,cs),
(249,-11,o),
(281,1,o),
(325,36,c,{
"Letterink-NibData" = {
AngleInDegrees = "0";
};
}),
(407,68,o),
(451,128,o),
(451,210,cs),
(451,310,o),
(367,395,o),
(268,395,cs),
(220,395,o),
(189,383,o),
(145,347,c,{
"Letterink-NibData" = {
AngleInDegrees = "360";
};
}),
(146,346,ls,{
"Letterink-NibData" = {
AngleInDegrees = "359.99999";
};
}),
(122,367,o),
(104,377,o),
(75,387,c,{
"Letterink-NibData" = {
AngleInDegrees = "359.99999";
};
}),
(1,344,l,{
"Letterink-NibData" = {
AngleInDegrees = "0";
};
}),
(38,332,o),
(53,324,o),
(76,304,c)
);
},
{
closed = 1;
nodes = (
(148,302,l),
(165,321,o),
(197,335,o),
(236,335,cs),
(317,335,o),
(373,269,o),
(373,183,cs),
(373,90,o),
(321,26,o),
(245,26,cs),
(189,26,o),
(155,64,o),
(148,101,c)
);
},
{
closed = 1;
nodes = (
(369,183,l),
(368,91,o),
(317,26,o),
(244,26,cs),
(191,26,o),
(137,67,o),
(113,125,c),
(67,40,l),
(104,10,o),
(168,-11,o),
(223,-11,cs),
(351,-11,o),
(443,83,o),
(443,216,c)
);
},
{
closed = 1;
nodes = (
(443,216,l),
(443,321,o),
(374,395,o),
(280,395,cs),
(228,395,o),
(156,360,o),
(107,310,c),
(107,291,l),
(137,317,o),
(190,335,o),
(235,335,cs),
(315,335,o),
(369,272,o),
(369,183,c)
);
}
);
};
layerId = "8E049EDF-ED14-4448-BB42-4E4333D0143E";
name = "29. Dez. 24, 12:26";
shapes = (
{
closed = 1;
nodes = (
(456,226,l),
(456,325,o),
(393,395,o),
(304,395,cs),
(261,395,o),
(189,358,o),
(131,305,c),
(131,286,l),
(171,315,o),
(224,335,o),
(259,335,cs),
(318,335,o),
(363,281,o),
(368,204,c)
);
},
{
closed = 1;
nodes = (
(225,-260,l),
(225,-242,l),
(186,-228,o),
(159,-207,o),
(159,-192,cs),
(159,315,l),
(160,315,l),
(161,397,l),
(146,403,l),
(27,362,l),
(27,341,l),
(62,326,o),
(86,309,o),
(87,298,cs),
(93,208,o),
(93,5,o),
(87,-192,cs),
(86,-208,o),
(60,-229,o),
(22,-242,c),
(22,-260,l)
);
},
{
closed = 1;
nodes = (
(368,204,l),
(368,99,o),
(318,25,o),
(248,25,cs),
(207,25,o),
(163,56,o),
(142,101,c),
(105,31,l),
(137,6,o),
(193,-11,o),
(240,-11,cs),
(367,-11,o),
(456,87,o),
(456,226,c)
);
}
);
width = 488;
},
{
anchors = (
{
name = bottom;
pos = (243,0);
},
{
name = top;
pos = (243,384);
}
);
background = {
shapes = (
{
closed = 1;
nodes = (
(68,-240,l,{
"Letterink-NibData" = {
AngleInDegrees = "0";
};
}),
(93,-262,o),
(112,-273,o),
(142,-283,c,{
"Letterink-NibData" = {
AngleInDegrees = "360";
};
}),
(216,-240,l,{
"Letterink-NibData" = {
AngleInDegrees = "0";
};
}),
(178,-228,o),
(164,-220,o),
(140,-200,c),
(140,-2,l,{
"Letterink-NibData" = {
AngleInDegrees = "360";
};
}),
(141,-3,l,{
"Letterink-NibData" = {
AngleInDegrees = "360";
};
}),
(164,-9,o),
(176,-11,o),
(194,-11,cs),
(241,-11,o),
(273,1,o),
(317,36,c,{
"Letterink-NibData" = {
AngleInDegrees = "0";
};
}),
(399,68,o),
(443,128,o),
(443,210,cs),
(443,310,o),
(359,395,o),
(260,395,cs),
(212,395,o),
(181,383,o),
(137,347,c,{
"Letterink-NibData" = {
AngleInDegrees = "360";
};
}),
(138,346,ls,{
"Letterink-NibData" = {
AngleInDegrees = "359.99999";
};
}),
(114,367,o),
(96,377,o),
(67,387,c,{
"Letterink-NibData" = {
AngleInDegrees = "359.99999";
};
}),
(-7,344,l,{
"Letterink-NibData" = {
AngleInDegrees = "0";
};
}),
(30,332,o),
(45,324,o),
(68,304,c)
);
},
{
closed = 1;
nodes = (
(140,302,l),
(157,321,o),
(189,335,o),
(228,335,cs),
(309,335,o),
(365,269,o),
(365,183,cs),
(365,90,o),
(313,26,o),
(237,26,cs),
(181,26,o),
(147,64,o),
(140,101,c)
);
},
{
closed = 1;
nodes = (
(361,183,l),
(360,91,o),
(309,26,o),
(236,26,cs),
(183,26,o),
(129,67,o),
(105,125,c),
(59,40,l),
(96,10,o),
(160,-11,o),
(215,-11,cs),
(343,-11,o),
(435,83,o),
(435,216,c)
);
},
{
closed = 1;
nodes = (
(435,216,l),
(435,321,o),
(366,395,o),
(272,395,cs),
(220,395,o),
(148,360,o),
(99,310,c),
(99,291,l),
(129,317,o),
(182,335,o),
(227,335,cs),
(307,335,o),
(361,272,o),
(361,183,c)
);
}
);
};
color = 2;
layerId = m005;
name = Regular;
shapes = (
{
closed = 1;
nodes = (
(450,205,l),
(450,316,o),
(379,395,o),
(281,395,cs),
(236,395,o),
(165,362,o),
(108,315,c),
(108,296,l),
(146,319,o),
(199,335,o),
(236,335,cs),
(314,335,o),
(371,268,o),
(371,174,c)
);
},
{
closed = 1;
nodes = (
(230,-232,l),
(230,-214,l),
(180,-204,o),
(144,-183,o),
(144,-164,cs),
(144,316,l),
(143,316,l),
(144,395,l),
(131,403,l),
(12,363,l),
(12,342,l),
(47,327,o),
(72,310,o),
(72,299,cs),
(72,-164,ls),
(72,-179,o),
(45,-200,o),
(7,-214,c),
(7,-232,l)
);
},
{
closed = 1;
nodes = (
(371,174,l),
(371,87,o),
(315,26,o),
(237,26,cs),
(194,26,o),
(143,64,o),
(118,117,c),
(92,28,l),
(124,5,o),
(176,-11,o),
(216,-11,cs),
(353,-11,o),
(450,78,o),
(450,205,c)
);
}
);
width = 486;
}
);
note = p;
unicode = 112;
},
{
glyphname = thorn;
lastChange = "2025-01-10 15:55:00 +0000";
layers = (
{
layerId = m005;
shapes = (
{
closed = 1;
nodes = (
(450,205,l),
(450,316,o),
(379,395,o),
(281,395,cs),
(236,395,o),
(165,362,o),
(108,315,c),
(108,296,l),
(146,319,o),
(199,335,o),
(236,335,cs),
(314,335,o),
(371,268,o),
(371,174,c)
);
},
{
closed = 1;
nodes = (
(230,-232,l),
(230,-214,l),
(180,-204,o),
(144,-183,o),
(144,-164,cs),
(144,316,l),
(143,316,l),
(144,697,l),
(131,705,l),
(12,665,l),
(12,644,l),
(47,629,o),
(72,612,o),
(72,601,cs),
(72,-164,ls),
(72,-179,o),
(45,-200,o),
(7,-214,c),
(7,-232,l)
);
},
{
closed = 1;
nodes = (
(371,174,l),
(371,87,o),
(315,26,o),
(237,26,cs),
(194,26,o),
(143,64,o),
(118,117,c),
(92,28,l),
(124,5,o),
(176,-11,o),
(216,-11,cs),
(353,-11,o),
(450,78,o),
(450,205,c)
);
}
);
width = 486;
}
);
unicode = 254;
},
{
color = 2;
glyphname = q;
lastChange = "2025-01-10 14:17:39 +0000";
layers = (
{
anchors = (
{
name = bottom;
pos = (243,0);
},
{
name = top;
pos = (243,384);
}
);
color = 3;
layerId = m005;
shapes = (
{
closed = 1;
nodes = (
(341,-164,l),
(415,-164,l),
(414,-39,o),
(414,269,o),
(415,394,c),
(391,383,o),
(367,371,o),
(343,377,c)
);
},
{
closed = 1;
nodes = (
(110,201,l),
(111,288,o),
(160,358,o),
(229,358,cs),
(279,358,o),
(337,314,o),
(360,259,c),
(406,344,l),
(371,372,o),
(302,395,o),
(250,395,cs),
(127,395,o),
(36,294,o),
(36,168,c)
);
},
{
closed = 1;
nodes = (
(36,168,l),
(36,68,o),
(102,-11,o),
(193,-11,cs),
(243,-11,o),
(320,27,o),
(366,74,c),
(366,93,l),
(338,68,o),
(281,49,o),
(238,49,cs),
(163,49,o),
(110,116,o),
(110,201,c)
);
},
{
closed = 1;
nodes = (
(341,-201,o),
(316,-202,o),
(254,-214,c),
(254,-232,l),
(470,-232,l),
(470,-214,l),
(438,-202,o),
(415,-201,o),
(415,-164,c),
(341,-164,l)
);
}
);
width = 486;
}
);
unicode = 113;
},
{
color = 2;
glyphname = r;
lastChange = "2025-01-10 15:34:14 +0000";
layers = (
{
anchors = (
{
name = bottom;
pos = (124,0);
},
{
name = top;
pos = (162,384);
}
);
background = {
shapes = (
{
closed = 1;
nodes = (
(88,40,l,{
"Letterink-NibData" = {
AngleInDegrees = "0";
};
}),
(113,18,o),
(132,7,o),
(162,-3,c,{
"Letterink-NibData" = {
AngleInDegrees = "360";
};
}),
(236,40,l,{
"Letterink-NibData" = {
AngleInDegrees = "0";
};
}),
(198,52,o),
(184,60,o),
(160,80,c),
(160,342,l,{
"Letterink-NibData" = {
AngleInDegrees = "360";
};
}),
(161,341,l,{
"Letterink-NibData" = {
AngleInDegrees = "0";
};
}),
(184,347,o),
(196,349,o),
(214,349,cs),
(262,349,o),
(291,338,o),
(337,301,c,{
"Letterink-NibData" = {
AngleInDegrees = "0";
};
}),
(408,342,l,{
"Letterink-NibData" = {
AngleInDegrees = "0";
};
}),
(356,384,o),
(328,395,o),
(280,395,cs),
(232,395,o),
(201,383,o),
(157,347,c,{
"Letterink-NibData" = {
AngleInDegrees = "360";
};
}),
(158,346,ls,{
"Letterink-NibData" = {
AngleInDegrees = "359.99999";
};
}),
(134,367,o),
(116,377,o),
(87,387,c,{
"Letterink-NibData" = {
AngleInDegrees = "359.99999";
};
}),
(13,344,l,{
"Letterink-NibData" = {
AngleInDegrees = "0";
};
}),
(50,332,o),
(65,324,o),
(88,304,c)
);
}
);
};
color = 2;
guides = (
{
angle = 46;
lockAngle = 1;
pos = (326,376);
}
);
layerId = m005;
shapes = (
{
closed = 1;
nodes = (
(135,228,l),
(183,287,o),
(197,321,o),
(228,321,cs),
(239,321,o),
(248,308,o),
(260,296,cs),
(281,275,o),
(341,350,o),
(320,371,cs),
(309,382,o),
(291,390,o),
(270,390,cs),
(232,390,o),
(209,362,o),
(133,267,c)
);
},
{
closed = 1;
nodes = (
(259,0,l),
(259,18,l),
(190,32,o),
(163,38,o),
(163,68,cs),
(163,295,l),
(162,295,l),
(165,394,l),
(150,403,l),
(28,362,l),
(28,341,l),
(47,333,o),
(86,319,o),
(87,298,cs),
(91,223,o),
(91,143,o),
(89,68,cs),
(88,37,o),
(62,32,o),
(23,18,c),
(23,0,l)
);
}
);
width = 324;
}
);
note = r;
unicode = 114;
},
{
color = 2;
glyphname = s;
lastChange = "2025-01-10 14:17:39 +0000";
layers = (
{
anchors = (
{
name = bottom;
pos = (171,0);
},
{
name = top;
pos = (171,384);
}
);
background = {
shapes = (
{
closed = 1;
nodes = (
(82,386,l),
(82,387,l,{
"Letterink-NibData" = {
AngleInDegrees = "360";
};
}),
(9,346,l,{
"Letterink-NibData" = {
AngleInDegrees = "360";
};
}),
(12,341,l),
(82,341,l),
(82,40,l,{
"Letterink-NibData" = {
AngleInDegrees = "0";
};
}),
(107,18,o),
(126,7,o),
(155,-3,c,{
"Letterink-NibData" = {
AngleInDegrees = "0";
};
}),
(230,40,l,{
"Letterink-NibData" = {
AngleInDegrees = "0";
};
}),
(193,52,o),
(177,60,o),
(154,80,c),
(154,662,l,{
"Letterink-NibData" = {
AngleInDegrees = "360";
};
}),
(155,661,l,{
"Letterink-NibData" = {
AngleInDegrees = "0";
};
}),
(178,667,o),
(189,669,o),
(208,669,cs),
(256,669,o),
(285,657,o),
(331,621,c,{
"Letterink-NibData" = {
AngleInDegrees = "0";
};
}),
(402,662,l,{
"Letterink-NibData" = {
AngleInDegrees = "0";
};
}),
(348,705,o),
(323,715,o),
(273,715,cs),
(226,715,o),
(194,703,o),
(151,667,c,{
"Letterink-NibData" = {
AngleInDegrees = "360";
};
}),
(82,628,l)
);
}
);
};
color = 4;
layerId = m005;
shapes = (
{
closed = 1;
nodes = (
(245,-9,o),
(306,39,o),
(306,108,cs),
(306,226,o),
(108,222,o),
(110,310,cs),
(111,343,o),
(141,368,o),
(176,368,cs),
(224,368,o),
(258,334,o),
(260,285,c),
(286,285,l),
(285,325,o),
(286,362,o),
(289,376,c),
(256,388,o),
(209,396,o),
(176,396,cs),
(102,396,o),
(44,347,o),
(44,278,cs),
(44,154,o),
(238,171,o),
(238,80,cs),
(238,41,o),
(206,16,o),
(161,19,cs),
(117,22,o),
(68,79,o),
(63,128,c),
(36,128,l),
(39,114,o),
(41,55,o),
(39,12,c),
(81,0,o),
(139,-9,o),
(158,-9,cs)
);
}
);
width = 342;
}
);
note = s;
unicode = 115;
},
{
color = 2;
glyphname = germandbls;
lastChange = "2025-01-10 14:17:39 +0000";
layers = (
{
anchors = (
{
name = bottom;
pos = (252,0);
},
{
name = top;
pos = (252,694);
}
);
background = {
shapes = (
{
closed = 1;
nodes = (
(418,-9,o),
(479,39,o),
(479,108,cs),
(479,226,o),
(286,222,o),
(288,310,cs),
(289,343,o),
(314,368,o),
(349,368,cs),
(397,368,o),
(431,334,o),
(433,285,c),
(459,285,l),
(458,325,o),
(459,362,o),
(462,376,c),
(429,388,o),
(382,396,o),
(349,396,cs),
(275,396,o),
(222,347,o),
(222,278,cs),
(222,154,o),
(411,171,o),
(411,80,cs),
(411,41,o),
(379,16,o),
(334,19,cs),
(290,22,o),
(246,79,o),
(241,128,c),
(214,128,l),
(217,114,o),
(219,55,o),
(217,12,c),
(259,0,o),
(312,-9,o),
(331,-9,cs)
);
}
);
};
color = 2;
layerId = m005;
shapes = (
{
closed = 1;
nodes = (
(149,0,l),
(147,69,ls),
(143,188,o),
(143,367,o),
(146,499,cs),
(148,574,o),
(186,627,o),
(229,627,c),
(266,665,l),
(160,665,o),
(76,583,o),
(73,467,cs),
(71,392,o),
(72,238,o),
(72,69,cs),
(72,46,o),
(45,35,o),
(7,18,c),
(7,0,l)
);
},
{
closed = 1;
nodes = (
(414,-6,o),
(486,47,o),
(486,129,cs),
(486,247,o),
(301,261,o),
(301,339,cs),
(301,430,o),
(409,394,o),
(402,550,cs),
(399,613,o),
(344,665,o),
(266,665,c),
(229,627,l),
(288,627,o),
(328,580,o),
(331,524,cs),
(338,388,o),
(232,420,o),
(232,309,cs),
(232,189,o),
(415,194,o),
(415,103,cs),
(415,50,o),
(373,19,o),
(340,22,cs),
(302,25,o),
(262,64,o),
(256,122,c),
(229,122,l),
(233,110,o),
(234,62,o),
(232,6,c),
(264,-3,o),
(312,-6,o),
(337,-6,cs)
);
},
{
closed = 1;
nodes = (
(127,334,l),
(127,389,l),
(68,384,l),
(-8,359,l),
(-8,349,l)
);
}
);
width = 504;
}
);
unicode = 223;
},
{
glyphname = t;
lastChange = "2025-01-10 14:17:39 +0000";
layers = (
{
anchors = (
{
name = bottom;
pos = (148,0);
},
{
name = center;
pos = (148,192);
},
{
name = top;
pos = (148,474);
},
{
name = topright;
pos = (276,694);
}
);
background = {
shapes = (
{
closed = 1;
nodes = (
(124,1,o),
(153,-11,o),
(201,-11,cs),
(250,-11,o),
(278,0,o),
(326,39,c,{
"Letterink-NibData" = {
AngleInDegrees = "0";
};
}),
(323,44,l),
(320,44,o),
(316,43,o),
(316,42,c,{
"Letterink-NibData" = {
AngleInDegrees = "0";
};
}),
(298,37,o),
(285,35,o),
(266,35,cs),
(220,35,o),
(188,47,o),
(147,80,c),
(147,342,l,{
"Letterink-NibData" = {
AngleInDegrees = "360";
};
}),
(148,341,l),
(254,341,l,{
"Letterink-NibData" = {
AngleInDegrees = "360";
};
}),
(327,382,l,{
"Letterink-NibData" = {
AngleInDegrees = "0";
};
}),
(324,387,l),
(147,387,l),
(147,429,l,{
"Letterink-NibData" = {
AngleInDegrees = "0";
};
}),
(2,346,l,{
"Letterink-NibData" = {
AngleInDegrees = "360";
};
}),
(5,341,l),
(75,341,l),
(75,40,l,{
"Letterink-NibData" = {
AngleInDegrees = "360";
};
})
);
}
);
};
color = 2;
guides = (
{
angle = 11.5;
pos = (285,39);
}
);
layerId = m005;
shapes = (
{
closed = 1;
nodes = (
(199,-11,o),
(253,5,o),
(288,27,c),
(278,48,l),
(259,40,o),
(230,34,o),
(210,34,cs),
(177,34,o),
(151,52,o),
(149,78,cs),
(147,108,o),
(146,153,o),
(146,186,cs),
(146,316,o),
(154,433,o),
(159,468,c),
(140,474,l),
(78,381,l),
(72,237,o),
(68,98,o),
(74,46,cs),
(78,13,o),
(113,-11,o),
(158,-11,cs)
);
},
{
closed = 1;
nodes = (
(282,334,l),
(282,389,l),
(82,384,l),
(6,359,l),
(6,349,l)
);
},
{
closed = 1;
nodes = (
(114,361,l),
(140,474,l),
(104,423,o),
(48,375,o),
(6,359,c)
);
}
);
width = 288;
}
);
note = t;
unicode = 116;
},
{
color = 2;
glyphname = u;
lastChange = "2025-01-10 14:59:37 +0000";
layers = (
{
anchors = (
{
name = bottom;
pos = (243,0);
},
{
name = ogonek;
pos = (437,10);
},
{
name = top;
pos = (243,384);
},
{
name = topright;
pos = (346,331);
}
);
background = {
shapes = (
{
closed = 1;
nodes = (
(71,40,l,{
"Letterink-NibData" = {
AngleInDegrees = "360";
};
}),
(120,1,o),
(149,-11,o),
(197,-11,cs),
(244,-11,o),
(276,1,o),
(320,37,c,{
"Letterink-NibData" = {
AngleInDegrees = "360";
};
}),
(319,38,ls,{
"Letterink-NibData" = {
AngleInDegrees = "0";
};
}),
(342,17,o),
(361,6,o),
(389,-3,c,{
"Letterink-NibData" = {
AngleInDegrees = "0";
};
}),
(464,40,l,{
"Letterink-NibData" = {
AngleInDegrees = "0";
};
}),
(426,52,o),
(411,60,o),
(388,80,c),
(388,344,l,{
"Letterink-NibData" = {
AngleInDegrees = "359.99999";
};
}),
(362,367,o),
(346,377,o),
(315,387,c,{
"Letterink-NibData" = {
AngleInDegrees = "359.99999";
};
}),
(241,344,l,{
"Letterink-NibData" = {
AngleInDegrees = "0";
};
}),
(278,332,o),
(293,324,o),
(316,304,c),
(316,42,l),
(316,43,l,{
"Letterink-NibData" = {
AngleInDegrees = "0";
};
}),
(292,37,o),
(281,35,o),
(263,35,cs),
(216,35,o),
(185,47,o),
(143,80,c),
(143,344,l,{
"Letterink-NibData" = {
AngleInDegrees = "359.99999";
};
}),
(117,367,o),
(101,377,o),
(70,387,c,{
"Letterink-NibData" = {
AngleInDegrees = "359.99999";
};
}),
(-4,344,l,{
"Letterink-NibData" = {
AngleInDegrees = "0";
};
}),
(33,332,o),
(48,324,o),
(71,304,c)
);
}
);
};
color = 1;
layerId = m005;
shapes = (
{
closed = 1;
nodes = (
(135,403,l),
(9,369,l),
(9,351,l),
(48,337,o),
(74,332,o),
(74,301,cs),
(71,111,ls),
(70,40,o),
(132,-11,o),
(199,-11,cs),
(243,-11,o),
(300,32,o),
(352,89,c),
(352,108,l),
(320,75,o),
(271,49,o),
(234,49,cs),
(183,49,o),
(145,77,o),
(143,145,cs),
(141,201,o),
(145,265,o),
(146,321,cs),
(146,345,o),
(148,370,o),
(148,394,c)
);
},
{
closed = 1;
nodes = (
(386,403,l),
(259,369,l),
(259,351,l),
(298,337,o),
(321,331,o),
(323,301,cs),
(328,219,o),
(325,146,o),
(320,64,c),
(323,64,l),
(322,-5,l),
(335,-11,l),
(464,17,l),
(464,38,l),
(435,41,o),
(394,55,o),
(394,76,cs),
(397,321,l),
(399,394,l)
);
}
);
width = 486;
}
);
note = u;
unicode = 117;
},
{
color = 2;
glyphname = v;
lastChange = "2025-01-10 14:17:39 +0000";
layers = (
{
anchors = (
{
name = bottom;
pos = (216,0);
},
{
name = top;
pos = (216,384);
}
);
background = {
shapes = (
{
closed = 1;
nodes = (
(233,-12,l,{
"Letterink-NibData" = {
AngleInDegrees = "360";
};
}),
(391,343,l,{
"Letterink-NibData" = {
AngleInDegrees = "0";
};
}),
(364,367,o),
(348,376,o),
(317,387,c,{
"Letterink-NibData" = {
AngleInDegrees = "0";
};
}),
(257,327,l,{
"Letterink-NibData" = {
AngleInDegrees = "360";
};
}),
(291,316,o),
(307,307,o),
(329,289,c,{
"Letterink-NibData" = {
AngleInDegrees = "360";
};
}),
(253,119,l,{
"Letterink-NibData" = {
AngleInDegrees = "360";
};
}),
(143,346,l,{
"Letterink-NibData" = {
AngleInDegrees = "359.99999";
};
}),
(119,367,o),
(102,377,o),
(72,387,c,{
"Letterink-NibData" = {
AngleInDegrees = "0";
};
}),
(12,327,l,{
"Letterink-NibData" = {
AngleInDegrees = "0";
};
}),
(48,315,o),
(63,307,o),
(88,286,c,{
"Letterink-NibData" = {
AngleInDegrees = "360";
};
})
);
}
);
};
color = 4;
layerId = m005;
shapes = (
{
closed = 1;
nodes = (
(194,0,l),
(222,0,l),
(366,302,ls),
(375,322,o),
(384,335,o),
(395,345,cs),
(405,353,o),
(417,358,o),
(432,361,c),
(432,384,l),
(286,384,l),
(286,361,l),
(299,359,o),
(318,358,o),
(329,351,cs),
(335,348,o),
(339,343,o),
(339,336,cs),
(339,330,o),
(337,319,o),
(330,304,cs),
(223,72,l),
(243,72,l),
(146,318,ls),
(143,327,o),
(141,333,o),
(141,337,cs),
(141,344,o),
(145,349,o),
(152,353,cs),
(165,359,o),
(187,360,o),
(201,361,c),
(201,384,l),
(0,384,l),
(0,361,l),
(15,359,o),
(36,356,o),
(45,348,cs),
(53,340,o),
(60,328,o),
(68,308,cs)
);
}
);
width = 432;
}
);
note = v;
unicode = 118;
},
{
color = 2;
glyphname = w;
lastChange = "2025-01-10 14:17:39 +0000";
layers = (
{
anchors = (
{
name = bottom;
pos = (315,0);
},
{
name = top;
pos = (315,384);
}
);
color = 4;
layerId = m005;
shapes = (
{
closed = 1;
nodes = (
(406,0,l),
(434,0,l),
(564,302,ls),
(573,322,o),
(582,335,o),
(593,345,cs),
(603,353,o),
(615,358,o),
(630,361,c),
(630,384,l),
(484,384,l),
(484,361,l),
(497,359,o),
(516,358,o),
(527,351,cs),
(533,348,o),
(537,343,o),
(537,336,cs),
(537,330,o),
(534,319,o),
(528,304,cs),
(435,72,l),
(456,72,l),
(351,318,ls),
(347,327,o),
(346,333,o),
(346,337,cs),
(346,344,o),
(350,349,o),
(357,353,cs),
(370,359,o),
(398,360,o),
(412,361,c),
(412,384,l),
(226,384,l),
(226,361,l),
(241,359,o),
(242,356,o),
(251,348,cs),
(259,340,o),
(265,328,o),
(274,308,cs)
);
},
{
closed = 1;
nodes = (
(314,279,l),
(229,72,l),
(250,72,l),
(145,318,ls),
(141,327,o),
(140,333,o),
(140,337,cs),
(140,344,o),
(144,349,o),
(151,353,cs),
(164,359,o),
(166,360,o),
(180,361,c),
(180,384,l),
(0,384,l),
(0,361,l),
(15,359,o),
(36,356,o),
(45,348,cs),
(53,340,o),
(60,328,o),
(68,308,cs),
(194,0,l),
(228,0,l),
(333,241,l)
);
}
);
width = 630;
}
);
unicode = 119;
},
{
color = 2;
glyphname = x;
lastChange = "2025-01-10 14:17:39 +0000";
layers = (
{
anchors = (
{
name = bottom;
pos = (216,0);
},
{
name = top;
pos = (216,384);
}
);
color = 4;
layerId = m005;
shapes = (
{
closed = 1;
nodes = (
(194,159,l),
(219,154,l),
(350,322,ls),
(363,339,o),
(390,356,o),
(416,361,c),
(416,384,l),
(272,384,l),
(272,365,l),
(303,360,o),
(317,344,o),
(302,324,cs),
(228,226,l),
(249,221,l),
(156,338,ls),
(139,359,o),
(169,364,o),
(184,365,c),
(184,384,l),
(8,384,l),
(8,361,l),
(33,358,o),
(55,346,o),
(69,328,cs)
);
},
{
closed = 1;
nodes = (
(249,223,l),
(222,238,l),
(73,62,ls),
(53,38,o),
(36,30,o),
(0,23,c),
(0,0,l),
(168,0,l),
(168,19,l),
(137,24,o),
(103,30,o),
(119,50,cs),
(217,170,l),
(194,161,l),
(290,46,ls),
(303,30,o),
(273,21,o),
(248,19,c),
(248,0,l),
(432,0,l),
(432,23,l),
(407,26,o),
(392,36,o),
(377,56,cs)
);
}
);
width = 432;
}
);
unicode = 120;
},
{
color = 2;
glyphname = y;
lastChange = "2025-01-10 15:37:31 +0000";
layers = (
{
anchors = (
{
name = bottom;
pos = (232,-60);
},
{
name = top;
pos = (216,384);
}
);
color = 4;
layerId = m005;
shapes = (
{
closed = 1;
nodes = (
(248,0,l),
(366,302,ls),
(374,322,o),
(384,335,o),
(395,345,cs),
(405,353,o),
(417,358,o),
(432,361,c),
(432,384,l),
(286,384,l),
(286,361,l),
(299,359,o),
(316,358,o),
(327,351,cs),
(333,348,o),
(337,343,o),
(337,336,cs),
(337,330,o),
(334,319,o),
(328,304,cs),
(211,27,l),
(246,55,l),
(146,318,ls),
(143,327,o),
(141,333,o),
(141,337,cs),
(141,344,o),
(145,349,o),
(152,353,cs),
(165,359,o),
(187,360,o),
(201,361,c),
(201,384,l),
(0,384,l),
(0,361,l),
(15,359,o),
(36,356,o),
(45,348,cs),
(53,340,o),
(60,328,o),
(68,308,cs),
(204,-43,l)
);
},
{
closed = 1;
nodes = (
(132,-232,o),
(182,-139,o),
(214,-75,cs),
(243,-17,o),
(228,-46,o),
(248,0,c),
(212,25,l),
(163,-116,l),
(147,-142,o),
(139,-161,o),
(111,-161,cs),
(92,-161,o),
(90,-141,o),
(68,-141,cs),
(44,-141,o),
(20,-170,o),
(20,-202,cs),
(20,-226,o),
(36,-232,o),
(60,-232,cs)
);
}
);
width = 432;
},
{
associatedMasterId = m005;
layerId = "50AA2D8F-A47F-47B7-8402-81B2F32D7E55";
name = "29. Dez. 24, 16:03";
shapes = (
{
closed = 1;
nodes = (
(180,0,l),
(242,0,l),
(360,302,ls),
(368,322,o),
(378,335,o),
(389,345,cs),
(399,353,o),
(411,358,o),
(426,361,c),
(426,384,l),
(280,384,l),
(280,361,l),
(293,359,o),
(310,358,o),
(321,351,cs),
(327,348,o),
(331,343,o),
(331,336,cs),
(331,330,o),
(328,319,o),
(322,304,cs),
(217,27,l),
(240,55,l),
(152,318,ls),
(149,327,o),
(147,333,o),
(147,337,cs),
(147,344,o),
(151,349,o),
(158,353,cs),
(171,359,o),
(193,360,o),
(207,361,c),
(207,384,l),
(6,384,l),
(6,361,l),
(21,359,o),
(42,356,o),
(51,348,cs),
(59,340,o),
(67,328,o),
(74,308,cs)
);
},
{
closed = 1;
nodes = (
(213,25,l),
(167,-106,o),
(128,-166,o),
(113,-166,cs),
(102,-166,o),
(93,-160,o),
(84,-149,cs),
(74,-137,o),
(74,-125,o),
(68,-119,cs),
(45,-98,o),
(-17,-165,o),
(5,-188,cs),
(21,-204,o),
(59,-215,o),
(97,-215,cs),
(110,-215,o),
(124,-208,o),
(136,-196,cs),
(181,-153,o),
(222,-46,o),
(242,0,c)
);
},
{
closed = 0;
nodes = (
(338,-122,l)
);
}
);
width = 426;
}
);
unicode = 121;
},
{
color = 2;
glyphname = z;
lastChange = "2025-01-10 14:17:39 +0000";
layers = (
{
anchors = (
{
name = bottom;
pos = (207,0);
},
{
name = center;
pos = (207,192);
},
{
name = top;
pos = (207,384);
}
);
color = 4;
layerId = m005;
shapes = (
{
closed = 1;
nodes = (
(150,1,o),
(267,0,o),
(378,0,c),
(378,157,l),
(350,157,l),
(341,102,o),
(333,66,o),
(308,66,cs),
(83,66,l),
(93,46,l),
(372,354,l),
(372,391,l),
(281,386,o),
(229,384,o),
(137,384,cs),
(125,384,o),
(105,388,o),
(109,403,c),
(79,412,l),
(36,264,l),
(66,255,l),
(79,307,o),
(98,319,o),
(119,319,cs),
(322,319,l),
(322,359,l),
(39,44,l),
(39,-5,l)
);
}
);
width = 414;
}
);
unicode = 122;
},
{
color = 2;
glyphname = i.original;
lastChange = "2025-01-10 14:17:39 +0000";
layers = (
{
anchors = (
{
name = bottom;
pos = (117,0);
}
);
background = {
shapes = (
{
closed = 1;
nodes = (
(87,40,l,{
"Letterink-NibData" = {
AngleInDegrees = "0";
};
}),
(112,18,o),
(131,7,o),
(161,-3,c,{
"Letterink-NibData" = {
AngleInDegrees = "360";
};
}),
(235,40,l,{
"Letterink-NibData" = {
AngleInDegrees = "0";
};
}),
(197,52,o),
(183,60,o),
(159,80,c),
(159,344,l,{
"Letterink-NibData" = {
AngleInDegrees = "359.99999";
};
}),
(133,367,o),
(117,377,o),
(86,387,c,{
"Letterink-NibData" = {
AngleInDegrees = "359.99999";
};
}),
(12,344,l,{
"Letterink-NibData" = {
AngleInDegrees = "0";
};
}),
(49,332,o),
(64,324,o),
(87,304,c)
);
},
{
closed = 1;
nodes = (
(215,0,l),
(215,18,l),
(176,32,o),
(159,38,o),
(159,68,cs),
(159,315,l),
(158,315,l),
(159,389,l),
(146,395,l),
(37,357,l),
(37,336,l),
(56,328,o),
(87,314,o),
(87,293,cs),
(87,68,ls),
(87,37,o),
(71,32,o),
(32,18,c),
(32,0,l)
);
}
);
};
color = 1;
layerId = m005;
shapes = (
{
closed = 1;
nodes = (
(22,0,l),
(228,0,l),
(228,18,l),
(187,32,o),
(162,39,o),
(162,68,cs),
(162,148,o),
(160,234,o),
(162,314,cs),
(164,393,l),
(148,403,l),
(27,362,l),
(27,341,l),
(46,333,o),
(86,320,o),
(87,298,cs),
(91,223,o),
(91,143,o),
(87,68,cs),
(85,39,o),
(63,32,o),
(22,18,c)
);
},
{
closed = 1;
nodes = (
(71,539,o),
(95,515,o),
(120,515,cs),
(147,515,o),
(171,539,o),
(171,564,cs),
(171,591,o),
(147,615,o),
(120,615,cs),
(95,615,o),
(71,591,o),
(71,564,cs)
);
}
);
width = 234;
}
);
note = i;
},
{
color = 2;
glyphname = j.original;
lastChange = "2025-01-10 14:17:39 +0000";
layers = (
{
color = 1;
layerId = m005;
shapes = (
{
closed = 1;
nodes = (
(21,-223,o),
(23,-222,o),
(24,-222,c),
(34,-218,o),
(47,-208,o),
(57,-201,cs),
(109,-164,o),
(144,-51,o),
(144,68,cs),
(144,314,l),
(146,393,l),
(131,403,l),
(10,362,l),
(10,341,l),
(45,326,o),
(70,309,o),
(70,298,cs),
(72,254,o),
(73,128,o),
(73,1,cs),
(73,-87,o),
(57,-160,o),
(34,-178,c),
(31,-179,o),
(27,-179,o),
(23,-179,cs),
(19,-179,o),
(15,-179,o),
(12,-178,cs),
(-2,-174,o),
(3,-168,o),
(-12,-164,cs),
(-33,-158,o),
(-56,-191,o),
(-56,-212,cs),
(-56,-221,o),
(-53,-228,o),
(-44,-230,cs),
(-38,-231,o),
(-32,-232,o),
(-25,-232,cs),
(-10,-232,o),
(6,-229,o),
(19,-224,cs)
);
},
{
closed = 1;
nodes = (
(133,515,o),
(154,535,o),
(154,564,cs),
(154,594,o),
(133,615,o),
(103,615,cs),
(74,615,o),
(54,594,o),
(54,564,cs),
(54,535,o),
(74,515,o),
(103,515,cs)
);
}
);
width = 216;
}
);
},
{
glyphname = c_t;
lastChange = "2025-01-08 19:27:58 +0000";
layers = (
{
color = 10;
layerId = m005;
shapes = (
{
ref = c;
},
{
pos = (396,0);
ref = t;
},
{
closed = 1;
nodes = (
(555,466,l),
(555,546,o),
(498,603,o),
(417,603,cs),
(336,603,o),
(279,546,o),
(279,465,cs),
(279,419,o),
(297,381,o),
(327,356,c),
(350,372,l),
(323,392,o),
(306,426,o),
(306,465,cs),
(306,529,o),
(352,575,o),
(417,575,cs),
(481,575,o),
(531,529,o),
(531,465,cs),
(531,455,o),
(530,446,o),
(528,437,c)
);
}
);
width = 684;
}
);
metricLeft = c;
metricRight = t;
},
{
glyphname = f_f;
lastChange = "2025-01-08 19:27:58 +0000";
layers = (
{
color = 10;
layerId = m005;
shapes = (
{
closed = 1;
nodes = (
(20,0,l),
(253,0,l),
(253,18,l),
(199,31,o),
(162,31,o),
(160,69,cs),
(155,163,o),
(147,354,o),
(159,499,cs),
(164,560,o),
(177,627,o),
(246,627,cs),
(269,627,o),
(279,619,o),
(288,608,cs),
(297,595,o),
(301,578,o),
(312,569,cs),
(335,548,o),
(397,615,o),
(375,638,cs),
(357,656,o),
(324,665,o),
(283,665,cs),
(225,665,o),
(170,644,o),
(132,603,cs),
(90,559,o),
(89,522,o),
(85,417,cs),
(84,385,o),
(84,221,o),
(85,69,cs),
(85,30,o),
(52,32,o),
(20,18,c)
);
},
{
closed = 1;
nodes = (
(580,334,l),
(580,389,l),
(91,384,l),
(15,359,l),
(15,349,l)
);
},
{
pos = (287,0);
ref = f;
}
);
width = 594;
}
);
metricLeft = f;
metricRight = f;
},
{
glyphname = f_f_i;
lastChange = "2025-01-08 19:27:58 +0000";
layers = (
{
color = 10;
layerId = m005;
shapes = (
{
closed = 1;
nodes = (
(24,0,l),
(257,0,l),
(257,18,l),
(203,31,o),
(167,31,o),
(165,69,cs),
(160,163,o),
(160,304,o),
(165,449,cs),
(167,510,o),
(162,624,o),
(231,624,cs),
(254,624,o),
(263,617,o),
(272,606,cs),
(281,593,o),
(285,576,o),
(296,567,cs),
(319,546,o),
(381,615,o),
(359,638,cs),
(341,656,o),
(308,665,o),
(267,665,cs),
(209,665,o),
(161,631,o),
(133,590,cs),
(99,540,o),
(93,492,o),
(89,387,cs),
(88,355,o),
(88,221,o),
(89,69,cs),
(89,30,o),
(56,32,o),
(24,18,c)
);
},
{
closed = 1;
nodes = (
(718,334,l),
(718,389,l),
(95,384,l),
(19,359,l),
(19,349,l)
);
},
{
pos = (289,0);
ref = f_i;
}
);
width = 792;
}
);
metricLeft = f;
metricRight = i;
},
{
glyphname = f_f_l;
lastChange = "2025-01-08 19:27:58 +0000";
layers = (
{
color = 10;
layerId = m005;
shapes = (
{
closed = 1;
nodes = (
(24,0,l),
(257,0,l),
(257,18,l),
(203,31,o),
(167,31,o),
(165,69,cs),
(160,163,o),
(160,304,o),
(165,449,cs),
(167,510,o),
(162,624,o),
(231,624,cs),
(254,624,o),
(263,617,o),
(272,606,cs),
(281,593,o),
(285,576,o),
(296,567,cs),
(319,546,o),
(381,615,o),
(359,638,cs),
(341,656,o),
(308,665,o),
(267,665,cs),
(209,665,o),
(161,631,o),
(133,590,cs),
(99,540,o),
(93,492,o),
(89,387,cs),
(88,355,o),
(88,221,o),
(89,69,cs),
(89,30,o),
(56,32,o),
(24,18,c)
);
},
{
closed = 1;
nodes = (
(588,334,l),
(588,389,l),
(95,384,l),
(19,359,l),
(19,349,l)
);
},
{
pos = (291,0);
ref = f_l;
}
);
width = 792;
}
);
metricLeft = f;
metricRight = l;
},
{
glyphname = f_i;
lastChange = "2025-01-08 19:27:58 +0000";
layers = (
{
color = 10;
layerId = m005;
shapes = (
{
closed = 1;
nodes = (
(253,0,l),
(253,18,l),
(199,31,o),
(161,52,o),
(160,69,cs),
(152,227,o),
(159,405,o),
(159,499,cs),
(159,603,o),
(203,627,o),
(236,627,cs),
(287,627,o),
(307,600,o),
(326,561,cs),
(335,543,o),
(352,525,o),
(373,525,cs),
(400,525,o),
(424,549,o),
(424,574,cs),
(424,591,o),
(414,607,o),
(401,616,c),
(379,636,o),
(353,665,o),
(263,665,cs),
(212,665,o),
(174,647,o),
(147,616,cs),
(106,571,o),
(88,499,o),
(85,417,cs),
(84,382,o),
(84,237,o),
(85,69,cs),
(85,56,o),
(58,35,o),
(20,18,c),
(20,0,l)
);
},
{
closed = 1;
nodes = (
(417,395,l),
(91,384,l),
(15,359,l),
(15,349,l),
(417,332,l)
);
},
{
closed = 1;
nodes = (
(497,0,l),
(497,18,l),
(456,32,o),
(432,39,o),
(431,68,cs),
(429,148,o),
(429,229,o),
(431,309,cs),
(433,388,l),
(418,395,l),
(299,387,l),
(299,376,l),
(318,368,o),
(358,355,o),
(359,333,cs),
(362,258,o),
(362,143,o),
(359,68,cs),
(358,39,o),
(335,32,o),
(294,18,c),
(294,0,l)
);
}
);
width = 504;
}
);
metricLeft = f;
metricRight = i;
},
{
glyphname = f_l;
lastChange = "2025-01-08 19:27:58 +0000";
layers = (
{
color = 10;
layerId = m005;
shapes = (
{
closed = 1;
nodes = (
(20,0,l),
(253,0,l),
(253,18,l),
(199,31,o),
(162,31,o),
(160,69,cs),
(155,163,o),
(143,354,o),
(155,499,cs),
(160,560,o),
(157,627,o),
(226,627,cs),
(249,627,o),
(278,622,o),
(295,616,cs),
(330,603,o),
(407,605,o),
(385,628,cs),
(367,646,o),
(304,665,o),
(263,665,cs),
(205,665,o),
(170,644,o),
(132,603,cs),
(90,559,o),
(89,522,o),
(85,417,cs),
(84,385,o),
(84,221,o),
(85,69,cs),
(85,30,o),
(52,32,o),
(20,18,c)
);
},
{
closed = 1;
nodes = (
(300,334,l),
(300,389,l),
(91,384,l),
(15,359,l),
(15,349,l)
);
},
{
pos = (287,0);
ref = l;
}
);
width = 504;
}
);
metricLeft = f;
metricRight = l;
},
{
glyphname = s_t;
lastChange = "2025-01-08 19:27:58 +0000";
layers = (
{
color = 10;
layerId = m005;
shapes = (
{
ref = s;
},
{
pos = (342,0);
ref = t;
},
{
closed = 1;
nodes = (
(500,466,l),
(500,546,o),
(438,603,o),
(357,603,cs),
(276,603,o),
(219,546,o),
(219,465,cs),
(219,419,o),
(237,381,o),
(267,356,c),
(289,376,l),
(262,396,o),
(246,426,o),
(246,465,cs),
(246,529,o),
(292,575,o),
(357,575,cs),
(421,575,o),
(476,529,o),
(476,465,cs),
(476,455,o),
(475,446,o),
(473,437,c)
);
}
);
width = 630;
}
);
metricLeft = s;
metricRight = t;
},
{
glyphname = zero;
lastChange = "2025-01-10 04:52:19 +0000";
layers = (
{
hints = (
{
horizontal = 1;
place = (414,37);
type = Stem;
},
{
horizontal = 1;
place = (-8,37);
type = Stem;
},
{
place = (402,84);
type = Stem;
},
{
place = (34,84);
type = Stem;
}
);
layerId = m005;
shapes = (
{
closed = 1;
nodes = (
(378,-11,o),
(468,89,o),
(468,230,cs),
(468,359,o),
(378,451,o),
(250,451,cs),
(124,451,o),
(36,359,o),
(36,230,cs),
(36,89,o),
(124,-11,o),
(250,-11,cs)
);
},
{
closed = 1;
nodes = (
(301,22,o),
(208,55,o),
(140,153,cs),
(81,238,o),
(79,330,o),
(135,370,cs),
(202,417,o),
(292,392,o),
(352,303,cs),
(418,208,o),
(424,109,o),
(366,68,cs)
);
}
);
width = 504;
}
);
unicode = 48;
},
{
glyphname = one;
lastChange = "2025-01-10 04:51:09 +0000";
layers = (
{
hints = (
{
horizontal = 1;
place = (415,33);
type = Stem;
},
{
horizontal = 1;
place = (0,34);
type = Stem;
},
{
place = (119,75);
type = Stem;
}
);
layerId = m005;
shapes = (
{
closed = 1;
nodes = (
(288,0,l),
(288,24,l),
(270,28,o),
(246,37,o),
(235,45,cs),
(220,56,o),
(208,82,o),
(208,103,cs),
(208,137,o),
(208,209,o),
(208,284,cs),
(208,336,o),
(212,410,o),
(218,451,c),
(36,401,l),
(36,373,l),
(92,373,o),
(136,349,o),
(136,318,cs),
(136,257,o),
(136,107,o),
(136,84,cs),
(136,75,o),
(124,59,o),
(108,48,cs),
(97,39,o),
(70,29,o),
(48,25,c),
(48,0,l)
);
}
);
width = 306;
}
);
unicode = 49;
},
{
glyphname = two;
lastChange = "2025-01-10 04:26:42 +0000";
layers = (
{
hints = (
{
horizontal = 1;
place = (392,61);
type = Stem;
},
{
horizontal = 1;
place = (0,65);
type = Stem;
},
{
place = (247,92);
type = Stem;
}
);
layerId = m005;
shapes = (
{
closed = 1;
nodes = (
(367,0,l),
(415,99,l),
(73,68,l),
(76,41,l),
(227,163,o),
(346,244,o),
(346,331,cs),
(346,418,o),
(286,451,o),
(211,451,cs),
(137,451,o),
(76,401,o),
(49,360,c),
(76,340,l),
(109,371,o),
(148,389,o),
(175,389,cs),
(222,389,o),
(255,354,o),
(255,315,cs),
(255,263,o),
(203,194,o),
(130,131,cs),
(0,18,l),
(6,0,l)
);
}
);
width = 432;
}
);
unicode = 50;
},
{
glyphname = three;
lastChange = "2025-01-10 04:34:24 +0000";
layers = (
{
hints = (
{
horizontal = 1;
place = (387,62);
type = Stem;
},
{
horizontal = 1;
place = (145,47);
type = Stem;
},
{
horizontal = 1;
place = (-238,77);
type = Stem;
},
{
place = (213,88);
type = Stem;
}
);
layerId = m005;
shapes = (
{
closed = 1;
nodes = (
(192,-194,o),
(312,-58,o),
(312,69,cs),
(312,140,o),
(267,190,o),
(203,190,cs),
(177,190,o),
(141,181,o),
(116,169,cs),
(142,184,o),
(121,180,o),
(65,161,c),
(81,131,l),
(97,139,o),
(123,145,o),
(143,145,cs),
(196,145,o),
(234,101,o),
(234,38,cs),
(234,-45,o),
(143,-149,o),
(15,-200,c),
(23,-233,l)
);
},
{
closed = 1;
nodes = (
(92,138,o),
(111,165,o),
(133,176,cs),
(221,221,o),
(293,297,o),
(293,359,cs),
(293,413,o),
(242,451,o),
(185,451,cs),
(140,451,o),
(79,416,o),
(37,366,c),
(53,344,l),
(81,370,o),
(127,389,o),
(154,389,cs),
(184,389,o),
(206,364,o),
(206,329,cs),
(206,282,o),
(148,213,o),
(65,161,c),
(81,131,l)
);
}
);
width = 342;
}
);
unicode = 51;
},
{
glyphname = four;
lastChange = "2025-01-10 04:26:39 +0000";
layers = (
{
hints = (
{
horizontal = 1;
place = (0,54);
type = Stem;
},
{
horizontal = 1;
place = (420,21);
target = up;
type = BottomGhost;
},
{
place = (309,77);
type = Stem;
}
);
layerId = m005;
shapes = (
{
closed = 1;
nodes = (
(387,-200,l),
(387,440,l),
(347,440,l),
(26,44,l),
(26,0,l),
(173,0,o),
(320,-6,o),
(467,-10,c),
(467,66,l),
(330,63,o),
(192,60,o),
(55,60,c),
(58,29,l),
(344,379,l),
(317,357,l),
(307,171,o),
(307,-14,o),
(307,-200,c)
);
}
);
width = 486;
}
);
unicode = 52;
},
{
glyphname = five;
lastChange = "2025-01-10 04:34:10 +0000";
layers = (
{
hints = (
{
horizontal = 1;
place = (376,68);
type = Stem;
},
{
place = (188,77);
type = Stem;
}
);
layerId = m005;
shapes = (
{
closed = 1;
nodes = (
(180,-179,o),
(295,-54,o),
(295,63,cs),
(295,161,o),
(203,262,o),
(73,307,c),
(72,274,l),
(124,411,l),
(86,373,l),
(332,363,l),
(368,440,l),
(104,440,l),
(36,257,l),
(146,192,o),
(223,99,o),
(223,31,cs),
(223,-48,o),
(131,-142,o),
(0,-203,c),
(17,-238,l)
);
}
);
width = 378;
}
);
unicode = 53;
},
{
glyphname = six;
lastChange = "2025-01-10 04:34:31 +0000";
layers = (
{
hints = (
{
horizontal = 1;
place = (317,50);
type = Stem;
},
{
horizontal = 1;
place = (-5,36);
type = Stem;
},
{
horizontal = 1;
place = (685,21);
target = up;
type = BottomGhost;
},
{
place = (347,80);
type = Stem;
},
{
place = (37,87);
type = Stem;
}
);
layerId = m005;
shapes = (
{
closed = 1;
nodes = (
(350,-11,o),
(433,74,o),
(433,195,cs),
(433,299,o),
(358,373,o),
(259,373,cs),
(223,373,o),
(182,357,o),
(160,335,c),
(176,312,l),
(188,321,o),
(210,328,o),
(228,328,cs),
(299,328,o),
(349,263,o),
(349,171,cs),
(349,88,o),
(303,29,o),
(239,29,cs),
(172,29,o),
(124,129,o),
(124,270,cs),
(124,439,o),
(267,597,o),
(470,666,c),
(454,710,l),
(212,626,o),
(40,433,o),
(40,238,cs),
(40,92,o),
(123,-11,o),
(240,-11,cs)
);
}
);
width = 468;
}
);
unicode = 54;
},
{
glyphname = seven;
lastChange = "2025-01-10 04:34:35 +0000";
layers = (
{
hints = (
{
horizontal = 1;
place = (375,66);
type = Stem;
}
);
layerId = m005;
shapes = (
{
closed = 1;
nodes = (
(128,-244,l),
(488,444,l),
(67,444,l),
(27,344,l),
(423,372,l),
(413,410,l),
(86,-213,l)
);
}
);
width = 468;
}
);
unicode = 55;
},
{
glyphname = eight;
lastChange = "2025-01-10 04:26:33 +0000";
layers = (
{
hints = (
{
horizontal = 1;
place = (659,47);
type = Stem;
},
{
horizontal = 1;
place = (-9,38);
type = Stem;
},
{
place = (303,64);
type = Stem;
},
{
place = (28,73);
type = Stem;
}
);
layerId = m005;
shapes = (
{
closed = 1;
nodes = (
(320,-11,o),
(396,66,o),
(396,175,c),
(396,344,o),
(130,421,o),
(130,553,cs),
(130,626,o),
(165,676,o),
(218,676,c),
(218,716,l),
(124,716,o),
(58,635,o),
(58,521,cs),
(58,344,o),
(326,255,o),
(326,145,c),
(326,77,o),
(279,29,o),
(212,29,c),
(212,-11,l)
);
},
{
closed = 1;
nodes = (
(212,29,l),
(151,29,o),
(108,86,o),
(108,167,cs),
(108,232,o),
(150,305,o),
(210,344,c),
(181,361,l),
(97,309,o),
(38,222,o),
(38,137,cs),
(38,50,o),
(110,-11,o),
(212,-11,c)
);
},
{
closed = 1;
nodes = (
(218,676,l),
(279,676,o),
(312,619,o),
(312,538,cs),
(312,473,o),
(270,410,o),
(210,371,c),
(239,354,l),
(323,406,o),
(382,483,o),
(382,568,cs),
(382,655,o),
(320,716,o),
(218,716,c)
);
}
);
width = 432;
}
);
unicode = 56;
},
{
glyphname = nine;
lastChange = "2025-01-10 04:34:41 +0000";
layers = (
{
hints = (
{
horizontal = 1;
place = (411,37);
type = Stem;
},
{
horizontal = 1;
place = (82,51);
type = Stem;
},
{
place = (331,87);
type = Stem;
},
{
place = (33,79);
type = Stem;
}
);
layerId = m005;
shapes = (
{
closed = 1;
nodes = (
(126,451,o),
(43,373,o),
(43,262,cs),
(43,166,o),
(118,99,o),
(217,99,cs),
(253,99,o),
(294,113,o),
(316,133,c),
(300,154,l),
(288,146,o),
(266,140,o),
(248,140,cs),
(177,140,o),
(127,199,o),
(127,284,cs),
(127,360,o),
(173,414,o),
(237,414,cs),
(304,414,o),
(352,322,o),
(352,193,cs),
(352,38,o),
(209,-134,o),
(6,-198,c),
(22,-238,l),
(264,-161,o),
(436,43,o),
(436,222,cs),
(436,356,o),
(353,451,o),
(236,451,cs)
);
}
);
width = 468;
}
);
unicode = 57;
},
{
glyphname = zero.bsf;
lastChange = "2025-01-10 04:23:43 +0000";
layers = (
{
color = 4;
layerId = m005;
shapes = (
{
closed = 1;
nodes = (
(363,-11,o),
(450,81,o),
(450,212,cs),
(450,343,o),
(363,435,o),
(243,435,cs),
(120,435,o),
(36,344,o),
(36,213,cs),
(36,82,o),
(120,-11,o),
(243,-11,cs)
);
},
{
closed = 1;
nodes = (
(166,17,o),
(124,86,o),
(124,210,cs),
(124,337,o),
(166,407,o),
(243,407,cs),
(317,407,o),
(362,339,o),
(362,217,cs),
(362,88,o),
(317,17,o),
(243,17,cs)
);
}
);
width = 486;
}
);
},
{
glyphname = one.bsf;
lastChange = "2025-01-10 04:24:24 +0000";
layers = (
{
background = {
shapes = (
{
closed = 0;
nodes = (
(215,68,ls),
(213,39,o),
(191,32,o),
(150,18,c),
(150,0,l),
(353,0,l),
(353,18,l),
(312,32,o),
(287,39,o),
(287,68,cs)
);
}
);
};
color = 1;
layerId = m005;
shapes = (
{
closed = 1;
nodes = (
(373,0,l),
(373,20,l),
(324,39,o),
(293,25,o),
(291,89,cs),
(286,264,o),
(286,268,o),
(298,443,c),
(276,449,l),
(80,381,l),
(88,346,l),
(252,369,l),
(212,389,l),
(216,236,o),
(218,127,o),
(215,89,cs),
(210,25,o),
(194,39,o),
(132,20,c),
(132,0,l)
);
}
);
width = 486;
}
);
},
{
glyphname = two.bsf;
lastChange = "2025-01-10 04:23:47 +0000";
layers = (
{
background = {
shapes = (
{
closed = 1;
nodes = (
(101,439,o),
(26,397,o),
(26,338,cs),
(26,314,o),
(48,297,o),
(80,297,cs),
(108,297,o),
(127,310,o),
(127,329,cs),
(127,344,o),
(96,338,o),
(96,360,cs),
(96,390,o),
(135,411,o),
(190,411,c),
(207,439,l)
);
},
{
closed = 1;
nodes = (
(414,0,l),
(430,118,l),
(414,118,l),
(412,103,o),
(397,73,o),
(390,73,c)
);
}
);
};
color = 4;
layerId = m005;
shapes = (
{
closed = 1;
nodes = (
(407,0,l),
(432,134,l),
(409,134,l),
(401,109,o),
(377,74,o),
(361,73,cs),
(67,55,l),
(75,49,l),
(73,127,o),
(400,143,o),
(406,312,cs),
(409,386,o),
(324,439,o),
(207,439,c),
(208,399,l),
(271,399,o),
(318,363,o),
(318,311,cs),
(318,193,o),
(18,127,o),
(18,49,c),
(18,0,l)
);
},
{
closed = 1;
nodes = (
(101,439,o),
(26,379,o),
(26,295,cs),
(26,260,o),
(48,236,o),
(80,236,cs),
(108,236,o),
(127,255,o),
(127,282,cs),
(127,303,o),
(96,295,o),
(96,326,cs),
(96,369,o),
(142,399,o),
(208,399,c),
(207,439,l)
);
}
);
width = 468;
}
);
},
{
glyphname = three.bsf;
lastChange = "2025-01-10 04:23:57 +0000";
layers = (
{
background = {
shapes = (
{
closed = 1;
nodes = (
(41,472,o),
(50,439,o),
(68,421,cs),
(91,399,o),
(160,461,o),
(139,484,cs),
(130,495,o),
(113,499,o),
(100,508,cs),
(89,517,o),
(82,526,o),
(82,549,c),
(41,513,l)
);
}
);
};
color = 4;
layerId = m005;
shapes = (
{
closed = 1;
nodes = (
(342,-199,o),
(432,-130,o),
(432,-32,cs),
(432,62,o),
(357,128,o),
(254,128,c),
(253,123,l),
(346,123,o),
(414,194,o),
(414,294,cs),
(414,379,o),
(339,439,o),
(235,439,c),
(218,399,l),
(279,399,o),
(326,352,o),
(326,286,cs),
(326,203,o),
(256,144,o),
(164,144,c),
(164,105,l),
(267,105,o),
(344,52,o),
(344,-22,cs),
(344,-102,o),
(286,-159,o),
(211,-159,cs),
(150,-159,o),
(106,-129,o),
(106,-86,cs),
(106,-55,o),
(137,-63,o),
(137,-42,cs),
(137,-15,o),
(118,4,o),
(90,4,cs),
(58,4,o),
(36,-20,o),
(36,-55,cs),
(36,-139,o),
(111,-199,o),
(217,-199,cs)
);
},
{
closed = 1;
nodes = (
(129,439,o),
(54,379,o),
(54,295,cs),
(54,260,o),
(76,236,o),
(108,236,cs),
(136,236,o),
(155,255,o),
(155,282,cs),
(155,303,o),
(124,295,o),
(124,326,cs),
(124,369,o),
(157,399,o),
(218,399,c),
(235,439,l)
);
}
);
width = 486;
}
);
},
{
glyphname = four.bsf;
lastChange = "2025-01-10 04:23:52 +0000";
layers = (
{
color = 4;
guides = (
{
pos = (339,-171);
}
);
layerId = m005;
shapes = (
{
closed = 1;
nodes = (
(373,-171,l),
(373,460,l),
(276,435,l),
(18,0,l),
(486,0,l),
(486,60,l),
(74,60,l),
(85,44,l),
(313,418,l),
(301,420,l),
(295,257,o),
(295,-149,o),
(293,-171,c)
);
}
);
width = 522;
}
);
},
{
glyphname = five.bsf;
lastChange = "2025-01-10 04:24:19 +0000";
layers = (
{
background = {
shapes = (
{
closed = 1;
nodes = (
(369,-11,o),
(463,81,o),
(463,210,cs),
(463,318,o),
(383,395,o),
(269,395,cs),
(158,395,o),
(80,310,o),
(80,190,c),
(118,208,l),
(118,294,o),
(174,354,o),
(252,354,cs),
(323,354,o),
(373,291,o),
(373,201,cs),
(373,100,o),
(323,29,o),
(252,29,cs),
(174,29,o),
(118,103,o),
(118,208,cs),
(118,373,o),
(229,534,o),
(386,597,c),
(368,642,l),
(170,563,o),
(30,383,o),
(30,208,cs),
(30,80,o),
(115,-11,o),
(236,-11,cs)
);
}
);
};
color = 4;
layerId = m005;
shapes = (
{
closed = 1;
nodes = (
(355,-188,o),
(450,-94,o),
(450,39,cs),
(450,143,o),
(372,217,o),
(274,217,cs),
(202,217,o),
(145,183,o),
(124,144,c),
(135,144,l),
(160,395,l),
(143,376,l),
(397,367,l),
(421,501,l),
(405,501,l),
(401,475,o),
(383,440,o),
(373,440,c),
(119,439,l),
(87,111,l),
(141,113,l),
(157,146,o),
(199,176,o),
(254,176,cs),
(311,176,o),
(362,111,o),
(362,20,cs),
(362,-78,o),
(308,-148,o),
(246,-148,c),
(233,-188,l)
);
},
{
closed = 1;
nodes = (
(246,-148,l),
(185,-148,o),
(142,-118,o),
(142,-75,cs),
(142,-44,o),
(173,-52,o),
(173,-31,cs),
(173,-4,o),
(154,15,o),
(126,15,cs),
(94,15,o),
(72,-9,o),
(72,-44,cs),
(72,-128,o),
(139,-188,o),
(233,-188,c)
);
},
{
closed = 1;
nodes = (
(397,367,l),
(422,501,l),
(399,501,l),
(391,475,o),
(366,441,o),
(351,440,c)
);
}
);
width = 522;
}
);
},
{
glyphname = six.bsf;
lastChange = "2025-01-10 04:24:00 +0000";
layers = (
{
color = 4;
layerId = m005;
shapes = (
{
closed = 1;
nodes = (
(374,-11,o),
(468,81,o),
(468,210,cs),
(468,318,o),
(388,395,o),
(274,395,cs),
(163,395,o),
(84,310,o),
(84,190,c),
(122,208,l),
(122,294,o),
(179,354,o),
(257,354,cs),
(328,354,o),
(380,291,o),
(380,201,cs),
(380,100,o),
(328,29,o),
(257,29,cs),
(179,29,o),
(122,103,o),
(122,208,cs),
(122,373,o),
(234,534,o),
(391,597,c),
(373,642,l),
(175,563,o),
(36,383,o),
(36,208,cs),
(36,80,o),
(120,-11,o),
(241,-11,cs)
);
}
);
width = 504;
}
);
},
{
glyphname = seven.bsf;
lastChange = "2025-01-10 04:24:15 +0000";
layers = (
{
color = 4;
layerId = m005;
shapes = (
{
closed = 1;
nodes = (
(238,-177,l),
(281,75,o),
(364,318,o),
(486,411,c),
(470,439,l),
(36,439,l),
(55,273,l),
(82,277,l),
(71,334,o),
(90,369,o),
(122,369,cs),
(401,369,l),
(403,392,l),
(259,214,o),
(174,-22,o),
(149,-177,c)
);
}
);
width = 504;
}
);
},
{
glyphname = eight.bsf;
lastChange = "2025-01-10 04:24:04 +0000";
layers = (
{
color = 4;
layerId = m005;
shapes = (
{
closed = 1;
nodes = (
(377,-11,o),
(468,66,o),
(468,176,cs),
(468,270,o),
(379,337,o),
(259,337,cs),
(136,337,o),
(54,268,o),
(54,171,cs),
(54,64,o),
(134,-11,o),
(254,-11,cs)
);
},
{
closed = 1;
nodes = (
(192,29,o),
(142,89,o),
(142,174,cs),
(142,247,o),
(189,299,o),
(259,299,cs),
(326,299,o),
(380,246,o),
(380,170,cs),
(380,87,o),
(329,29,o),
(266,29,cs)
);
},
{
closed = 1;
nodes = (
(364,303,o),
(440,375,o),
(440,476,cs),
(440,564,o),
(363,626,o),
(260,626,cs),
(149,626,o),
(76,560,o),
(76,466,cs),
(76,371,o),
(151,303,o),
(263,303,cs)
);
},
{
closed = 1;
nodes = (
(194,340,o),
(156,394,o),
(156,470,cs),
(156,538,o),
(192,586,o),
(250,586,cs),
(312,586,o),
(360,538,o),
(360,470,cs),
(360,394,o),
(314,340,o),
(255,340,cs)
);
}
);
width = 522;
}
);
},
{
glyphname = nine.bsf;
lastChange = "2025-01-10 04:24:11 +0000";
layers = (
{
background = {
shapes = (
{
closed = 1;
nodes = (
(148,627,o),
(54,535,o),
(54,406,cs),
(54,298,o),
(134,221,o),
(248,221,cs),
(359,221,o),
(437,306,o),
(437,426,c),
(399,408,l),
(399,322,o),
(343,262,o),
(265,262,cs),
(194,262,o),
(144,325,o),
(144,415,cs),
(144,516,o),
(194,587,o),
(265,587,cs),
(343,587,o),
(399,513,o),
(399,408,cs),
(399,243,o),
(288,82,o),
(131,19,c),
(149,-26,l),
(347,53,o),
(487,233,o),
(487,408,cs),
(487,536,o),
(402,627,o),
(281,627,cs)
);
}
);
};
color = 4;
layerId = m005;
shapes = (
{
closed = 1;
nodes = (
(147,439,o),
(54,347,o),
(54,218,cs),
(54,110,o),
(133,33,o),
(247,33,cs),
(358,33,o),
(438,118,o),
(438,238,c),
(400,220,l),
(400,134,o),
(342,74,o),
(264,74,cs),
(193,74,o),
(142,137,o),
(142,227,cs),
(142,328,o),
(193,399,o),
(264,399,cs),
(342,399,o),
(400,325,o),
(400,220,cs),
(400,55,o),
(287,-106,o),
(131,-169,c),
(149,-214,l),
(346,-135,o),
(486,45,o),
(486,220,cs),
(486,348,o),
(401,439,o),
(280,439,cs)
);
}
);
width = 540;
},
{
associatedMasterId = m005;
background = {
shapes = (
{
closed = 1;
nodes = (
(182,627,o),
(88,535,o),
(88,406,cs),
(88,298,o),
(168,221,o),
(282,221,cs),
(393,221,o),
(471,306,o),
(471,426,c),
(433,408,l),
(433,322,o),
(377,262,o),
(299,262,cs),
(228,262,o),
(178,325,o),
(178,415,cs),
(178,516,o),
(228,587,o),
(299,587,cs),
(377,587,o),
(433,513,o),
(433,408,cs),
(433,243,o),
(322,82,o),
(165,19,c),
(183,-26,l),
(381,53,o),
(521,233,o),
(521,408,cs),
(521,536,o),
(436,627,o),
(315,627,cs)
);
}
);
};
layerId = "8880FCC1-7A68-4D74-A1C2-63291C007941";
name = "29. Dez. 24, 15:16";
shapes = (
{
closed = 1;
nodes = (
(384,48,o),
(523,228,o),
(523,397,cs),
(523,530,o),
(432,624,o),
(303,624,cs),
(174,624,o),
(83,530,o),
(83,397,cs),
(83,283,o),
(159,203,o),
(266,203,cs),
(397,203,o),
(489,263,o),
(489,347,c),
(441,351,l),
(441,290,o),
(385,246,o),
(305,246,cs),
(226,246,o),
(170,319,o),
(170,423,cs),
(170,517,o),
(224,584,o),
(301,584,cs),
(379,584,o),
(434,497,o),
(434,373,cs),
(434,211,o),
(326,66,o),
(173,21,c),
(187,-39,l)
);
}
);
width = 600;
}
);
},
{
glyphname = zero.btf;
lastChange = "2025-01-10 04:44:37 +0000";
layers = (
{
layerId = m005;
shapes = (
{
closed = 1;
nodes = (
(442,-11,o),
(539,121,o),
(539,308,cs),
(539,495,o),
(442,627,o),
(305,627,cs),
(159,627,o),
(55,496,o),
(55,310,cs),
(55,122,o),
(159,-11,o),
(305,-11,cs)
);
},
{
closed = 1;
nodes = (
(194,85,o),
(98,185,o),
(98,330,cs),
(98,449,o),
(174,531,o),
(281,531,cs),
(407,531,o),
(496,432,o),
(496,288,cs),
(496,167,o),
(427,85,o),
(329,85,cs)
);
}
);
width = 594;
},
{
associatedMasterId = m005;
layerId = "60AE473C-F1EF-4626-9DDE-73952520C9B0";
name = "9. Jan. 25, 20:25";
shapes = (
{
closed = 1;
nodes = (
(442,-11,o),
(539,121,o),
(539,308,cs),
(539,495,o),
(442,627,o),
(305,627,cs),
(159,627,o),
(55,496,o),
(55,310,cs),
(55,122,o),
(159,-11,o),
(305,-11,cs)
);
},
{
closed = 1;
nodes = (
(211,29,o),
(145,143,o),
(145,305,cs),
(145,470,o),
(211,587,o),
(305,587,cs),
(389,587,o),
(449,474,o),
(449,315,cs),
(449,147,o),
(389,29,o),
(305,29,cs)
);
}
);
width = 594;
}
);
},
{
glyphname = one.btf;
lastChange = "2025-01-10 04:45:14 +0000";
layers = (
{
background = {
shapes = (
{
closed = 0;
nodes = (
(371,553,l),
(372,635,l),
(357,641,l),
(238,600,l)
);
}
);
};
layerId = m005;
shapes = (
{
closed = 1;
nodes = (
(465,0,l),
(465,20,l),
(416,31,o),
(343,31,o),
(341,103,cs),
(337,278,o),
(337,460,o),
(348,635,c),
(328,641,l),
(131,573,l),
(139,538,l),
(304,561,l),
(263,581,l),
(267,428,o),
(269,132,o),
(266,94,cs),
(261,32,o),
(197,37,o),
(135,20,c),
(135,0,l)
);
}
);
width = 594;
}
);
},
{
glyphname = two.btf;
lastChange = "2025-01-10 04:45:11 +0000";
layers = (
{
background = {
shapes = (
{
closed = 1;
nodes = (
(496,0,l),
(521,134,l),
(498,134,l),
(490,109,o),
(466,74,o),
(450,73,cs),
(150,55,l),
(158,49,l),
(156,127,o),
(489,143,o),
(489,312,cs),
(489,386,o),
(407,439,o),
(290,439,c),
(291,399,l),
(354,399,o),
(399,363,o),
(399,311,cs),
(399,193,o),
(101,127,o),
(101,49,c),
(101,0,l)
);
},
{
closed = 1;
nodes = (
(184,439,o),
(109,379,o),
(109,295,cs),
(109,260,o),
(131,236,o),
(163,236,cs),
(191,236,o),
(210,255,o),
(210,282,cs),
(210,303,o),
(179,295,o),
(179,326,cs),
(179,369,o),
(225,399,o),
(291,399,c),
(290,439,l)
);
}
);
};
guides = (
{
angle = 160;
lockAngle = 1;
pos = (609,-25);
},
{
angle = 160;
lockAngle = 1;
pos = (364,-93);
},
{
angle = 70;
pos = (340,-12);
},
{
angle = 70;
pos = (-32,121);
},
{
angle = 70;
pos = (109,429);
},
{
angle = 160;
lockAngle = 1;
pos = (586,525);
},
{
angle = 160;
lockAngle = 1;
pos = (582,365);
},
{
angle = 70;
pos = (61,-264);
},
{
angle = 73.2591;
pos = (13,-285);
}
);
layerId = m005;
shapes = (
{
closed = 1;
nodes = (
(134,502,o),
(217,554,o),
(283,554,cs),
(340,554,o),
(362,516,o),
(362,436,cs),
(362,325,o),
(170,181,o),
(105,28,cs),
(84,-21,o),
(326,2,o),
(432,1,c),
(473,115,l),
(161,102,l),
(155,43,l),
(219,179,o),
(433,326,o),
(433,492,cs),
(433,582,o),
(390,627,o),
(304,627,cs),
(220,627,o),
(119,549,o),
(86,439,c),
(109,429,l)
);
}
);
width = 594;
},
{
associatedMasterId = m005;
background = {
shapes = (
{
closed = 1;
nodes = (
(496,0,l),
(521,134,l),
(498,134,l),
(490,109,o),
(466,74,o),
(450,73,cs),
(150,55,l),
(158,49,l),
(156,127,o),
(489,143,o),
(489,312,cs),
(489,386,o),
(407,439,o),
(290,439,c),
(291,399,l),
(354,399,o),
(399,363,o),
(399,311,cs),
(399,193,o),
(101,127,o),
(101,49,c),
(101,0,l)
);
},
{
closed = 1;
nodes = (
(184,439,o),
(109,379,o),
(109,295,cs),
(109,260,o),
(131,236,o),
(163,236,cs),
(191,236,o),
(210,255,o),
(210,282,cs),
(210,303,o),
(179,295,o),
(179,326,cs),
(179,369,o),
(225,399,o),
(291,399,c),
(290,439,l)
);
}
);
};
layerId = "49480446-0703-4247-935C-64FD8A4C9124";
name = "9. Jan. 25, 19:41";
shapes = (
{
closed = 1;
nodes = (
(498,0,l),
(509,164,l),
(488,164,l),
(472,112,o),
(443,77,o),
(418,75,cs),
(160,55,l),
(168,49,l),
(166,97,o),
(491,279,o),
(491,468,cs),
(491,566,o),
(417,627,o),
(300,627,c),
(283,587,l),
(357,587,o),
(401,543,o),
(401,468,cs),
(401,280,o),
(103,97,o),
(103,49,c),
(103,0,l)
);
},
{
closed = 1;
nodes = (
(194,627,o),
(119,567,o),
(119,483,cs),
(119,448,o),
(141,424,o),
(173,424,cs),
(201,424,o),
(220,443,o),
(220,470,cs),
(220,491,o),
(189,483,o),
(189,514,cs),
(189,557,o),
(228,587,o),
(283,587,c),
(300,627,l)
);
}
);
width = 594;
}
);
},
{
glyphname = three.btf;
lastChange = "2025-01-10 04:45:07 +0000";
layers = (
{
background = {
shapes = (
{
closed = 1;
nodes = (
(414,-11,o),
(504,58,o),
(504,156,cs),
(504,250,o),
(429,316,o),
(323,316,c),
(322,311,l),
(418,311,o),
(486,382,o),
(486,482,cs),
(486,567,o),
(411,627,o),
(304,627,c),
(287,587,l),
(351,587,o),
(396,540,o),
(396,474,cs),
(396,391,o),
(328,332,o),
(233,332,c),
(233,293,l),
(339,293,o),
(414,240,o),
(414,166,cs),
(414,86,o),
(358,29,o),
(280,29,cs),
(219,29,o),
(175,59,o),
(175,102,cs),
(175,133,o),
(206,125,o),
(206,146,cs),
(206,173,o),
(187,192,o),
(159,192,cs),
(127,192,o),
(105,168,o),
(105,133,cs),
(105,49,o),
(180,-11,o),
(286,-11,cs)
);
},
{
closed = 1;
nodes = (
(198,627,o),
(123,567,o),
(123,483,cs),
(123,448,o),
(145,424,o),
(177,424,cs),
(205,424,o),
(224,443,o),
(224,470,cs),
(224,491,o),
(193,483,o),
(193,514,cs),
(193,557,o),
(226,587,o),
(287,587,c),
(304,627,l)
);
}
);
};
layerId = m005;
shapes = (
{
closed = 1;
nodes = (
(418,-11,o),
(508,58,o),
(508,156,cs),
(508,250,o),
(433,316,o),
(327,316,c),
(326,311,l),
(422,311,o),
(490,382,o),
(490,482,cs),
(490,567,o),
(415,627,o),
(308,627,c),
(291,587,l),
(355,587,o),
(400,540,o),
(400,474,cs),
(400,391,o),
(332,332,o),
(237,332,c),
(237,293,l),
(343,293,o),
(418,240,o),
(418,166,cs),
(418,86,o),
(362,29,o),
(284,29,cs),
(223,29,o),
(179,59,o),
(179,102,cs),
(179,133,o),
(210,125,o),
(210,146,cs),
(210,173,o),
(191,192,o),
(163,192,cs),
(131,192,o),
(109,168,o),
(109,133,cs),
(109,49,o),
(184,-11,o),
(290,-11,cs)
);
},
{
closed = 1;
nodes = (
(202,627,o),
(127,567,o),
(127,483,cs),
(127,448,o),
(149,424,o),
(181,424,cs),
(209,424,o),
(228,443,o),
(228,470,cs),
(228,491,o),
(197,483,o),
(197,514,cs),
(197,557,o),
(230,587,o),
(291,587,c),
(308,627,l)
);
}
);
width = 594;
}
);
},
{
glyphname = four.btf;
lastChange = "2025-01-10 04:45:03 +0000";
layers = (
{
background = {
shapes = (
{
closed = 1;
nodes = (
(478,0,l),
(478,24,l),
(432,32,o),
(401,46,o),
(401,73,cs),
(401,631,l),
(304,606,l),
(37,176,l),
(527,171,l),
(503,244,l),
(93,244,l),
(104,215,l),
(341,589,l),
(334,591,l),
(328,428,o),
(328,104,o),
(326,82,cs),
(322,30,o),
(270,33,o),
(238,25,c),
(238,0,l)
);
},
{
closed = 1;
nodes = (
(527,171,l),
(543,289,l),
(527,289,l),
(525,274,o),
(510,244,o),
(503,244,c)
);
}
);
};
layerId = m005;
shapes = (
{
closed = 1;
nodes = (
(410,0,l),
(410,631,l),
(313,606,l),
(46,171,l),
(523,171,l),
(523,231,l),
(102,231,l),
(113,215,l),
(350,589,l),
(338,591,l),
(332,428,o),
(332,22,o),
(330,0,c)
);
}
);
width = 594;
}
);
},
{
glyphname = five.btf;
lastChange = "2025-01-10 04:44:59 +0000";
layers = (
{
background = {
shapes = (
{
closed = 1;
nodes = (
(417,-11,o),
(512,83,o),
(512,216,cs),
(512,320,o),
(434,394,o),
(324,394,cs),
(252,394,o),
(195,360,o),
(174,321,c),
(185,321,l),
(210,572,l),
(193,553,l),
(459,544,l),
(475,662,l),
(459,662,l),
(455,636,o),
(445,617,o),
(435,617,c),
(169,616,l),
(137,288,l),
(191,290,l),
(207,323,o),
(249,353,o),
(304,353,cs),
(373,353,o),
(422,288,o),
(422,197,cs),
(422,99,o),
(370,29,o),
(296,29,c),
(283,-11,l)
);
},
{
closed = 1;
nodes = (
(296,29,l),
(235,29,o),
(192,59,o),
(192,102,cs),
(192,133,o),
(223,125,o),
(223,146,cs),
(223,173,o),
(204,192,o),
(176,192,cs),
(144,192,o),
(122,168,o),
(122,133,cs),
(122,49,o),
(189,-11,o),
(283,-11,c)
);
}
);
};
layerId = m005;
shapes = (
{
closed = 1;
nodes = (
(421,-11,o),
(516,83,o),
(516,216,cs),
(516,320,o),
(438,394,o),
(328,394,cs),
(256,394,o),
(199,360,o),
(178,321,c),
(189,321,l),
(214,572,l),
(197,553,l),
(463,544,l),
(487,678,l),
(471,678,l),
(467,652,o),
(449,617,o),
(439,617,c),
(173,616,l),
(141,288,l),
(195,290,l),
(211,323,o),
(253,353,o),
(308,353,cs),
(377,353,o),
(426,288,o),
(426,197,cs),
(426,99,o),
(374,29,o),
(300,29,c),
(287,-11,l)
);
},
{
closed = 1;
nodes = (
(300,29,l),
(239,29,o),
(196,59,o),
(196,102,cs),
(196,133,o),
(227,125,o),
(227,146,cs),
(227,173,o),
(208,192,o),
(180,192,cs),
(148,192,o),
(126,168,o),
(126,133,cs),
(126,49,o),
(193,-11,o),
(287,-11,c)
);
},
{
closed = 1;
nodes = (
(463,544,l),
(488,678,l),
(465,678,l),
(457,652,o),
(432,618,o),
(417,617,c)
);
}
);
width = 594;
}
);
},
{
glyphname = six.btf;
lastChange = "2025-01-10 04:44:55 +0000";
layers = (
{
background = {
shapes = (
{
closed = 1;
nodes = (
(419,-11,o),
(513,81,o),
(513,210,cs),
(513,318,o),
(433,395,o),
(319,395,cs),
(208,395,o),
(130,310,o),
(130,190,c),
(168,208,l),
(168,294,o),
(224,354,o),
(302,354,cs),
(373,354,o),
(423,291,o),
(423,201,cs),
(423,100,o),
(373,29,o),
(302,29,cs),
(224,29,o),
(168,103,o),
(168,208,cs),
(168,373,o),
(279,534,o),
(436,597,c),
(418,642,l),
(220,563,o),
(80,383,o),
(80,208,cs),
(80,80,o),
(165,-11,o),
(286,-11,cs)
);
}
);
};
layerId = m005;
shapes = (
{
closed = 1;
nodes = (
(423,-11,o),
(517,81,o),
(517,210,cs),
(517,318,o),
(437,395,o),
(323,395,cs),
(212,395,o),
(134,310,o),
(134,190,c),
(172,208,l),
(172,294,o),
(228,354,o),
(306,354,cs),
(377,354,o),
(427,291,o),
(427,201,cs),
(427,100,o),
(377,29,o),
(306,29,cs),
(228,29,o),
(172,103,o),
(172,208,cs),
(172,373,o),
(283,534,o),
(440,597,c),
(422,642,l),
(224,563,o),
(84,383,o),
(84,208,cs),
(84,80,o),
(169,-11,o),
(290,-11,cs)
);
}
);
width = 594;
}
);
},
{
glyphname = seven.btf;
lastChange = "2025-01-10 04:44:51 +0000";
layers = (
{
background = {
shapes = (
{
closed = 1;
nodes = (
(293,0,l),
(337,252,o),
(420,495,o),
(542,588,c),
(526,616,l),
(91,616,l),
(121,452,l),
(158,462,l),
(149,511,o),
(157,546,o),
(190,546,cs),
(457,546,l),
(459,569,l),
(315,391,o),
(229,155,o),
(204,0,c)
);
}
);
};
layerId = m005;
shapes = (
{
closed = 1;
nodes = (
(297,-1,l),
(341,251,o),
(424,494,o),
(546,587,c),
(530,615,l),
(95,615,l),
(114,449,l),
(141,453,l),
(130,510,o),
(149,545,o),
(181,545,cs),
(461,545,l),
(463,568,l),
(319,390,o),
(233,154,o),
(208,-1,c)
);
}
);
width = 594;
}
);
},
{
glyphname = eight.btf;
lastChange = "2025-01-10 04:44:48 +0000";
layers = (
{
background = {
shapes = (
{
closed = 1;
nodes = (
(424,-11,o),
(515,66,o),
(515,176,cs),
(515,270,o),
(426,337,o),
(300,337,cs),
(177,337,o),
(90,268,o),
(90,171,cs),
(90,64,o),
(175,-11,o),
(295,-11,cs)
);
},
{
closed = 1;
nodes = (
(233,29,o),
(180,89,o),
(180,174,cs),
(180,247,o),
(230,299,o),
(300,299,cs),
(373,299,o),
(425,246,o),
(425,170,cs),
(425,87,o),
(376,29,o),
(307,29,cs)
);
},
{
closed = 1;
nodes = (
(411,303,o),
(487,375,o),
(487,476,cs),
(487,564,o),
(410,626,o),
(301,626,cs),
(190,626,o),
(112,560,o),
(112,466,cs),
(112,371,o),
(192,303,o),
(304,303,cs)
);
},
{
closed = 1;
nodes = (
(235,340,o),
(192,394,o),
(192,470,cs),
(192,538,o),
(233,586,o),
(291,586,cs),
(359,586,o),
(407,538,o),
(407,470,cs),
(407,394,o),
(361,340,o),
(296,340,cs)
);
}
);
};
layerId = m005;
shapes = (
{
closed = 1;
nodes = (
(428,-11,o),
(519,66,o),
(519,176,cs),
(519,270,o),
(430,337,o),
(304,337,cs),
(181,337,o),
(94,268,o),
(94,171,cs),
(94,64,o),
(179,-11,o),
(299,-11,cs)
);
},
{
closed = 1;
nodes = (
(237,29,o),
(184,89,o),
(184,174,cs),
(184,247,o),
(234,299,o),
(304,299,cs),
(377,299,o),
(429,246,o),
(429,170,cs),
(429,87,o),
(380,29,o),
(311,29,cs)
);
},
{
closed = 1;
nodes = (
(415,303,o),
(491,375,o),
(491,476,cs),
(491,564,o),
(414,626,o),
(305,626,cs),
(194,626,o),
(116,560,o),
(116,466,cs),
(116,371,o),
(196,303,o),
(308,303,cs)
);
},
{
closed = 1;
nodes = (
(239,340,o),
(196,394,o),
(196,470,cs),
(196,538,o),
(237,586,o),
(295,586,cs),
(363,586,o),
(411,538,o),
(411,470,cs),
(411,394,o),
(365,340,o),
(300,340,cs)
);
}
);
width = 594;
}
);
},
{
glyphname = nine.btf;
lastChange = "2025-01-10 04:44:44 +0000";
layers = (
{
background = {
shapes = (
{
closed = 1;
nodes = (
(182,627,o),
(88,535,o),
(88,406,cs),
(88,298,o),
(168,221,o),
(282,221,cs),
(393,221,o),
(471,306,o),
(471,426,c),
(433,408,l),
(433,322,o),
(377,262,o),
(299,262,cs),
(228,262,o),
(178,325,o),
(178,415,cs),
(178,516,o),
(228,587,o),
(299,587,cs),
(377,587,o),
(433,513,o),
(433,408,cs),
(433,243,o),
(322,82,o),
(165,19,c),
(183,-26,l),
(381,53,o),
(521,233,o),
(521,408,cs),
(521,536,o),
(436,627,o),
(315,627,cs)
);
},
{
closed = 1;
nodes = (
(182,627,o),
(88,535,o),
(88,406,cs),
(88,298,o),
(168,221,o),
(282,221,cs),
(393,221,o),
(471,306,o),
(471,426,c),
(433,408,l),
(433,322,o),
(377,262,o),
(299,262,cs),
(228,262,o),
(178,325,o),
(178,415,cs),
(178,516,o),
(228,587,o),
(299,587,cs),
(377,587,o),
(433,513,o),
(433,408,cs),
(433,243,o),
(322,82,o),
(165,19,c),
(183,-26,l),
(381,53,o),
(521,233,o),
(521,408,cs),
(521,536,o),
(436,627,o),
(315,627,cs)
);
}
);
};
layerId = m005;
shapes = (
{
closed = 1;
nodes = (
(186,627,o),
(92,535,o),
(92,406,cs),
(92,298,o),
(172,221,o),
(286,221,cs),
(397,221,o),
(475,306,o),
(475,426,c),
(437,408,l),
(437,322,o),
(381,262,o),
(303,262,cs),
(232,262,o),
(182,325,o),
(182,415,cs),
(182,516,o),
(232,587,o),
(303,587,cs),
(381,587,o),
(437,513,o),
(437,408,cs),
(437,243,o),
(326,82,o),
(169,19,c),
(187,-26,l),
(385,53,o),
(525,233,o),
(525,408,cs),
(525,536,o),
(440,627,o),
(319,627,cs)
);
}
);
width = 594;
},
{
associatedMasterId = m005;
background = {
shapes = (
{
closed = 1;
nodes = (
(182,627,o),
(88,535,o),
(88,406,cs),
(88,298,o),
(168,221,o),
(282,221,cs),
(393,221,o),
(471,306,o),
(471,426,c),
(433,408,l),
(433,322,o),
(377,262,o),
(299,262,cs),
(228,262,o),
(178,325,o),
(178,415,cs),
(178,516,o),
(228,587,o),
(299,587,cs),
(377,587,o),
(433,513,o),
(433,408,cs),
(433,243,o),
(322,82,o),
(165,19,c),
(183,-26,l),
(381,53,o),
(521,233,o),
(521,408,cs),
(521,536,o),
(436,627,o),
(315,627,cs)
);
}
);
};
layerId = "8880FCC1-7A68-4D74-A1C2-63291C007941";
name = "29. Dez. 24, 15:16";
shapes = (
{
closed = 1;
nodes = (
(384,48,o),
(523,228,o),
(523,397,cs),
(523,530,o),
(432,624,o),
(303,624,cs),
(174,624,o),
(83,530,o),
(83,397,cs),
(83,283,o),
(159,203,o),
(266,203,cs),
(397,203,o),
(489,263,o),
(489,347,c),
(441,351,l),
(441,290,o),
(385,246,o),
(305,246,cs),
(226,246,o),
(170,319,o),
(170,423,cs),
(170,517,o),
(224,584,o),
(301,584,cs),
(379,584,o),
(434,497,o),
(434,373,cs),
(434,211,o),
(326,66,o),
(173,21,c),
(187,-39,l)
);
}
);
width = 600;
}
);
},
{
glyphname = period;
lastChange = "2025-01-08 20:10:11 +0000";
layers = (
{
color = 4;
layerId = m005;
shapes = (
{
closed = 1;
nodes = (
(154,-6,o),
(180,20,o),
(180,56,cs),
(180,92,o),
(154,118,o),
(117,118,cs),
(80,118,o),
(54,92,o),
(54,56,cs),
(54,20,o),
(80,-6,o),
(117,-6,cs)
);
}
);
width = 234;
}
);
unicode = 46;
},
{
glyphname = comma;
lastChange = "2025-01-08 20:10:11 +0000";
layers = (
{
color = 4;
layerId = m005;
shapes = (
{
closed = 1;
nodes = (
(73,-165,l),
(148,-135,o),
(198,-63,o),
(198,8,cs),
(198,54,o),
(166,91,o),
(116,91,cs),
(80,91,o),
(54,67,o),
(54,38,cs),
(54,16,o),
(68,-5,o),
(88,-5,cs),
(106,-5,o),
(109,2,o),
(124,2,cs),
(138,2,o),
(146,-14,o),
(146,-37,cs),
(146,-86,o),
(111,-125,o),
(63,-138,c)
);
}
);
width = 252;
}
);
unicode = 44;
},
{
glyphname = colon;
lastChange = "2025-01-08 20:10:11 +0000";
layers = (
{
color = 4;
layerId = m005;
shapes = (
{
closed = 1;
nodes = (
(154,213,o),
(180,234,o),
(180,259,cs),
(180,284,o),
(154,305,o),
(123,305,cs),
(92,305,o),
(68,284,o),
(68,259,cs),
(68,234,o),
(92,213,o),
(123,213,cs)
);
},
{
closed = 1;
nodes = (
(143,-5,o),
(166,16,o),
(166,41,cs),
(166,66,o),
(143,87,o),
(111,87,cs),
(80,87,o),
(54,66,o),
(54,41,cs),
(54,16,o),
(80,-5,o),
(111,-5,cs)
);
}
);
width = 234;
}
);
unicode = 58;
},
{
glyphname = semicolon;
lastChange = "2025-01-08 20:10:11 +0000";
layers = (
{
color = 4;
layerId = m005;
shapes = (
{
closed = 1;
nodes = (
(72,-176,l),
(138,-146,o),
(185,-68,o),
(185,12,cs),
(185,59,o),
(155,92,o),
(113,92,cs),
(79,92,o),
(54,73,o),
(54,44,cs),
(54,17,o),
(67,-3,o),
(86,-3,cs),
(103,-3,o),
(106,5,o),
(121,5,cs),
(134,5,o),
(142,-12,o),
(142,-37,cs),
(142,-88,o),
(109,-134,o),
(63,-147,c)
);
},
{
closed = 1;
nodes = (
(176,213,o),
(198,233,o),
(198,258,cs),
(198,281,o),
(176,300,o),
(145,300,cs),
(116,300,o),
(91,281,o),
(91,258,cs),
(91,233,o),
(116,213,o),
(145,213,cs)
);
}
);
width = 252;
}
);
unicode = 59;
},
{
glyphname = exclam;
lastChange = "2025-01-08 20:10:11 +0000";
layers = (
{
color = 4;
layerId = m005;
shapes = (
{
closed = 1;
nodes = (
(132,-8,o),
(147,11,o),
(151,34,cs),
(155,57,o),
(136,76,o),
(109,76,cs),
(86,76,o),
(67,57,o),
(67,34,cs),
(67,11,o),
(86,-8,o),
(109,-8,cs)
);
},
{
closed = 1;
nodes = (
(139,184,l),
(142,319,o),
(151,475,o),
(162,630,c),
(54,618,l),
(66,467,o),
(77,307,o),
(79,176,c)
);
}
);
width = 216;
}
);
unicode = 33;
},
{
glyphname = exclamdown;
lastChange = "2025-01-08 20:10:11 +0000";
layers = (
{
color = 4;
layerId = m005;
shapes = (
{
closed = 1;
nodes = (
(84,468,o),
(69,449,o),
(65,426,cs),
(61,403,o),
(80,384,o),
(107,384,cs),
(130,384,o),
(149,403,o),
(149,426,cs),
(149,449,o),
(130,468,o),
(107,468,cs)
);
},
{
closed = 1;
nodes = (
(77,276,l),
(74,141,o),
(65,-15,o),
(54,-170,c),
(162,-158,l),
(150,-7,o),
(145,153,o),
(137,284,c)
);
}
);
width = 216;
}
);
unicode = 161;
},
{
glyphname = question;
lastChange = "2025-01-08 20:10:11 +0000";
layers = (
{
color = 4;
layerId = m005;
shapes = (
{
closed = 1;
nodes = (
(203,170,o),
(236,184,o),
(275,203,c),
(273,216,l),
(241,217,ls),
(216,218,o),
(198,236,o),
(198,260,cs),
(198,347,o),
(340,346,o),
(342,466,c),
(342,527,o),
(299,571,o),
(238,571,cs),
(209,571,o),
(165,554,o),
(126,530,cs),
(94,508,o),
(72,471,o),
(72,440,cs),
(72,409,o),
(144,423,o),
(144,454,cs),
(144,470,o),
(137,466,o),
(137,481,cs),
(137,508,o),
(160,527,o),
(188,527,cs),
(238,527,o),
(267,500,o),
(266,460,cs),
(261,317,o),
(126,317,o),
(126,233,cs),
(126,196,o),
(158,170,o),
(194,170,cs)
);
},
{
closed = 1;
nodes = (
(225,-6,o),
(243,12,o),
(243,34,cs),
(243,56,o),
(225,74,o),
(203,74,cs),
(181,74,o),
(163,56,o),
(163,34,cs),
(163,12,o),
(181,-6,o),
(203,-6,cs)
);
}
);
width = 396;
}
);
unicode = 63;
},
{
glyphname = questiondown;
lastChange = "2025-01-08 20:10:11 +0000";
layers = (
{
color = 4;
layerId = m005;
shapes = (
{
closed = 1;
nodes = (
(193,284,o),
(160,270,o),
(121,251,c),
(123,238,l),
(155,237,ls),
(180,236,o),
(198,218,o),
(198,194,cs),
(198,107,o),
(56,108,o),
(54,-12,c),
(54,-73,o),
(97,-117,o),
(158,-117,cs),
(187,-117,o),
(231,-100,o),
(270,-76,cs),
(302,-54,o),
(324,-17,o),
(324,14,cs),
(324,45,o),
(252,31,o),
(252,0,cs),
(252,-16,o),
(259,-12,o),
(259,-27,cs),
(259,-54,o),
(236,-73,o),
(208,-73,cs),
(158,-73,o),
(129,-46,o),
(130,-6,cs),
(135,137,o),
(270,137,o),
(270,221,cs),
(270,258,o),
(238,284,o),
(202,284,cs)
);
},
{
closed = 1;
nodes = (
(171,460,o),
(153,442,o),
(153,420,cs),
(153,398,o),
(171,380,o),
(193,380,cs),
(215,380,o),
(233,398,o),
(233,420,cs),
(233,442,o),
(215,460,o),
(193,460,cs)
);
}
);
width = 396;
}
);
unicode = 191;
},
{
glyphname = periodcentered;
lastChange = "2025-01-08 20:10:11 +0000";
layers = (
{
color = 4;
layerId = m005;
shapes = (
{
closed = 1;
nodes = (
(154,199,o),
(180,225,o),
(180,262,cs),
(180,299,o),
(154,325,o),
(117,325,cs),
(80,325,o),
(54,299,o),
(54,262,cs),
(54,225,o),
(80,199,o),
(117,199,cs)
);
}
);
width = 234;
}
);
unicode = 183;
},
{
glyphname = bullet;
lastChange = "2025-01-08 20:10:11 +0000";
layers = (
{
color = 4;
layerId = m005;
shapes = (
{
closed = 1;
nodes = (
(282,117,o),
(342,176,o),
(342,259,cs),
(342,345,o),
(282,405,o),
(196,405,cs),
(113,405,o),
(54,345,o),
(54,259,cs),
(54,176,o),
(113,117,o),
(196,117,cs)
);
}
);
width = 396;
}
);
unicode = 8226;
},
{
glyphname = asterisk;
lastChange = "2025-01-08 20:10:11 +0000";
layers = (
{
color = 4;
layerId = m005;
shapes = (
{
closed = 1;
nodes = (
(165,530,l),
(165,537,o),
(186,581,o),
(186,596,cs),
(186,613,o),
(175,624,o),
(160,624,cs),
(144,624,o),
(133,614,o),
(133,597,cs),
(133,585,o),
(159,538,o),
(159,530,cs)
);
},
{
closed = 1;
nodes = (
(188,519,l),
(193,524,o),
(237,539,o),
(249,552,c),
(260,563,o),
(261,579,o),
(250,590,cs),
(239,600,o),
(223,600,o),
(212,589,cs),
(203,581,o),
(188,529,o),
(183,524,cs)
);
},
{
closed = 1;
nodes = (
(194,494,l),
(201,494,o),
(243,473,o),
(260,473,cs),
(276,473,o),
(288,485,o),
(288,500,cs),
(288,515,o),
(276,526,o),
(261,526,cs),
(248,526,o),
(202,501,o),
(194,501,cs)
);
},
{
closed = 1;
nodes = (
(183,473,l),
(188,468,o),
(203,424,o),
(214,411,cs),
(227,400,o),
(242,399,o),
(254,410,cs),
(264,422,o),
(264,437,o),
(253,449,cs),
(243,458,o),
(193,472,o),
(188,479,cs)
);
},
{
closed = 1;
nodes = (
(159,467,l),
(159,459,o),
(138,417,o),
(138,400,cs),
(138,384,o),
(149,372,o),
(165,372,cs),
(180,372,o),
(191,383,o),
(191,399,cs),
(191,411,o),
(166,458,o),
(166,467,cs)
);
},
{
closed = 1;
nodes = (
(137,477,l),
(132,472,o),
(88,457,o),
(76,446,c),
(64,433,o),
(64,418,o),
(74,406,cs),
(86,396,o),
(101,396,o),
(112,407,cs),
(122,417,o),
(136,467,o),
(142,472,cs)
);
},
{
closed = 1;
nodes = (
(131,502,l),
(124,502,o),
(80,523,o),
(65,523,cs),
(47,523,o),
(36,512,o),
(36,496,cs),
(36,482,o),
(47,470,o),
(64,470,cs),
(76,470,o),
(123,496,o),
(131,496,cs)
);
},
{
closed = 1;
nodes = (
(142,523,l),
(136,529,o),
(122,572,o),
(109,585,cs),
(98,596,o),
(81,597,o),
(71,586,cs),
(60,576,o),
(60,559,o),
(72,548,cs),
(80,539,o),
(131,524,o),
(137,519,cs)
);
}
);
width = 324;
}
);
unicode = 42;
},
{
glyphname = numbersign;
lastChange = "2025-01-08 20:10:11 +0000";
layers = (
{
associatedMasterId = m005;
background = {
shapes = (
{
closed = 1;
nodes = (
(367,5,l),
(417,218,l),
(395,200,l),
(520,200,l),
(553,260,l),
(410,260,l),
(424,242,l),
(474,458,l),
(452,440,l),
(560,440,l),
(593,500,l),
(466,500,l),
(480,482,l),
(540,734,l),
(470,700,l),
(418,482,l),
(440,500,l),
(222,500,l),
(236,482,l),
(296,734,l),
(226,700,l),
(174,482,l),
(196,500,l),
(78,500,l),
(51,440,l),
(182,440,l),
(168,458,l),
(117,242,l),
(139,260,l),
(38,260,l),
(11,200,l),
(125,200,l),
(111,218,l),
(59,-2,l),
(123,5,l),
(173,218,l),
(151,200,l),
(369,200,l),
(355,218,l),
(303,-2,l)
);
},
{
closed = 1;
nodes = (
(230,458,l),
(208,440,l),
(426,440,l),
(412,458,l),
(361,242,l),
(383,260,l),
(166,260,l),
(180,242,l)
);
}
);
};
layerId = m01;
name = Regular;
shapes = (
{
closed = 1;
nodes = (
(149,5,l),
(197,200,l),
(366,200,l),
(318,-2,l),
(389,5,l),
(433,200,l),
(537,200,l),
(566,267,l),
(449,267,l),
(489,442,l),
(583,442,l),
(610,512,l),
(502,512,l),
(552,726,l),
(472,701,l),
(433,512,l),
(270,512,l),
(322,726,l),
(243,701,l),
(199,512,l),
(85,512,l),
(62,442,l),
(184,442,l),
(140,267,l),
(51,267,l),
(28,200,l),
(126,200,l),
(76,-2,l)
);
},
{
closed = 1;
nodes = (
(253,438,l),
(420,438,l),
(380,269,l),
(211,269,l)
);
}
);
width = 600;
},
{
associatedMasterId = m005;
hints = (
{
horizontal = 1;
place = (-2,21);
target = up;
type = BottomGhost;
},
{
horizontal = 1;
place = (200,69);
type = Stem;
},
{
horizontal = 1;
place = (438,74);
type = Stem;
},
{
place = (11,589);
type = Stem;
},
{
horizontal = 1;
place = (200,67);
type = Stem;
},
{
horizontal = 1;
place = (442,70);
type = Stem;
}
);
layerId = "E0989092-07D5-4BE4-A82B-4E03160A36DB";
name = Black;
shapes = (
{
closed = 1;
nodes = (
(142,5,l),
(187,180,l),
(356,180,l),
(311,-2,l),
(382,5,l),
(423,180,l),
(530,180,l),
(563,292,l),
(447,292,l),
(477,417,l),
(571,417,l),
(610,532,l),
(500,532,l),
(545,734,l),
(465,701,l),
(424,532,l),
(261,532,l),
(315,734,l),
(236,701,l),
(197,532,l),
(85,532,l),
(50,417,l),
(172,417,l),
(138,292,l),
(48,292,l),
(21,180,l),
(116,180,l),
(69,-2,l)
);
},
{
closed = 1;
nodes = (
(241,413,l),
(408,413,l),
(378,294,l),
(209,294,l)
);
}
);
width = 610;
},
{
associatedMasterId = m005;
hints = (
{
horizontal = 1;
place = (90,21);
target = up;
type = BottomGhost;
},
{
horizontal = 1;
place = (233,140);
type = Stem;
},
{
horizontal = 1;
place = (402,144);
type = Stem;
},
{
place = (99,510);
type = Stem;
},
{
horizontal = 1;
place = (233,139);
type = Stem;
},
{
horizontal = 1;
place = (405,141);
type = Stem;
}
);
layerId = m003;
name = BlackCondensed;
shapes = (
{
closed = 1;
nodes = (
(192,5,l),
(224,180,l),
(344,180,l),
(312,-2,l),
(363,5,l),
(392,180,l),
(468,180,l),
(491,292,l),
(409,292,l),
(430,417,l),
(497,417,l),
(525,532,l),
(446,532,l),
(478,734,l),
(422,701,l),
(393,532,l),
(277,532,l),
(315,734,l),
(259,701,l),
(231,532,l),
(152,532,l),
(127,417,l),
(214,417,l),
(189,292,l),
(126,292,l),
(106,180,l),
(174,180,l),
(140,-2,l)
);
},
{
closed = 1;
nodes = (
(263,413,l),
(381,413,l),
(360,294,l),
(240,294,l)
);
}
);
width = 610;
},
{
background = {
shapes = (
{
closed = 1;
nodes = (
(317,5,l),
(367,218,l),
(345,200,l),
(470,200,l),
(503,260,l),
(360,260,l),
(374,242,l),
(424,458,l),
(402,440,l),
(510,440,l),
(543,500,l),
(416,500,l),
(430,482,l),
(490,734,l),
(420,700,l),
(368,482,l),
(390,500,l),
(172,500,l),
(186,482,l),
(246,734,l),
(176,700,l),
(124,482,l),
(146,500,l),
(28,500,l),
(1,440,l),
(132,440,l),
(118,458,l),
(67,242,l),
(89,260,l),
(-12,260,l),
(-39,200,l),
(75,200,l),
(61,218,l),
(9,-2,l),
(73,5,l),
(123,218,l),
(101,200,l),
(319,200,l),
(305,218,l),
(253,-2,l)
);
},
{
closed = 1;
nodes = (
(180,458,l),
(158,440,l),
(376,440,l),
(362,458,l),
(311,242,l),
(333,260,l),
(116,260,l),
(130,242,l)
);
}
);
};
color = 4;
layerId = m005;
shapes = (
{
closed = 1;
nodes = (
(113,8,l),
(148,158,l),
(315,158,l),
(271,-28,l),
(338,8,l),
(370,158,l),
(483,158,l),
(509,220,l),
(384,220,l),
(421,381,l),
(515,381,l),
(540,445,l),
(433,445,l),
(479,642,l),
(413,619,l),
(377,445,l),
(223,445,l),
(271,642,l),
(198,619,l),
(158,445,l),
(53,445,l),
(32,381,l),
(144,381,l),
(103,220,l),
(21,220,l),
(0,158,l),
(90,158,l),
(44,-28,l)
);
},
{
closed = 1;
nodes = (
(200,377,l),
(365,377,l),
(328,221,l),
(161,221,l)
);
}
);
width = 540;
}
);
unicode = 35;
},
{
glyphname = slash;
lastChange = "2025-01-08 20:10:11 +0000";
layers = (
{
color = 4;
layerId = m005;
shapes = (
{
closed = 1;
nodes = (
(89,-162,l),
(360,694,l),
(307,694,l),
(36,-162,l)
);
}
);
width = 396;
}
);
unicode = 47;
},
{
glyphname = backslash;
lastChange = "2025-01-08 20:10:11 +0000";
layers = (
{
associatedMasterId = m005;
layerId = m01;
name = Regular;
shapes = (
{
closed = 1;
nodes = (
(356,-85,l),
(77,888,l),
(31,872,l),
(298,-102,l)
);
}
);
width = 400;
},
{
associatedMasterId = m005;
hints = (
{
horizontal = 1;
place = (-163,901);
type = Stem;
},
{
place = (144,322);
type = Stem;
}
);
layerId = "E0989092-07D5-4BE4-A82B-4E03160A36DB";
name = Black;
shapes = (
{
closed = 1;
nodes = (
(378,-85,l),
(104,893,l),
(-12,861,l),
(266,-113,l)
);
}
);
width = 400;
},
{
associatedMasterId = m005;
hints = (
{
horizontal = 1;
place = (-63,693);
type = Stem;
},
{
place = (155,282);
type = Stem;
}
);
layerId = m003;
name = BlackCondensed;
shapes = (
{
closed = 1;
nodes = (
(321,-85,l),
(127,893,l),
(45,861,l),
(242,-113,l)
);
}
);
width = 400;
},
{
color = 4;
layerId = m005;
shapes = (
{
closed = 1;
nodes = (
(342,-85,l),
(84,751,l),
(36,736,l),
(295,-102,l)
);
}
);
width = 378;
}
);
unicode = 92;
},
{
glyphname = hyphen;
lastChange = "2025-01-08 20:10:11 +0000";
layers = (
{
color = 4;
layerId = m005;
shapes = (
{
closed = 1;
nodes = (
(285,190,l),
(288,253,l),
(239,253,l),
(77,239,l),
(36,231,l),
(39,186,l)
);
}
);
width = 324;
}
);
unicode = 45;
},
{
glyphname = endash;
lastChange = "2025-01-08 20:10:11 +0000";
layers = (
{
color = 4;
layerId = m005;
shapes = (
{
closed = 1;
nodes = (
(480,196,l),
(486,253,l),
(404,253,l),
(80,239,l),
(0,231,l),
(6,192,l)
);
}
);
width = 486;
}
);
unicode = 8211;
},
{
glyphname = emdash;
lastChange = "2025-01-08 20:10:11 +0000";
layers = (
{
color = 4;
layerId = m005;
shapes = (
{
closed = 1;
nodes = (
(695,202,l),
(702,253,l),
(620,253,l),
(83,239,l),
(0,231,l),
(6,198,l)
);
}
);
width = 702;
}
);
unicode = 8212;
},
{
glyphname = underscore;
lastChange = "2025-01-08 20:10:11 +0000";
layers = (
{
color = 4;
layerId = m005;
shapes = (
{
closed = 1;
nodes = (
(0,-90,l),
(594,-90,l),
(594,-50,l),
(0,-50,l)
);
}
);
width = 594;
}
);
unicode = 95;
},
{
glyphname = parenleft;
lastChange = "2025-01-08 20:10:11 +0000";
layers = (
{
color = 4;
layerId = m005;
shapes = (
{
closed = 1;
nodes = (
(134,437,o),
(188,607,o),
(252,692,c),
(233,720,l),
(140,634,o),
(72,452,o),
(72,281,cs),
(72,110,o),
(140,-72,o),
(233,-158,c),
(252,-130,l),
(188,-45,o),
(134,125,o),
(134,281,cs)
);
}
);
width = 270;
}
);
unicode = 40;
},
{
glyphname = parenright;
lastChange = "2025-01-08 20:10:11 +0000";
layers = (
{
color = 4;
layerId = m005;
shapes = (
{
closed = 1;
nodes = (
(136,125,o),
(82,-45,o),
(18,-130,c),
(37,-158,l),
(130,-72,o),
(198,110,o),
(198,281,cs),
(198,452,o),
(130,634,o),
(37,720,c),
(18,692,l),
(82,607,o),
(136,437,o),
(136,281,cs)
);
}
);
width = 270;
}
);
unicode = 41;
},
{
glyphname = braceleft;
lastChange = "2025-01-08 20:10:11 +0000";
layers = (
{
associatedMasterId = m005;
layerId = m01;
name = Regular;
shapes = (
{
closed = 1;
nodes = (
(304,-92,l),
(248,-92,o),
(208,-61,o),
(208,-16,cs),
(208,173,ls),
(208,212,o),
(185,256,o),
(152,279,c),
(185,302,o),
(208,346,o),
(208,385,cs),
(208,574,ls),
(208,619,o),
(248,650,o),
(304,650,c),
(304,702,l),
(211,702,o),
(145,649,o),
(145,574,cs),
(145,385,ls),
(145,333,o),
(101,297,o),
(39,297,c),
(39,261,l),
(101,261,o),
(145,225,o),
(145,173,cs),
(145,-16,ls),
(145,-91,o),
(211,-144,o),
(304,-144,c)
);
}
);
width = 343;
},
{
associatedMasterId = m005;
hints = (
{
horizontal = 1;
place = (-146,61);
type = Stem;
},
{
horizontal = 1;
place = (249,60);
type = Stem;
},
{
horizontal = 1;
place = (643,61);
type = Stem;
},
{
place = (250,150);
type = Stem;
}
);
layerId = "E0989092-07D5-4BE4-A82B-4E03160A36DB";
name = Black;
shapes = (
{
closed = 1;
nodes = (
(426,-95,l),
(340,-95,o),
(280,-56,o),
(280,-16,cs),
(280,173,ls),
(280,207,o),
(250,251,o),
(209,279,c),
(250,307,o),
(280,351,o),
(280,385,cs),
(280,574,ls),
(280,614,o),
(340,653,o),
(426,653,c),
(426,704,l),
(253,704,o),
(130,681,o),
(130,604,cs),
(130,385,ls),
(130,341,o),
(86,309,o),
(24,309,c),
(24,249,l),
(86,249,o),
(130,217,o),
(130,173,cs),
(130,-46,ls),
(130,-123,o),
(253,-146,o),
(426,-146,c)
);
}
);
width = 380;
},
{
associatedMasterId = m005;
hints = (
{
horizontal = 1;
place = (-38,109);
type = Stem;
},
{
horizontal = 1;
place = (242,108);
type = Stem;
},
{
horizontal = 1;
place = (522,109);
type = Stem;
},
{
place = (243,172);
type = Stem;
}
);
layerId = m003;
name = BlackCondensed;
shapes = (
{
closed = 1;
nodes = (
(368,-95,l),
(307,-95,o),
(264,-56,o),
(264,-16,cs),
(264,173,ls),
(264,207,o),
(243,251,o),
(214,279,c),
(243,307,o),
(264,351,o),
(264,385,cs),
(264,574,ls),
(264,614,o),
(307,653,o),
(368,653,c),
(368,704,l),
(245,704,o),
(168,681,o),
(168,604,cs),
(168,385,ls),
(168,341,o),
(126,309,o),
(82,309,c),
(82,249,l),
(126,249,o),
(168,217,o),
(168,173,cs),
(168,-46,ls),
(168,-123,o),
(245,-146,o),
(368,-146,c)
);
}
);
width = 380;
},
{
color = 4;
layerId = m005;
shapes = (
{
closed = 1;
nodes = (
(324,-108,l),
(268,-108,o),
(228,-70,o),
(228,-16,cs),
(228,157,ls),
(228,201,o),
(193,252,o),
(144,279,c),
(193,306,o),
(228,357,o),
(228,401,cs),
(228,574,ls),
(228,628,o),
(268,666,o),
(324,666,c),
(324,702,l),
(233,702,o),
(169,649,o),
(169,574,cs),
(169,385,ls),
(169,329,o),
(128,289,o),
(54,289,c),
(54,269,l),
(128,269,o),
(169,229,o),
(169,173,cs),
(169,-16,ls),
(169,-91,o),
(233,-144,o),
(324,-144,c)
);
}
);
width = 360;
}
);
unicode = 123;
},
{
glyphname = braceright;
lastChange = "2025-01-08 20:10:11 +0000";
layers = (
{
associatedMasterId = m005;
layerId = m01;
name = Regular;
shapes = (
{
closed = 1;
nodes = (
(132,-144,o),
(198,-91,o),
(198,-16,cs),
(198,173,ls),
(198,225,o),
(242,261,o),
(304,261,c),
(304,297,l),
(242,297,o),
(198,333,o),
(198,385,cs),
(198,574,ls),
(198,649,o),
(132,702,o),
(39,702,c),
(39,650,l),
(95,650,o),
(135,619,o),
(135,574,cs),
(135,385,ls),
(135,346,o),
(158,302,o),
(191,279,c),
(158,256,o),
(135,212,o),
(135,173,cs),
(135,-16,ls),
(135,-61,o),
(95,-92,o),
(39,-92,c),
(39,-144,l)
);
}
);
width = 343;
},
{
associatedMasterId = m005;
hints = (
{
horizontal = 1;
place = (-146,61);
type = Stem;
},
{
horizontal = 1;
place = (249,60);
type = Stem;
},
{
horizontal = 1;
place = (643,61);
type = Stem;
},
{
place = (283,150);
type = Stem;
}
);
layerId = "E0989092-07D5-4BE4-A82B-4E03160A36DB";
name = Black;
shapes = (
{
closed = 1;
nodes = (
(137,-146,o),
(260,-123,o),
(260,-46,cs),
(260,173,ls),
(260,217,o),
(304,249,o),
(366,249,c),
(366,309,l),
(304,309,o),
(260,341,o),
(260,385,cs),
(260,604,ls),
(260,681,o),
(137,704,o),
(-36,704,c),
(-36,653,l),
(50,653,o),
(110,614,o),
(110,574,cs),
(110,385,ls),
(110,351,o),
(140,307,o),
(181,279,c),
(140,251,o),
(110,207,o),
(110,173,cs),
(110,-16,ls),
(110,-56,o),
(50,-95,o),
(-36,-95,c),
(-36,-146,l)
);
}
);
width = 380;
},
{
associatedMasterId = m005;
hints = (
{
horizontal = 1;
place = (-56,91);
type = Stem;
},
{
horizontal = 1;
place = (225,90);
type = Stem;
},
{
horizontal = 1;
place = (504,91);
type = Stem;
},
{
place = (249,154);
type = Stem;
}
);
layerId = m003;
name = BlackCondensed;
shapes = (
{
closed = 1;
nodes = (
(145,-146,o),
(222,-123,o),
(222,-46,cs),
(222,173,ls),
(222,217,o),
(264,249,o),
(308,249,c),
(308,309,l),
(264,309,o),
(222,341,o),
(222,385,cs),
(222,604,ls),
(222,681,o),
(145,704,o),
(22,704,c),
(22,653,l),
(83,653,o),
(126,614,o),
(126,574,cs),
(126,385,ls),
(126,351,o),
(147,307,o),
(176,279,c),
(147,251,o),
(126,207,o),
(126,173,cs),
(126,-16,ls),
(126,-56,o),
(83,-95,o),
(22,-95,c),
(22,-146,l)
);
}
);
width = 380;
},
{
color = 4;
layerId = m005;
shapes = (
{
closed = 1;
nodes = (
(127,-144,o),
(191,-91,o),
(191,-16,cs),
(191,173,ls),
(191,229,o),
(232,269,o),
(306,269,c),
(306,289,l),
(232,289,o),
(191,329,o),
(191,385,cs),
(191,574,ls),
(191,649,o),
(127,702,o),
(36,702,c),
(36,666,l),
(92,666,o),
(132,628,o),
(132,574,cs),
(132,401,ls),
(132,357,o),
(167,306,o),
(216,279,c),
(167,252,o),
(132,201,o),
(132,157,cs),
(132,-16,ls),
(132,-70,o),
(92,-108,o),
(36,-108,c),
(36,-144,l)
);
}
);
width = 360;
}
);
unicode = 125;
},
{
glyphname = bracketleft;
lastChange = "2025-01-08 20:10:11 +0000";
layers = (
{
color = 2;
layerId = m005;
shapes = (
{
closed = 1;
nodes = (
(288,656,l),
(288,692,l),
(97,692,l),
(112,416,o),
(112,140,o),
(97,-136,c),
(288,-136,l),
(288,-100,l),
(169,-100,l),
(169,656,l)
);
}
);
width = 306;
}
);
unicode = 91;
},
{
glyphname = bracketright;
lastChange = "2025-01-08 20:10:11 +0000";
layers = (
{
color = 3;
layerId = m005;
shapes = (
{
closed = 1;
nodes = (
(137,-100,l),
(18,-100,l),
(18,-136,l),
(209,-136,l),
(194,140,o),
(194,416,o),
(209,692,c),
(18,692,l),
(18,656,l),
(137,656,l)
);
}
);
width = 306;
}
);
unicode = 93;
},
{
glyphname = quotesinglbase;
lastChange = "2025-01-08 20:10:11 +0000";
layers = (
{
color = 4;
layerId = m005;
shapes = (
{
closed = 1;
nodes = (
(73,-165,l),
(148,-135,o),
(198,-63,o),
(198,8,cs),
(198,54,o),
(164,91,o),
(114,91,cs),
(78,91,o),
(54,67,o),
(54,38,cs),
(54,16,o),
(68,-5,o),
(88,-5,cs),
(106,-5,o),
(109,2,o),
(124,2,cs),
(138,2,o),
(146,-14,o),
(146,-37,cs),
(146,-86,o),
(111,-125,o),
(63,-138,c)
);
}
);
width = 252;
}
);
unicode = 8218;
},
{
glyphname = quotedblbase;
lastChange = "2025-01-08 20:10:11 +0000";
layers = (
{
color = 4;
layerId = m005;
shapes = (
{
closed = 1;
nodes = (
(73,-165,l),
(148,-135,o),
(200,-63,o),
(200,8,cs),
(200,54,o),
(166,91,o),
(116,91,cs),
(80,91,o),
(54,67,o),
(54,38,cs),
(54,16,o),
(68,-5,o),
(88,-5,cs),
(106,-5,o),
(109,2,o),
(124,2,cs),
(138,2,o),
(146,-14,o),
(146,-37,cs),
(146,-86,o),
(111,-125,o),
(63,-138,c)
);
},
{
closed = 1;
nodes = (
(251,-165,l),
(326,-135,o),
(378,-63,o),
(378,8,cs),
(378,54,o),
(344,91,o),
(294,91,cs),
(258,91,o),
(232,67,o),
(232,38,cs),
(232,16,o),
(246,-5,o),
(266,-5,cs),
(284,-5,o),
(287,2,o),
(302,2,cs),
(316,2,o),
(324,-14,o),
(324,-37,cs),
(324,-86,o),
(289,-125,o),
(241,-138,c)
);
}
);
width = 432;
}
);
unicode = 8222;
},
{
glyphname = quotedblleft;
lastChange = "2025-01-08 20:10:11 +0000";
layers = (
{
color = 4;
layerId = m005;
shapes = (
{
closed = 1;
nodes = (
(359,651,l),
(284,621,o),
(232,549,o),
(232,478,cs),
(232,432,o),
(266,395,o),
(316,395,cs),
(352,395,o),
(378,419,o),
(378,448,cs),
(378,470,o),
(364,491,o),
(344,491,cs),
(326,491,o),
(323,484,o),
(308,484,cs),
(294,484,o),
(286,500,o),
(286,523,cs),
(286,572,o),
(321,611,o),
(369,624,c)
);
},
{
closed = 1;
nodes = (
(181,651,l),
(106,621,o),
(54,549,o),
(54,478,cs),
(54,432,o),
(88,395,o),
(138,395,cs),
(174,395,o),
(200,419,o),
(200,448,cs),
(200,470,o),
(186,491,o),
(166,491,cs),
(148,491,o),
(145,484,o),
(130,484,cs),
(116,484,o),
(108,500,o),
(108,523,cs),
(108,572,o),
(143,611,o),
(191,624,c)
);
}
);
width = 432;
}
);
unicode = 8220;
},
{
glyphname = quotedblright;
lastChange = "2025-01-08 20:10:11 +0000";
layers = (
{
color = 4;
layerId = m005;
shapes = (
{
closed = 1;
nodes = (
(73,369,l),
(148,399,o),
(200,471,o),
(200,542,cs),
(200,588,o),
(166,625,o),
(116,625,cs),
(80,625,o),
(54,601,o),
(54,572,cs),
(54,550,o),
(68,529,o),
(88,529,cs),
(106,529,o),
(109,536,o),
(124,536,cs),
(138,536,o),
(146,520,o),
(146,497,cs),
(146,448,o),
(111,409,o),
(63,396,c)
);
},
{
closed = 1;
nodes = (
(251,369,l),
(326,399,o),
(378,471,o),
(378,542,cs),
(378,588,o),
(344,625,o),
(294,625,cs),
(258,625,o),
(232,601,o),
(232,572,cs),
(232,550,o),
(246,529,o),
(266,529,cs),
(284,529,o),
(287,536,o),
(302,536,cs),
(316,536,o),
(324,520,o),
(324,497,cs),
(324,448,o),
(289,409,o),
(241,396,c)
);
}
);
width = 432;
}
);
unicode = 8221;
},
{
glyphname = quoteleft;
lastChange = "2025-01-08 20:10:11 +0000";
layers = (
{
color = 4;
layerId = m005;
shapes = (
{
closed = 1;
nodes = (
(181,651,l),
(106,621,o),
(54,549,o),
(54,478,cs),
(54,432,o),
(86,395,o),
(136,395,cs),
(172,395,o),
(198,419,o),
(198,448,cs),
(198,470,o),
(186,491,o),
(166,491,cs),
(148,491,o),
(145,484,o),
(130,484,cs),
(116,484,o),
(108,500,o),
(108,523,cs),
(108,572,o),
(143,611,o),
(191,624,c)
);
}
);
width = 252;
}
);
unicode = 8216;
},
{
glyphname = quoteright;
lastChange = "2025-01-08 20:10:11 +0000";
layers = (
{
color = 4;
layerId = m005;
shapes = (
{
closed = 1;
nodes = (
(73,369,l),
(148,399,o),
(198,471,o),
(198,542,cs),
(198,588,o),
(164,625,o),
(114,625,cs),
(78,625,o),
(54,601,o),
(54,572,cs),
(54,550,o),
(68,529,o),
(88,529,cs),
(106,529,o),
(109,536,o),
(124,536,cs),
(138,536,o),
(146,520,o),
(146,497,cs),
(146,448,o),
(111,409,o),
(63,396,c)
);
}
);
width = 252;
}
);
unicode = 8217;
},
{
glyphname = guillemetleft;
lastChange = "2025-01-08 19:27:58 +0000";
layers = (
{
color = 10;
layerId = m005;
shapes = (
{
closed = 1;
nodes = (
(250,204,l),
(420,50,l),
(460,80,l),
(351,204,l),
(453,333,l),
(425,354,l)
);
},
{
closed = 1;
nodes = (
(58,204,l),
(229,50,l),
(269,80,l),
(159,204,l),
(262,333,l),
(234,354,l)
);
}
);
width = 522;
}
);
unicode = 171;
},
{
glyphname = guillemetright;
lastChange = "2025-01-08 19:27:58 +0000";
layers = (
{
color = 10;
layerId = m005;
shapes = (
{
closed = 1;
nodes = (
(279,200,l),
(108,354,l),
(68,325,l),
(178,200,l),
(75,71,l),
(103,50,l)
);
},
{
closed = 1;
nodes = (
(471,200,l),
(300,354,l),
(260,325,l),
(370,200,l),
(267,71,l),
(295,50,l)
);
}
);
width = 522;
}
);
unicode = 187;
},
{
glyphname = guilsinglleft;
lastChange = "2025-01-08 20:10:11 +0000";
layers = (
{
color = 4;
layerId = m005;
shapes = (
{
closed = 1;
nodes = (
(36,204,l),
(212,50,l),
(252,80,l),
(142,204,l),
(245,333,l),
(217,354,l)
);
}
);
width = 306;
}
);
unicode = 8249;
},
{
glyphname = guilsinglright;
lastChange = "2025-01-08 20:10:11 +0000";
layers = (
{
color = 4;
layerId = m005;
shapes = (
{
closed = 1;
nodes = (
(270,200,l),
(94,354,l),
(54,325,l),
(169,200,l),
(61,71,l),
(89,50,l)
);
}
);
width = 306;
}
);
unicode = 8250;
},
{
glyphname = quotedbl;
lastChange = "2025-01-08 20:10:11 +0000";
layers = (
{
color = 4;
layerId = m005;
shapes = (
{
closed = 1;
nodes = (
(102,428,l),
(152,606,l),
(161,640,o),
(146,664,o),
(118,664,cs),
(89,664,o),
(71,640,o),
(72,606,c),
(81,428,l)
);
},
{
closed = 1;
nodes = (
(253,428,l),
(303,606,l),
(312,640,o),
(297,664,o),
(269,664,cs),
(240,664,o),
(222,640,o),
(223,606,c),
(232,428,l)
);
}
);
width = 378;
}
);
unicode = 34;
},
{
glyphname = quotesingle;
lastChange = "2025-01-08 20:10:11 +0000";
layers = (
{
color = 4;
layerId = m005;
shapes = (
{
closed = 1;
nodes = (
(93,428,l),
(159,606,l),
(168,640,o),
(153,664,o),
(125,664,cs),
(96,664,o),
(78,640,o),
(79,606,c),
(72,428,l)
);
}
);
width = 234;
}
);
unicode = 39;
},
{
glyphname = u2619;
lastChange = "2025-01-08 19:27:58 +0000";
layers = (
{
color = 10;
layerId = m005;
shapes = (
{
closed = 1;
nodes = (
(568,2,o),
(651,71,o),
(651,167,cs),
(651,207,o),
(631,251,o),
(588,275,c),
(693,353,o),
(807,408,o),
(858,408,cs),
(964,408,o),
(1040,331,o),
(1040,225,cs),
(1040,160,o),
(999,116,o),
(940,116,cs),
(910,116,o),
(890,110,o),
(890,102,cs),
(890,73,o),
(910,55,o),
(940,55,cs),
(1021,55,o),
(1080,125,o),
(1080,222,cs),
(1080,350,o),
(989,438,o),
(858,438,cs),
(816,438,o),
(750,417,o),
(700,389,cs),
(521,281,o),
(358,187,o),
(233,187,c),
(233,199,l),
(280,207,o),
(351,230,o),
(406,255,cs),
(521,310,o),
(593,366,o),
(593,455,cs),
(593,513,o),
(550,554,o),
(476,554,cs),
(427,554,o),
(374,531,o),
(343,502,cs),
(301,460,o),
(251,371,o),
(220,288,cs),
(204,243,o),
(164,210,o),
(119,210,cs),
(100,210,o),
(85,225,o),
(85,244,cs),
(85,270,o),
(104,283,o),
(122,298,cs),
(146,318,o),
(172,339,o),
(172,384,cs),
(172,404,o),
(149,435,o),
(117,462,cs),
(115,463,o),
(111,465,o),
(110,465,cs),
(105,465,o),
(101,462,o),
(98,455,cs),
(69,401,o),
(48,333,o),
(48,294,cs),
(48,123,o),
(208,2,o),
(435,2,cs)
);
},
{
closed = 1;
nodes = (
(1053,241,l),
(1049,241,ls),
(910,241,o),
(813,310,o),
(813,408,cs),
(813,495,o),
(884,556,o),
(983,556,cs),
(1021,556,o),
(1049,563,o),
(1049,574,cs),
(1049,599,o),
(1021,618,o),
(983,618,cs),
(863,618,o),
(779,530,o),
(779,404,cs),
(779,289,o),
(892,207,o),
(1053,207,c)
);
}
);
width = 1134;
}
);
unicode = 9753;
},
{
glyphname = u2740;
lastChange = "2025-01-08 19:27:58 +0000";
layers = (
{
color = 10;
layerId = m005;
shapes = (
{
closed = 1;
nodes = (
(412,352,l),
(412,373,o),
(468,490,o),
(468,533,cs),
(468,579,o),
(438,611,o),
(397,611,cs),
(355,611,o),
(324,580,o),
(324,536,cs),
(324,501,o),
(393,375,o),
(393,352,cs)
);
},
{
closed = 1;
nodes = (
(408,387,o),
(401,390,o),
(397,390,c),
(397,415,o),
(354,507,o),
(354,532,cs),
(354,571,o),
(377,583,o),
(395,583,cs),
(414,583,o),
(439,571,o),
(439,533,cs),
(439,496,o),
(408,415,o),
(408,390,cs)
);
},
{
closed = 1;
nodes = (
(472,322,l),
(486,337,o),
(608,380,o),
(639,411,c),
(670,443,o),
(673,487,o),
(644,518,cs),
(615,545,o),
(571,544,o),
(540,513,cs),
(515,490,o),
(474,351,o),
(459,336,cs)
);
},
{
closed = 1;
nodes = (
(494,350,o),
(490,357,o),
(488,359,c),
(505,376,o),
(540,473,o),
(558,491,cs),
(585,519,o),
(610,509,o),
(621,498,cs),
(636,484,o),
(646,457,o),
(619,430,cs),
(592,404,o),
(513,370,o),
(496,351,cs)
);
},
{
closed = 1;
nodes = (
(489,254,l),
(509,254,o),
(627,199,o),
(669,199,cs),
(715,199,o),
(747,229,o),
(747,271,cs),
(747,312,o),
(717,342,o),
(673,342,cs),
(638,342,o),
(512,273,o),
(489,273,cs)
);
},
{
closed = 1;
nodes = (
(524,259,o),
(526,266,o),
(526,270,c),
(552,270,o),
(644,313,o),
(669,313,cs),
(708,313,o),
(721,289,o),
(721,272,cs),
(721,252,o),
(708,228,o),
(669,228,cs),
(632,228,o),
(552,259,o),
(526,259,cs)
);
},
{
closed = 1;
nodes = (
(459,198,l),
(473,184,o),
(516,61,o),
(548,29,cs),
(579,-1,o),
(623,-3,o),
(654,25,cs),
(682,56,o),
(682,98,o),
(651,129,cs),
(627,155,o),
(488,195,o),
(472,211,cs)
);
},
{
closed = 1;
nodes = (
(486,176,o),
(494,178,o),
(496,182,c),
(514,164,o),
(610,129,o),
(628,113,cs),
(655,84,o),
(646,59,o),
(634,48,cs),
(620,34,o),
(594,24,o),
(567,51,cs),
(541,78,o),
(506,156,o),
(488,174,cs)
);
},
{
closed = 1;
nodes = (
(396,179,l),
(396,159,o),
(339,43,o),
(339,-1,cs),
(339,-48,o),
(369,-79,o),
(410,-79,cs),
(453,-79,o),
(482,-49,o),
(482,-3,cs),
(482,29,o),
(413,156,o),
(413,179,cs)
);
},
{
closed = 1;
nodes = (
(399,144,o),
(407,141,o),
(410,141,c),
(410,117,o),
(453,25,o),
(453,0,cs),
(453,-38,o),
(430,-52,o),
(413,-52,cs),
(392,-52,o),
(368,-40,o),
(368,-1,cs),
(368,36,o),
(399,117,o),
(399,141,cs)
);
},
{
closed = 1;
nodes = (
(335,209,l),
(321,195,o),
(200,153,o),
(168,121,c),
(136,89,o),
(134,45,o),
(164,15,cs),
(194,-14,o),
(237,-13,o),
(267,17,cs),
(293,43,o),
(332,182,o),
(350,196,cs)
);
},
{
closed = 1;
nodes = (
(315,182,o),
(317,175,o),
(319,172,c),
(302,155,o),
(267,59,o),
(250,41,cs),
(222,13,o),
(197,23,o),
(185,34,cs),
(171,49,o),
(162,74,o),
(189,101,cs),
(215,128,o),
(294,163,o),
(312,179,cs)
);
},
{
closed = 1;
nodes = (
(319,277,l),
(297,277,o),
(181,334,o),
(137,334,cs),
(91,334,o),
(60,303,o),
(60,261,cs),
(60,220,o),
(90,190,o),
(135,190,cs),
(169,190,o),
(295,259,o),
(319,259,cs)
);
},
{
closed = 1;
nodes = (
(283,272,o),
(281,266,o),
(281,263,c),
(256,263,o),
(164,220,o),
(137,220,cs),
(99,220,o),
(88,243,o),
(88,259,cs),
(88,280,o),
(99,304,o),
(137,304,cs),
(175,304,o),
(256,272,o),
(281,272,cs)
);
},
{
closed = 1;
nodes = (
(349,335,l),
(333,349,o),
(292,469,o),
(260,501,cs),
(227,533,o),
(183,535,o),
(155,506,cs),
(125,476,o),
(125,432,o),
(157,402,cs),
(181,377,o),
(319,337,o),
(334,321,cs)
);
},
{
closed = 1;
nodes = (
(320,356,o),
(315,352,o),
(311,350,c),
(293,368,o),
(199,402,o),
(180,420,cs),
(152,448,o),
(162,472,o),
(172,484,cs),
(188,499,o),
(213,508,o),
(240,481,cs),
(267,454,o),
(302,375,o),
(319,358,cs)
);
}
);
width = 810;
}
);
unicode = 10048;
},
{
glyphname = floralHeart;
lastChange = "2025-01-08 19:27:58 +0000";
layers = (
{
color = 10;
layerId = m005;
shapes = (
{
closed = 1;
nodes = (
(30,1,o),
(132,-118,o),
(275,-118,cs),
(308,-118,o),
(366,-103,o),
(411,-81,cs),
(416,-79,o),
(419,-75,o),
(419,-72,cs),
(419,-71,o),
(417,-68,o),
(416,-67,cs),
(393,-43,o),
(368,-27,o),
(351,-27,cs),
(314,-27,o),
(296,-46,o),
(279,-63,cs),
(266,-76,o),
(255,-91,o),
(233,-91,cs),
(218,-91,o),
(205,-79,o),
(205,-65,cs),
(205,-32,o),
(232,-2,o),
(271,10,cs),
(340,32,o),
(415,69,o),
(450,100,cs),
(475,124,o),
(494,163,o),
(494,199,cs),
(494,254,o),
(459,286,o),
(411,286,cs),
(336,286,o),
(289,232,o),
(242,147,cs),
(222,107,o),
(202,54,o),
(196,19,c),
(187,19,l),
(187,112,o),
(264,232,o),
(356,365,cs),
(380,402,o),
(397,450,o),
(397,481,cs),
(397,579,o),
(323,646,o),
(215,646,cs),
(133,646,o),
(75,603,o),
(75,543,cs),
(75,520,o),
(89,506,o),
(114,506,cs),
(122,506,o),
(125,520,o),
(125,543,cs),
(125,586,o),
(163,616,o),
(218,616,cs),
(306,616,o),
(372,560,o),
(372,481,cs),
(372,444,o),
(325,360,o),
(259,282,c),
(240,314,o),
(202,328,o),
(168,328,cs),
(89,328,o),
(30,267,o),
(30,169,cs)
);
},
{
closed = 1;
nodes = (
(202,507,o),
(272,423,o),
(368,423,cs),
(474,423,o),
(547,486,o),
(547,574,cs),
(547,603,o),
(532,623,o),
(511,623,cs),
(501,623,o),
(495,603,o),
(495,574,cs),
(495,501,o),
(444,449,o),
(372,449,cs),
(289,449,o),
(231,520,o),
(231,623,cs),
(231,626,l),
(202,626,l)
);
}
);
width = 576;
}
);
unicode = 10086;
},
{
glyphname = u2767;
lastChange = "2025-01-08 19:27:58 +0000";
layers = (
{
color = 10;
layerId = m005;
shapes = (
{
closed = 1;
nodes = (
(926,2,o),
(1086,123,o),
(1086,294,cs),
(1086,333,o),
(1065,401,o),
(1036,455,cs),
(1033,462,o),
(1029,465,o),
(1024,465,cs),
(1023,465,o),
(1019,463,o),
(1017,462,cs),
(985,435,o),
(962,404,o),
(962,384,cs),
(962,339,o),
(988,318,o),
(1012,298,cs),
(1030,283,o),
(1049,270,o),
(1049,244,cs),
(1049,225,o),
(1034,210,o),
(1015,210,cs),
(970,210,o),
(930,243,o),
(914,288,cs),
(883,371,o),
(833,460,o),
(791,502,cs),
(760,531,o),
(707,554,o),
(658,554,cs),
(584,554,o),
(541,513,o),
(541,455,cs),
(541,366,o),
(613,310,o),
(728,255,cs),
(783,230,o),
(854,207,o),
(901,199,c),
(901,187,l),
(776,187,o),
(613,281,o),
(434,389,cs),
(384,417,o),
(318,438,o),
(276,438,cs),
(145,438,o),
(54,350,o),
(54,222,cs),
(54,125,o),
(113,55,o),
(194,55,cs),
(224,55,o),
(244,73,o),
(244,102,cs),
(244,110,o),
(224,116,o),
(194,116,cs),
(135,116,o),
(94,160,o),
(94,225,cs),
(94,331,o),
(170,408,o),
(276,408,cs),
(327,408,o),
(441,353,o),
(546,275,c),
(503,251,o),
(483,207,o),
(483,167,cs),
(483,71,o),
(566,2,o),
(699,2,cs)
);
},
{
closed = 1;
nodes = (
(242,207,o),
(355,289,o),
(355,404,cs),
(355,530,o),
(271,618,o),
(151,618,cs),
(113,618,o),
(85,599,o),
(85,574,cs),
(85,563,o),
(113,556,o),
(151,556,cs),
(250,556,o),
(321,495,o),
(321,408,cs),
(321,310,o),
(224,241,o),
(85,241,cs),
(81,241,l),
(81,207,l)
);
}
);
width = 1134;
}
);
unicode = 10087;
},
{
glyphname = at;
lastChange = "2025-01-08 20:10:11 +0000";
layers = (
{
associatedMasterId = m005;
layerId = "64256756-86B2-4B21-ADC9-3CB4C17202DE";
name = Regular;
shapes = (
{
closed = 1;
nodes = (
(458,471,o),
(401,487,o),
(339,487,cs),
(248,487,o),
(184,406,o),
(184,292,cs),
(184,187,o),
(248,113,o),
(339,113,cs),
(375,113,o),
(427,152,o),
(465,206,c),
(441,226,l),
(410,179,o),
(368,145,o),
(339,145,cs),
(283,145,o),
(244,206,o),
(244,292,cs),
(244,387,o),
(283,455,o),
(339,455,cs),
(385,455,o),
(418,431,o),
(418,397,c),
(418,185,l),
(418,142,o),
(464,112,o),
(529,112,cs),
(609,112,o),
(666,187,o),
(666,292,cs),
(666,506,o),
(531,658,o),
(339,658,cs),
(150,658,o),
(17,506,o),
(17,292,cs),
(17,81,o),
(150,-68,o),
(339,-68,cs),
(416,-68,o),
(519,-22,o),
(588,43,c),
(575,58,l),
(507,-4,o),
(409,-48,o),
(339,-48,cs),
(162,-48,o),
(37,93,o),
(37,292,cs),
(37,495,o),
(162,638,o),
(339,638,cs),
(519,638,o),
(646,495,o),
(646,292,cs),
(646,205,o),
(597,144,o),
(528,144,cs),
(499,144,o),
(478,161,o),
(478,185,c),
(478,448,l)
);
}
);
width = 600;
},
{
associatedMasterId = m005;
layerId = m01;
name = Regular;
shapes = (
{
closed = 1;
nodes = (
(518,-118,o),
(627,-72,o),
(684,-7,c),
(661,19,l),
(608,-41,o),
(509,-83,o),
(422,-83,cs),
(237,-83,o),
(106,38,o),
(106,238,cs),
(106,422,o),
(237,573,o),
(422,573,cs),
(582,573,o),
(695,475,o),
(695,308,cs),
(695,218,o),
(661,95,o),
(570,95,cs),
(537,95,o),
(518,108,o),
(522,130,cs),
(577,393,l),
(563,416,o),
(505,432,o),
(437,432,cs),
(333,432,o),
(225,331,o),
(225,193,cs),
(225,112,o),
(270,58,o),
(357,58,cs),
(389,58,o),
(425,78,o),
(454,109,c),
(461,80,o),
(499,63,o),
(554,63,cs),
(659,63,o),
(735,177,o),
(735,308,cs),
(735,495,o),
(605,608,o),
(422,608,cs),
(213,608,o),
(66,443,o),
(66,238,cs),
(66,18,o),
(213,-118,o),
(422,-118,cs)
);
},
{
closed = 1;
nodes = (
(300,316,o),
(361,396,o),
(417,396,cs),
(459,396,o),
(482,390,o),
(505,374,c),
(456,140,l),
(427,115,o),
(397,100,o),
(375,100,cs),
(322,100,o),
(300,145,o),
(300,211,cs)
);
}
);
width = 801;
},
{
associatedMasterId = m005;
layerId = "404132C0-55CF-4910-B5A3-A578668CC6ED";
name = Regular;
shapes = (
{
closed = 1;
nodes = (
(525,-118,o),
(634,-72,o),
(691,-7,c),
(668,19,l),
(615,-41,o),
(516,-83,o),
(429,-83,cs),
(244,-83,o),
(113,58,o),
(113,258,cs),
(113,442,o),
(244,573,o),
(429,573,cs),
(589,573,o),
(702,455,o),
(702,288,cs),
(702,184,o),
(658,104,o),
(597,96,cs),
(552,90,o),
(524,104,o),
(529,130,cs),
(584,393,l),
(570,416,o),
(512,432,o),
(444,432,cs),
(347,432,o),
(260,344,o),
(234,220,cs),
(214,125,o),
(268,58,o),
(364,58,cs),
(409,58,o),
(462,97,o),
(492,151,c),
(496,173,l),
(460,130,o),
(413,100,o),
(382,100,cs),
(322,100,o),
(291,157,o),
(308,237,cs),
(327,330,o),
(375,396,o),
(424,396,c),
(466,396,o),
(489,390,o),
(512,374,c),
(461,130,ls),
(452,87,o),
(499,59,o),
(574,63,cs),
(672,69,o),
(742,162,o),
(742,288,cs),
(742,475,o),
(612,608,o),
(429,608,cs),
(220,608,o),
(73,463,o),
(73,258,cs),
(73,38,o),
(220,-118,o),
(429,-118,cs)
);
}
);
width = 800;
},
{
associatedMasterId = m005;
layerId = "7CDE027E-669A-44DA-9839-9557A953AA7F";
name = Regular;
shapes = (
{
closed = 1;
nodes = (
(525,-118,o),
(634,-72,o),
(691,-7,c),
(668,19,l),
(615,-41,o),
(516,-83,o),
(429,-83,cs),
(244,-83,o),
(113,58,o),
(113,258,cs),
(113,442,o),
(244,573,o),
(429,573,cs),
(589,573,o),
(702,455,o),
(702,288,cs),
(702,198,o),
(668,95,o),
(577,95,cs),
(544,95,o),
(525,108,o),
(529,130,cs),
(584,393,l),
(570,416,o),
(512,432,o),
(444,432,cs),
(340,432,o),
(232,331,o),
(232,193,cs),
(232,112,o),
(277,58,o),
(364,58,cs),
(399,58,o),
(440,82,o),
(470,119,c),
(460,118,l),
(461,83,o),
(500,63,o),
(561,63,cs),
(666,63,o),
(742,157,o),
(742,288,cs),
(742,475,o),
(612,608,o),
(429,608,cs),
(220,608,o),
(73,463,o),
(73,258,cs),
(73,38,o),
(220,-118,o),
(429,-118,cs)
);
},
{
closed = 1;
nodes = (
(329,100,o),
(307,145,o),
(307,211,cs),
(307,316,o),
(368,396,o),
(424,396,cs),
(471,396,o),
(495,388,o),
(521,367,c),
(516,392,l),
(459,122,l),
(474,150,l),
(442,119,o),
(407,100,o),
(382,100,cs)
);
}
);
width = 800;
},
{
associatedMasterId = m005;
hints = (
{
horizontal = 1;
place = (-121,41);
type = Stem;
},
{
horizontal = 1;
place = (60,40);
type = Stem;
},
{
horizontal = 1;
place = (401,43);
type = Stem;
},
{
horizontal = 1;
place = (570,41);
type = Stem;
},
{
place = (13,93);
type = Stem;
},
{
place = (163,141);
type = Stem;
},
{
place = (675,94);
type = Stem;
},
{
horizontal = 1;
place = (63,49);
type = Stem;
}
);
layerId = "E0989092-07D5-4BE4-A82B-4E03160A36DB";
name = Black;
shapes = (
{
closed = 1;
nodes = (
(501,-121,o),
(617,-67,o),
(686,10,c),
(659,44,l),
(605,-28,o),
(499,-80,o),
(405,-80,cs),
(250,-80,o),
(99,28,o),
(99,238,cs),
(99,432,o),
(250,570,o),
(405,570,cs),
(535,570,o),
(668,485,o),
(668,308,cs),
(668,176,o),
(584,100,o),
(578,100,cs),
(547,100,o),
(516,111,o),
(522,138,cs),
(577,396,l),
(561,419,o),
(483,444,o),
(395,444,cs),
(260,444,o),
(187,354,o),
(162,246,cs),
(140,134,o),
(168,63,o),
(315,63,cs),
(349,63,o),
(380,71,o),
(407,82,c),
(433,70,o),
(474,60,o),
(551,60,cs),
(686,60,o),
(762,179,o),
(762,308,cs),
(762,502,o),
(608,611,o),
(405,611,cs),
(180,611,o),
(6,451,o),
(6,238,cs),
(6,10,o),
(178,-121,o),
(405,-121,cs)
);
},
{
closed = 1;
nodes = (
(318,346,o),
(341,401,o),
(375,401,cs),
(379,401,o),
(414,395,o),
(438,389,c),
(393,167,l),
(379,132,o),
(352,112,o),
(333,112,cs),
(305,112,o),
(287,175,o),
(302,263,cs)
);
}
);
width = 788;
},
{
associatedMasterId = m005;
hints = (
{
horizontal = 1;
place = (25,140);
type = Stem;
},
{
horizontal = 1;
place = (154,140);
type = Stem;
},
{
horizontal = 1;
place = (396,142);
type = Stem;
},
{
horizontal = 1;
place = (516,140);
type = Stem;
},
{
place = (121,177);
type = Stem;
},
{
place = (227,211);
type = Stem;
},
{
place = (591,178);
type = Stem;
},
{
horizontal = 1;
place = (156,146);
type = Stem;
}
);
layerId = m003;
name = BlackCondensed;
shapes = (
{
closed = 1;
nodes = (
(470,-111,o),
(553,-61,o),
(598,10,c),
(579,44,l),
(544,-23,o),
(469,-70,o),
(399,-70,cs),
(248,-70,o),
(142,58,o),
(142,238,cs),
(142,427,o),
(248,560,o),
(399,560,cs),
(520,560,o),
(606,456,o),
(606,308,cs),
(606,186,o),
(571,100,o),
(522,100,cs),
(495,100,o),
(479,116,o),
(482,138,cs),
(521,396,l),
(508,424,o),
(454,444,o),
(392,444,cs),
(314,444,o),
(245,362,o),
(226,246,cs),
(212,139,o),
(257,63,o),
(335,63,cs),
(354,63,o),
(381,71,o),
(400,82,c),
(420,69,o),
(463,60,o),
(503,60,cs),
(602,60,o),
(672,163,o),
(672,308,cs),
(672,480,o),
(559,601,o),
(399,601,cs),
(210,601,o),
(76,451,o),
(76,238,cs),
(76,34,o),
(210,-111,o),
(399,-111,cs)
);
},
{
closed = 1;
nodes = (
(337,344,o),
(358,401,o),
(378,401,cs),
(384,401,o),
(402,396,o),
(422,389,c),
(390,167,l),
(381,135,o),
(363,112,o),
(348,112,cs),
(324,112,o),
(315,175,o),
(326,263,cs)
);
}
);
width = 788;
},
{
associatedMasterId = m005;
layerId = "E1BA075C-8321-4C1E-A607-5D2C087D9921";
name = "23. Dez. 23, 20:17";
shapes = (
{
closed = 1;
nodes = (
(458,471,o),
(401,487,o),
(339,487,cs),
(248,487,o),
(184,406,o),
(184,292,cs),
(184,187,o),
(248,113,o),
(339,113,cs),
(375,113,o),
(427,152,o),
(465,206,c),
(441,226,l),
(410,179,o),
(368,145,o),
(339,145,cs),
(283,145,o),
(244,206,o),
(244,292,cs),
(244,387,o),
(283,455,o),
(339,455,cs),
(385,455,o),
(418,431,o),
(418,397,c),
(418,185,l),
(418,142,o),
(464,112,o),
(529,112,cs),
(609,112,o),
(666,187,o),
(666,292,cs),
(666,506,o),
(531,658,o),
(339,658,cs),
(150,658,o),
(17,506,o),
(17,292,cs),
(17,81,o),
(150,-68,o),
(339,-68,cs),
(416,-68,o),
(519,-22,o),
(588,43,c),
(575,58,l),
(507,-4,o),
(409,-48,o),
(339,-48,cs),
(162,-48,o),
(37,93,o),
(37,292,cs),
(37,495,o),
(162,638,o),
(339,638,cs),
(519,638,o),
(646,495,o),
(646,292,cs),
(646,205,o),
(597,144,o),
(528,144,cs),
(499,144,o),
(478,161,o),
(478,185,c),
(478,448,l)
);
}
);
width = 600;
},
{
color = 4;
layerId = m005;
name = Regular;
shapes = (
{
closed = 1;
nodes = (
(504,-118,o),
(613,-72,o),
(670,-7,c),
(653,14,l),
(601,-46,o),
(500,-88,o),
(408,-88,cs),
(218,-88,o),
(84,47,o),
(84,238,cs),
(84,437,o),
(218,578,o),
(408,578,cs),
(574,578,o),
(690,466,o),
(690,308,cs),
(690,183,o),
(635,95,o),
(556,95,cs),
(518,95,o),
(494,110,o),
(498,130,cs),
(553,393,l),
(539,416,o),
(485,432,o),
(423,432,cs),
(295,432,o),
(205,333,o),
(205,193,cs),
(205,114,o),
(262,58,o),
(343,58,cs),
(372,58,o),
(412,79,o),
(440,109,c),
(447,82,o),
(488,63,o),
(540,63,cs),
(646,63,o),
(720,165,o),
(720,308,cs),
(720,484,o),
(591,608,o),
(408,608,cs),
(201,608,o),
(54,455,o),
(54,238,cs),
(54,29,o),
(201,-118,o),
(408,-118,cs)
);
},
{
closed = 1;
nodes = (
(276,319,o),
(329,396,o),
(403,396,cs),
(433,396,o),
(466,387,o),
(483,374,c),
(434,140,l),
(405,117,o),
(375,100,o),
(361,100,cs),
(311,100,o),
(276,146,o),
(276,211,cs)
);
}
);
width = 774;
},
{
associatedMasterId = m005;
layerId = "10259C87-1F2C-4B21-82A3-D06A025E0AFF";
name = "1. Jan. 24, 18:26";
shapes = (
{
closed = 1;
nodes = (
(525,-118,o),
(634,-72,o),
(691,-7,c),
(668,19,l),
(615,-41,o),
(516,-83,o),
(429,-83,cs),
(244,-83,o),
(113,58,o),
(113,258,cs),
(113,442,o),
(244,573,o),
(429,573,cs),
(589,573,o),
(702,455,o),
(702,288,cs),
(702,184,o),
(658,104,o),
(597,96,cs),
(552,90,o),
(524,104,o),
(529,130,cs),
(584,393,l),
(570,416,o),
(512,432,o),
(444,432,cs),
(347,432,o),
(260,344,o),
(234,220,cs),
(214,125,o),
(268,58,o),
(364,58,cs),
(409,58,o),
(462,97,o),
(492,151,c),
(496,173,l),
(460,130,o),
(413,100,o),
(382,100,cs),
(322,100,o),
(291,157,o),
(308,237,cs),
(327,330,o),
(375,396,o),
(424,396,c),
(466,396,o),
(489,390,o),
(512,374,c),
(461,130,ls),
(452,87,o),
(499,59,o),
(574,63,cs),
(672,69,o),
(742,162,o),
(742,288,cs),
(742,475,o),
(612,608,o),
(429,608,cs),
(220,608,o),
(73,463,o),
(73,258,cs),
(73,38,o),
(220,-118,o),
(429,-118,cs)
);
}
);
width = 800;
},
{
associatedMasterId = m005;
layerId = "8C0016A5-A153-4664-890D-A5505B0C0526";
name = "2. Jan. 24, 00:15";
shapes = (
{
closed = 1;
nodes = (
(525,-118,o),
(634,-72,o),
(691,-7,c),
(668,19,l),
(615,-41,o),
(516,-83,o),
(429,-83,cs),
(244,-83,o),
(113,58,o),
(113,258,cs),
(113,442,o),
(244,573,o),
(429,573,cs),
(589,573,o),
(702,455,o),
(702,288,cs),
(702,198,o),
(668,95,o),
(577,95,cs),
(544,95,o),
(525,108,o),
(529,130,cs),
(584,393,l),
(570,416,o),
(512,432,o),
(444,432,cs),
(340,432,o),
(232,331,o),
(232,193,cs),
(232,112,o),
(277,58,o),
(364,58,cs),
(399,58,o),
(440,82,o),
(470,119,c),
(460,118,l),
(461,83,o),
(500,63,o),
(561,63,cs),
(666,63,o),
(742,157,o),
(742,288,cs),
(742,475,o),
(612,608,o),
(429,608,cs),
(220,608,o),
(73,463,o),
(73,258,cs),
(73,38,o),
(220,-118,o),
(429,-118,cs)
);
},
{
closed = 1;
nodes = (
(329,100,o),
(307,145,o),
(307,211,cs),
(307,316,o),
(368,396,o),
(424,396,cs),
(471,396,o),
(495,388,o),
(521,367,c),
(516,392,l),
(459,122,l),
(474,150,l),
(442,119,o),
(407,100,o),
(382,100,cs)
);
}
);
width = 800;
}
);
unicode = 64;
},
{
glyphname = ampersand;
lastChange = "2025-01-08 20:10:11 +0000";
layers = (
{
color = 4;
layerId = m005;
shapes = (
{
closed = 1;
nodes = (
(440,-11,o),
(527,157,o),
(636,309,cs),
(657,339,o),
(697,353,o),
(730,353,c),
(730,384,l),
(530,384,l),
(530,354,l),
(572,347,o),
(583,340,o),
(583,326,cs),
(583,312,o),
(571,290,o),
(550,254,cs),
(515,193,o),
(413,43,o),
(314,43,cs),
(222,43,o),
(152,106,o),
(152,199,cs),
(152,359,o),
(424,380,o),
(424,532,cs),
(424,584,o),
(371,627,o),
(294,627,cs),
(216,627,o),
(160,568,o),
(160,484,cs),
(160,417,o),
(220,305,o),
(305,213,cs),
(428,80,o),
(552,-14,o),
(623,-14,cs),
(670,-14,o),
(716,-5,o),
(738,8,c),
(729,37,l),
(721,32,o),
(712,29,o),
(700,28,cs),
(627,20,o),
(485,124,o),
(370,258,cs),
(291,351,o),
(224,451,o),
(224,511,cs),
(224,561,o),
(246,597,o),
(276,597,cs),
(325,597,o),
(344,545,o),
(344,500,cs),
(344,381,o),
(72,371,o),
(72,153,cs),
(72,51,o),
(156,-11,o),
(273,-11,cs)
);
}
);
width = 756;
},
{
associatedMasterId = m005;
layerId = "EB7A7454-39B5-4248-AC17-BA83906C524F";
name = "25. Dez. 24, 13:03";
shapes = (
{
closed = 1;
nodes = (
(312,-11,o),
(387,29,o),
(426,85,cs),
(472,148,l),
(460,176,l),
(401,101,ls),
(375,67,o),
(325,48,o),
(284,48,cs),
(225,48,o),
(170,114,o),
(170,190,cs),
(170,311,o),
(428,367,o),
(428,491,cs),
(428,570,o),
(375,626,o),
(306,626,cs),
(218,626,o),
(150,567,o),
(150,484,cs),
(150,442,o),
(172,396,o),
(196,373,cs),
(229,343,o),
(382,208,o),
(397,192,cs),
(426,164,o),
(455,111,o),
(477,65,cs),
(498,23,o),
(552,-7,o),
(597,-7,cs),
(640,-7,o),
(701,22,o),
(745,63,c),
(728,85,l),
(700,63,o),
(664,45,o),
(637,45,cs),
(607,45,o),
(570,69,o),
(551,102,cs),
(515,167,o),
(479,224,o),
(433,266,cs),
(363,331,o),
(308,370,o),
(272,404,cs),
(240,432,o),
(217,474,o),
(217,507,cs),
(217,552,o),
(247,583,o),
(289,583,cs),
(332,583,o),
(363,541,o),
(363,482,cs),
(363,373,o),
(87,307,o),
(87,156,c),
(87,57,o),
(148,-11,o),
(250,-11,c)
);
},
{
closed = 1;
nodes = (
(608,327,l),
(622,349,o),
(651,355,o),
(687,355,cs),
(730,355,l),
(730,383,l),
(515,383,l),
(515,355,l),
(521,355,o),
(532,354,o),
(556,354,cs),
(565,354,o),
(572,353,o),
(572,345,cs),
(572,336,o),
(563,321,o),
(550,305,c),
(460,169,l),
(472,141,l)
);
}
);
width = 866;
}
);
unicode = 38;
},
{
glyphname = paragraph;
lastChange = "2025-01-08 20:10:11 +0000";
layers = (
{
color = 4;
layerId = m005;
shapes = (
{
closed = 1;
nodes = (
(228,-232,o),
(264,-213,o),
(292,-187,cs),
(355,-127,o),
(398,15,o),
(396,148,cs),
(394,310,l),
(396,519,ls),
(396,547,o),
(407,569,o),
(423,577,cs),
(430,581,o),
(448,585,o),
(486,590,c),
(486,616,l),
(230,584,l),
(230,566,l),
(272,556,o),
(303,548,o),
(311,533,cs),
(315,525,o),
(318,509,o),
(318,493,cs),
(318,81,ls),
(318,4,o),
(312,-74,o),
(304,-101,c),
(304,-100,l),
(294,-133,o),
(275,-157,o),
(258,-157,cs),
(239,-158,o),
(237,-135,o),
(218,-134,cs),
(185,-134,o),
(162,-163,o),
(162,-203,cs),
(162,-220,o),
(180,-232,o),
(206,-232,cs)
);
},
{
closed = 1;
nodes = (
(354,580,l),
(486,616,l),
(447,620,o),
(394,623,o),
(358,623,cs),
(175,623,o),
(54,533,o),
(54,383,cs),
(54,251,o),
(165,141,o),
(334,141,cs),
(354,140,l)
);
}
);
width = 522;
}
);
unicode = 182;
},
{
glyphname = section;
lastChange = "2025-01-08 20:10:11 +0000";
layers = (
{
associatedMasterId = m005;
layerId = m01;
name = Regular;
shapes = (
{
closed = 1;
nodes = (
(371,-225,o),
(449,-157,o),
(449,-62,cs),
(449,-30,o),
(426,2,o),
(392,34,c),
(451,66,o),
(489,137,o),
(489,227,cs),
(489,377,o),
(170,522,o),
(170,601,cs),
(170,653,o),
(210,690,o),
(267,690,cs),
(305,690,o),
(350,673,o),
(376,650,c),
(390,549,l),
(438,549,l),
(438,678,l),
(392,706,o),
(321,726,o),
(267,726,cs),
(156,726,o),
(78,658,o),
(78,563,cs),
(78,531,o),
(101,499,o),
(135,467,c),
(76,435,o),
(38,364,o),
(38,274,cs),
(38,125,o),
(357,-21,o),
(357,-100,cs),
(357,-152,o),
(317,-189,o),
(260,-189,cs),
(222,-189,o),
(176,-172,o),
(151,-148,c),
(137,-38,l),
(90,-38,l),
(90,-177,l),
(135,-205,o),
(206,-225,o),
(260,-225,cs)
);
},
{
closed = 1;
nodes = (
(120,374,o),
(142,415,o),
(171,436,c),
(269,357,o),
(407,275,o),
(407,179,cs),
(407,127,o),
(385,86,o),
(356,65,c),
(258,144,o),
(120,226,o),
(120,322,cs)
);
}
);
width = 517;
},
{
associatedMasterId = m005;
hints = (
{
horizontal = 1;
place = (-228,42);
type = Stem;
},
{
horizontal = 1;
place = (687,42);
type = Stem;
},
{
place = (46,168);
type = Stem;
},
{
place = (415,168);
type = Stem;
},
{
place = (365,178);
type = Stem;
},
{
place = (86,178);
type = Stem;
}
);
layerId = "E0989092-07D5-4BE4-A82B-4E03160A36DB";
name = Black;
shapes = (
{
closed = 1;
nodes = (
(414,-228,o),
(515,-159,o),
(515,-62,cs),
(515,-29,o),
(488,3,o),
(449,37,c),
(514,71,o),
(555,137,o),
(555,227,cs),
(555,375,o),
(236,507,o),
(236,601,cs),
(236,663,o),
(261,687,o),
(290,687,cs),
(311,687,o),
(350,691,o),
(387,662,c),
(403,546,l),
(504,546,l),
(504,666,l),
(478,694,o),
(367,729,o),
(290,729,cs),
(159,729,o),
(58,660,o),
(58,563,cs),
(58,530,o),
(85,498,o),
(124,464,c),
(59,430,o),
(18,364,o),
(18,274,cs),
(18,127,o),
(337,-6,o),
(337,-100,cs),
(337,-162,o),
(312,-186,o),
(283,-186,cs),
(263,-186,o),
(226,-194,o),
(186,-160,c),
(170,-35,l),
(70,-35,l),
(70,-165,l),
(95,-193,o),
(206,-228,o),
(283,-228,cs)
);
},
{
closed = 1;
nodes = (
(186,357,o),
(192,384,o),
(199,404,c),
(289,337,o),
(387,264,o),
(387,179,cs),
(387,144,o),
(381,117,o),
(374,97,c),
(284,164,o),
(186,237,o),
(186,322,cs)
);
}
);
width = 603;
},
{
associatedMasterId = m005;
layerId = "DC649081-A1EF-4DB9-ADD4-D0F9CBFF5DD6";
name = Regular;
shapes = (
{
closed = 1;
nodes = (
(467,14,o),
(540,102,o),
(540,227,cs),
(540,377,o),
(221,522,o),
(221,601,cs),
(221,653,o),
(261,690,o),
(318,690,cs),
(356,690,o),
(401,673,o),
(427,650,c),
(441,549,l),
(489,549,l),
(489,678,l),
(443,706,o),
(372,726,o),
(318,726,cs),
(207,726,o),
(129,658,o),
(129,563,cs),
(129,442,o),
(458,327,o),
(458,179,cs),
(458,104,o),
(413,51,o),
(364,51,cs),
(301,51,o),
(228,100,o),
(188,170,c),
(173,161,l),
(222,75,o),
(301,14,o),
(364,14,cs)
);
},
{
closed = 1;
nodes = (
(422,-225,o),
(500,-157,o),
(500,-62,cs),
(500,59,o),
(171,174,o),
(171,322,cs),
(171,397,o),
(216,450,o),
(265,450,cs),
(330,450,o),
(403,400,o),
(441,330,c),
(456,340,l),
(407,426,o),
(328,487,o),
(265,487,cs),
(162,487,o),
(89,399,o),
(89,274,cs),
(89,125,o),
(408,-21,o),
(408,-100,cs),
(408,-152,o),
(368,-189,o),
(311,-189,cs),
(273,-189,o),
(227,-172,o),
(202,-148,c),
(188,-38,l),
(141,-38,l),
(141,-177,l),
(186,-205,o),
(257,-225,o),
(311,-225,cs)
);
}
);
width = 639;
},
{
associatedMasterId = m005;
hints = (
{
horizontal = 1;
place = (-79,113);
type = Stem;
},
{
horizontal = 1;
place = (571,113);
type = Stem;
},
{
place = (116,202);
type = Stem;
},
{
place = (378,202);
type = Stem;
},
{
place = (342,209);
type = Stem;
},
{
place = (144,209);
type = Stem;
}
);
layerId = m003;
name = BlackCondensed;
shapes = (
{
closed = 1;
nodes = (
(377,-228,o),
(449,-159,o),
(449,-62,cs),
(449,-29,o),
(430,3,o),
(402,37,c),
(448,71,o),
(517,137,o),
(517,227,cs),
(517,375,o),
(251,507,o),
(251,601,cs),
(251,663,o),
(268,687,o),
(289,687,cs),
(304,687,o),
(352,691,o),
(378,662,c),
(389,546,l),
(461,546,l),
(461,666,l),
(442,694,o),
(364,729,o),
(289,729,cs),
(196,729,o),
(124,660,o),
(124,563,cs),
(124,530,o),
(143,498,o),
(171,464,c),
(125,430,o),
(56,364,o),
(56,274,cs),
(56,127,o),
(322,-6,o),
(322,-100,cs),
(322,-162,o),
(305,-186,o),
(284,-186,cs),
(270,-186,o),
(224,-194,o),
(195,-160,c),
(184,-35,l),
(113,-35,l),
(113,-165,l),
(131,-193,o),
(209,-228,o),
(284,-228,cs)
);
},
{
closed = 1;
nodes = (
(195,357,o),
(219,384,o),
(224,404,c),
(288,337,o),
(378,264,o),
(378,179,cs),
(378,144,o),
(354,117,o),
(349,97,c),
(285,164,o),
(195,237,o),
(195,322,cs)
);
}
);
width = 603;
},
{
color = 4;
layerId = m005;
shapes = (
{
closed = 1;
nodes = (
(384,89,o),
(468,165,o),
(468,273,cs),
(468,424,o),
(169,429,o),
(171,555,cs),
(172,602,o),
(222,636,o),
(288,636,cs),
(345,636,o),
(380,594,o),
(375,535,c),
(406,535,l),
(405,572,o),
(407,618,o),
(410,646,c),
(368,663,o),
(316,675,o),
(288,675,cs),
(182,675,o),
(104,607,o),
(104,510,cs),
(104,351,o),
(399,366,o),
(399,235,cs),
(399,166,o),
(339,122,o),
(252,129,c),
(262,89,l)
);
},
{
closed = 1;
nodes = (
(142,404,o),
(54,327,o),
(54,219,cs),
(54,68,o),
(354,63,o),
(351,-63,cs),
(350,-111,o),
(300,-145,o),
(235,-145,cs),
(180,-145,o),
(142,-103,o),
(148,-44,c),
(117,-44,l),
(118,-103,o),
(117,-149,o),
(114,-155,c),
(156,-172,o),
(208,-184,o),
(235,-184,cs),
(342,-184,o),
(420,-116,o),
(420,-19,cs),
(420,140,o),
(125,125,o),
(125,257,cs),
(125,326,o),
(188,369,o),
(272,362,c),
(261,404,l)
);
}
);
width = 522;
},
{
associatedMasterId = m005;
layerId = "3D2CBD54-4E8F-46D6-B855-3F6BA3543F14";
name = "8. Jan. 24, 18:35";
shapes = (
{
closed = 1;
nodes = (
(467,14,o),
(540,102,o),
(540,227,cs),
(540,377,o),
(221,522,o),
(221,601,cs),
(221,653,o),
(261,690,o),
(318,690,cs),
(356,690,o),
(401,673,o),
(427,650,c),
(441,549,l),
(489,549,l),
(489,678,l),
(443,706,o),
(372,726,o),
(318,726,cs),
(207,726,o),
(129,658,o),
(129,563,cs),
(129,442,o),
(458,327,o),
(458,179,cs),
(458,104,o),
(413,51,o),
(364,51,cs),
(301,51,o),
(228,100,o),
(188,170,c),
(173,161,l),
(222,75,o),
(301,14,o),
(364,14,cs)
);
},
{
closed = 1;
nodes = (
(422,-225,o),
(500,-157,o),
(500,-62,cs),
(500,59,o),
(171,174,o),
(171,322,cs),
(171,397,o),
(216,450,o),
(265,450,cs),
(330,450,o),
(403,400,o),
(441,330,c),
(456,340,l),
(407,426,o),
(328,487,o),
(265,487,cs),
(162,487,o),
(89,399,o),
(89,274,cs),
(89,125,o),
(408,-21,o),
(408,-100,cs),
(408,-152,o),
(368,-189,o),
(311,-189,cs),
(273,-189,o),
(227,-172,o),
(202,-148,c),
(188,-38,l),
(141,-38,l),
(141,-177,l),
(186,-205,o),
(257,-225,o),
(311,-225,cs)
);
}
);
width = 639;
}
);
unicode = 167;
},
{
glyphname = degree;
lastChange = "2025-01-08 20:10:11 +0000";
layers = (
{
color = 4;
layerId = m005;
shapes = (
{
closed = 1;
nodes = (
(251,421,o),
(306,478,o),
(306,558,cs),
(306,638,o),
(251,694,o),
(171,694,cs),
(91,694,o),
(36,638,o),
(36,558,cs),
(36,478,o),
(91,421,o),
(171,421,cs)
);
},
{
closed = 1;
nodes = (
(115,461,o),
(76,501,o),
(76,558,cs),
(76,614,o),
(115,654,o),
(171,654,cs),
(227,654,o),
(266,614,o),
(266,558,cs),
(266,501,o),
(227,461,o),
(171,461,cs)
);
}
);
width = 342;
}
);
unicode = 176;
},
{
export = 0;
glyphname = bar;
lastChange = "2025-01-08 20:10:11 +0000";
layers = (
{
associatedMasterId = m005;
layerId = m01;
name = Regular;
shapes = (
{
closed = 1;
nodes = (
(181,-166,l),
(181,717,l),
(111,667,l),
(111,-216,l)
);
}
);
width = 292;
},
{
associatedMasterId = m005;
hints = (
{
horizontal = 1;
place = (717,-20);
target = down;
type = TopGhost;
},
{
place = (111,70);
type = Stem;
}
);
layerId = "E0989092-07D5-4BE4-A82B-4E03160A36DB";
name = Black;
shapes = (
{
closed = 1;
nodes = (
(181,-166,l),
(181,717,l),
(111,667,l),
(111,-216,l)
);
}
);
width = 302;
},
{
associatedMasterId = m005;
hints = (
{
horizontal = 1;
place = (551,-20);
target = down;
type = TopGhost;
},
{
place = (121,92);
type = Stem;
}
);
layerId = m003;
name = BlackCondensed;
shapes = (
{
closed = 1;
nodes = (
(171,-166,l),
(171,717,l),
(121,667,l),
(121,-216,l)
);
}
);
width = 302;
},
{
color = 1;
layerId = m005;
shapes = (
{
closed = 1;
nodes = (
(126,-232,l),
(126,693,l),
(90,694,l),
(90,-232,l)
);
}
);
width = 216;
}
);
unicode = 124;
},
{
export = 0;
glyphname = brokenbar;
lastChange = "2025-01-08 20:10:11 +0000";
layers = (
{
associatedMasterId = m005;
layerId = m01;
name = Regular;
shapes = (
{
closed = 1;
nodes = (
(181,334,l),
(181,717,l),
(111,667,l),
(111,284,l)
);
},
{
closed = 1;
nodes = (
(181,-166,l),
(181,217,l),
(111,167,l),
(111,-216,l)
);
}
);
width = 292;
},
{
associatedMasterId = m005;
hints = (
{
horizontal = 1;
place = (717,-20);
target = down;
type = TopGhost;
},
{
place = (111,70);
type = Stem;
}
);
layerId = "E0989092-07D5-4BE4-A82B-4E03160A36DB";
name = Black;
shapes = (
{
closed = 1;
nodes = (
(171,334,l),
(171,717,l),
(101,667,l),
(101,284,l)
);
},
{
closed = 1;
nodes = (
(171,-166,l),
(171,217,l),
(101,167,l),
(101,-216,l)
);
}
);
width = 282;
},
{
associatedMasterId = m005;
hints = (
{
horizontal = 1;
place = (549,-20);
target = down;
type = TopGhost;
},
{
place = (118,89);
type = Stem;
}
);
layerId = m003;
name = BlackCondensed;
shapes = (
{
closed = 1;
nodes = (
(161,334,l),
(161,717,l),
(111,667,l),
(111,284,l)
);
},
{
closed = 1;
nodes = (
(161,-166,l),
(161,217,l),
(111,167,l),
(111,-216,l)
);
}
);
width = 282;
},
{
color = 1;
layerId = m005;
shapes = (
{
closed = 1;
nodes = (
(144,310,l),
(144,693,l),
(90,693,l),
(90,310,l)
);
},
{
closed = 1;
nodes = (
(144,-165,l),
(144,218,l),
(90,218,l),
(90,-165,l)
);
}
);
width = 234;
}
);
unicode = 166;
},
